<svg width="24" height="24" viewBox="0 0 24 24" fill="none" xmlns="http://www.w3.org/2000/svg">
<path d="M13.5 5.99402C13.5 6.81774 12.8298 7.48804 12 7.48804C11.1702 7.48804 10.5 6.81774 10.5 5.99402C10.5 5.17031 11.1702 4.5 12 4.5C12.8298 4.5 13.5 5.17031 13.5 5.99402Z" fill="#8798A1" stroke="#8798A1"/>
<path d="M12 7.48957C12.8284 7.48957 13.5 6.82 13.5 5.99405C13.5 5.1681 12.8284 4.49854 12 4.49854C11.1716 4.49854 10.5 5.1681 10.5 5.99405C10.5 6.82 11.1716 7.48957 12 7.48957Z" stroke="#8798A1" stroke-miterlimit="10"/>
<path d="M13.5 11.9999C13.5 12.8236 12.8298 13.4939 12 13.4939C11.1702 13.4939 10.5 12.8236 10.5 11.9999C10.5 11.1762 11.1702 10.5059 12 10.5059C12.8298 10.5059 13.5 11.1762 13.5 11.9999Z" fill="#8798A1" stroke="#8798A1"/>
<path d="M12 13.4954C12.8284 13.4954 13.5 12.8259 13.5 11.9999C13.5 11.174 12.8284 10.5044 12 10.5044C11.1716 10.5044 10.5 11.174 10.5 11.9999C10.5 12.8259 11.1716 13.4954 12 13.4954Z" stroke="#8798A1" stroke-miterlimit="10"/>
<path d="M13.5 18.006C13.5 18.8297 12.8298 19.5 12 19.5C11.1702 19.5 10.5 18.8297 10.5 18.006C10.5 17.1823 11.1702 16.512 12 16.512C12.8298 16.512 13.5 17.1823 13.5 18.006Z" fill="#8798A1" stroke="#8798A1"/>
<path d="M12 19.5015C12.8284 19.5015 13.5 18.832 13.5 18.006C13.5 17.1801 12.8284 16.5105 12 16.5105C11.1716 16.5105 10.5 17.1801 10.5 18.006C10.5 18.832 11.1716 19.5015 12 19.5015Z" stroke="#8798A1" stroke-miterlimit="10"/>
</svg>
