<svg width="24" height="24" viewBox="0 0 24 24" fill="none" xmlns="http://www.w3.org/2000/svg">
<path d="M5.69704 21C5.63153 20.9996 5.56665 20.9868 5.506 20.962C5.41456 20.9242 5.33639 20.8601 5.28139 20.7779C5.22638 20.6957 5.19705 20.5989 5.19704 20.5V17.21C4.52241 16.7903 3.96622 16.2053 3.58119 15.5103C3.19616 14.8153 2.99512 14.0335 2.99708 13.239V7.73099C2.99629 6.4786 3.49231 5.27708 4.37648 4.39011C5.26064 3.50313 6.46064 3.00318 7.71303 3H16.28C17.5325 3.00318 18.7326 3.5031 19.617 4.39005C20.5013 5.27699 20.9976 6.47851 20.9971 7.73099V13.239C20.9958 14.4896 20.4983 15.6886 19.614 16.573C18.7297 17.4573 17.5307 17.9547 16.28 17.956H8.91701L6.04909 20.856C5.9553 20.9485 5.82876 21.0002 5.69704 21ZM7.71608 4C6.72883 4.00291 5.783 4.3974 5.08632 5.09689C4.38963 5.79639 3.99895 6.74374 4.00001 7.73099V13.239C3.99773 13.9038 4.17629 14.5567 4.51662 15.1278C4.85694 15.6989 5.34623 16.1666 5.93202 16.481C6.01186 16.5235 6.07871 16.5869 6.12538 16.6644C6.17205 16.7419 6.19679 16.8305 6.19704 16.921V19.284L8.35609 17.104C8.40257 17.0571 8.45776 17.0199 8.51869 16.9945C8.57962 16.9691 8.64506 16.956 8.71107 16.956H16.2831C17.2686 16.9549 18.2133 16.563 18.9102 15.8661C19.607 15.1693 19.999 14.2245 20 13.239V7.73099C20.0011 6.74356 19.6102 5.79608 18.9133 5.09656C18.2164 4.39703 17.2705 4.00265 16.2831 4H7.71608Z" fill="#13968E"/>
<path d="M16.6019 10.895H7.40186C7.26925 10.895 7.14211 10.8423 7.04834 10.7486C6.95457 10.6548 6.90186 10.5276 6.90186 10.395C6.90186 10.2624 6.95457 10.1352 7.04834 10.0415C7.14211 9.94771 7.26925 9.89502 7.40186 9.89502H16.6019C16.7345 9.89502 16.8617 9.94771 16.9554 10.0415C17.0492 10.1352 17.1019 10.2624 17.1019 10.395C17.1019 10.5276 17.0492 10.6548 16.9554 10.7486C16.8617 10.8423 16.7345 10.895 16.6019 10.895Z" fill="#13968E"/>
<path d="M16.6019 7.96289H7.40186C7.26925 7.96289 7.14211 7.91024 7.04834 7.81647C6.95457 7.7227 6.90186 7.5955 6.90186 7.46289C6.90186 7.33028 6.95457 7.20311 7.04834 7.10934C7.14211 7.01558 7.26925 6.96289 7.40186 6.96289H16.6019C16.7345 6.96289 16.8617 7.01558 16.9554 7.10934C17.0492 7.20311 17.1019 7.33028 17.1019 7.46289C17.1019 7.5955 17.0492 7.7227 16.9554 7.81647C16.8617 7.91024 16.7345 7.96289 16.6019 7.96289Z" fill="#13968E"/>
<path d="M11.3781 13.8359H7.39697C7.26436 13.8359 7.13723 13.7833 7.04346 13.6895C6.94969 13.5957 6.89697 13.4685 6.89697 13.3359C6.89697 13.2033 6.94969 13.0762 7.04346 12.9824C7.13723 12.8886 7.26436 12.8359 7.39697 12.8359H11.3781C11.5107 12.8359 11.6378 12.8886 11.7316 12.9824C11.8253 13.0762 11.8781 13.2033 11.8781 13.3359C11.8781 13.4685 11.8253 13.5957 11.7316 13.6895C11.6378 13.7833 11.5107 13.8359 11.3781 13.8359Z" fill="#13968E"/>
</svg>
