<svg width="32" height="32" viewBox="0 0 32 32" fill="none" xmlns="http://www.w3.org/2000/svg">
<path d="M1.98659 20.3599C1.98659 20.3599 1.94659 20.3065 1.91992 20.2798C2.21326 21.2265 2.61326 22.1465 3.07992 23.0132C3.29326 23.3999 3.66659 24.0399 4.23992 24.7732C3.25326 23.4532 2.49326 21.9732 1.98659 20.3599Z" fill="#8798A1"/>
<path d="M16 0C7.17333 0 0 7.18667 0 16C0 16.3733 0.0133333 16.7466 0.04 17.12C0.253333 20.2666 1.38667 23.1733 3.18667 25.5733C3.36 25.8133 3.54667 26.0533 3.77333 26.3066C4.06667 26.6533 4.37333 26.9866 4.69333 27.3066C4.86667 27.48 5.04 27.6533 5.22667 27.8133C5.22667 27.84 5.25333 27.8533 5.28 27.8666C5.45333 28.0133 5.62667 28.1733 5.8 28.32C5.8 28.32 5.81333 28.3333 5.82667 28.3333C8.58667 30.6267 12.1333 32 16 32C19.04 32 21.8667 31.1467 24.2933 29.68C24.3067 29.6667 24.32 29.6667 24.32 29.6667C27.7733 27.5467 30.3733 24.16 31.4533 20.16C31.8133 18.8267 32 17.4267 32 16C32 7.18667 24.8267 0 16 0ZM23.72 28.4666C21.48 29.8666 18.84 30.6667 16 30.6667C12.3733 30.6667 9.08 29.36 6.50667 27.1733C6.28 26.9867 6.06667 26.8 5.86667 26.6C5.76 26.5067 5.65333 26.4 5.56 26.3066C5.22667 25.9733 4.93333 25.6533 4.68 25.3333C4.52 25.1467 4.37333 24.96 4.24 24.7734C3.66667 24.04 3.29333 23.4 3.08 23.0133C2.61333 22.1467 2.21333 21.2266 1.92 20.2799C1.94667 20.3066 1.96 20.3334 1.98667 20.36C2.97333 21.56 4 22.5733 5.02667 23.3467C6.26667 24.2933 7.14667 24.6133 8.02667 24.4533C8.49333 24.3866 8.82667 24.1867 9.14667 24.0133C9.42667 23.84 9.72 23.6667 10.2133 23.52C10.7733 23.3467 11.2533 23.3467 11.7067 23.3333C12.7867 23.32 13.6 23.6667 14.4933 24.08C15.2667 24.44 16.1467 24.84 17.2933 24.9733C18.7067 25.1466 19.8133 24.8533 20.72 24.6133C21.8 24.3199 22.4 24.1866 23.0667 24.6133C23.1867 24.6933 23.3067 24.7867 23.4267 24.9067C22.8533 25.2667 22.24 25.5733 21.6133 25.84C21.5067 25.88 21.4 25.9333 21.2933 25.9733C20.4 26.2666 19.3867 26.52 18.2533 26.7333C17.8933 26.8 17.7067 26.8267 17.5467 27.0667C17.44 27.2267 17.4 27.4266 17.4533 27.6133C17.5067 27.7999 17.6267 27.96 17.8 28.04C18.2267 28.2533 20.1733 27.84 21.7733 27.2133C23.4133 26.6666 24.72 25.9867 25.68 25.16C26.8133 24.1867 27.4133 23.4133 27.44 23.3733C27.7733 22.9333 27.9733 22.6 28.1333 22.3066C28.3467 21.96 28.48 21.7334 28.8 21.44C29.16 21.12 29.56 20.88 29.88 20.7467C28.7733 23.9733 26.5733 26.6933 23.72 28.4666ZM30.2933 19.2799C29.48 19.3066 28.4933 19.92 27.8933 20.4533C27.4267 20.88 27.2133 21.2533 26.9867 21.64C26.84 21.8933 26.6667 22.1867 26.3733 22.5733C26.3733 22.5733 25.8267 23.2666 24.8133 24.1466C24.76 24.1866 24.7067 24.2399 24.6533 24.2799C24.4 23.9599 24.1067 23.6933 23.7733 23.48C22.5867 22.7333 21.4667 23.0267 20.3733 23.32C19.5067 23.5467 18.6133 23.7867 17.4533 23.6533C16.52 23.5333 15.8 23.2133 15.0533 22.8666C14.0933 22.4266 13.08 22.0267 11.68 22C11.1867 22.0133 10.5733 22.0133 9.81333 22.2533C9.18667 22.44 8.8 22.6667 8.48 22.8534C8.21333 23 8.04 23.1066 7.8 23.1466C7.74667 23.16 7.68 23.16 7.61333 23.16C7.28 23.16 6.77333 23 5.82667 22.2933C4.30667 21.1333 2.76 19.4 1.4 17.2667C1.34667 16.8533 1.33333 16.4267 1.33333 16C1.33333 11.2667 3.58667 7.04003 7.09333 4.36003C7.42667 4.09336 7.78667 3.85328 8.14667 3.61328C10.4133 2.17328 13.1067 1.33333 16 1.33333C18.8933 1.33333 21.5867 2.17328 23.8533 3.61328C24.2133 3.85328 24.5733 4.09336 24.9067 4.36003C28.4133 7.04003 30.6667 11.2667 30.6667 16C30.6667 17.1333 30.5333 18.2266 30.2933 19.2799Z" fill="#8798A1"/>
<path d="M26.9866 13.2666C26.9866 15.1599 26.1866 16.8666 24.9066 18.0532C23.7333 19.1732 22.16 19.8399 20.4266 19.8399C17.7866 19.8399 15.52 18.2799 14.48 16.0399L15.4933 15.0266C16.2133 17.0533 18.1466 18.5066 20.4266 18.5066C22.32 18.5066 23.9866 17.4932 24.9066 15.9599C25.3866 15.1732 25.6533 14.2533 25.6533 13.2666C25.6533 12.2799 25.3866 11.3733 24.9066 10.5866C24 9.06659 22.3333 8.03988 20.4266 8.03988C19.1333 8.03988 17.9333 8.51989 17.0133 9.30656C16.9466 9.21323 16.8666 9.11994 16.7733 9.02661C16.5333 8.78661 16.2666 8.58661 15.9866 8.43994C17.1466 7.35994 18.7066 6.70654 20.4266 6.70654C22.1466 6.70654 23.7333 7.37323 24.9066 8.4799C26.1866 9.66657 26.9866 11.3733 26.9866 13.2666Z" fill="#8798A1"/>
<path d="M17.0134 9.30656C16.9468 9.21323 16.8668 9.11994 16.7734 9.02661C16.5334 8.78661 16.2668 8.58661 15.9868 8.43994C15.4934 8.18661 14.9601 8.05322 14.4268 8.05322C13.5601 8.05322 12.7068 8.37328 12.0534 9.02661L11.3734 9.70654L10.7068 9.02661C10.0534 8.37328 9.20009 8.05322 8.34676 8.05322C7.92009 8.05322 7.49343 8.13321 7.09343 8.29321C6.69343 8.45321 6.32009 8.70661 5.98676 9.02661C5.33343 9.67994 5.01343 10.5332 5.01343 11.3732C5.01343 12.2132 5.33343 13.1066 5.98676 13.7466L7.09343 14.8665L7.76009 15.5332L10.2668 18.0266C10.5734 18.3333 10.9734 18.4932 11.3734 18.4932C11.7734 18.4932 12.1868 18.3333 12.4934 18.0266L14.4801 16.0399L15.4934 15.0266L16.7734 13.7466C17.9601 12.5332 18.0534 10.6132 17.0134 9.30656ZM15.7334 12.6933L15.1868 13.2399L13.9734 14.4666L11.4668 16.9732C11.4668 16.9732 11.4001 17.0133 11.3734 17.0133C11.3468 17.0133 11.3201 16.9999 11.3201 16.9866L8.81343 14.4799L7.09343 12.7466L7.04009 12.6933C6.68009 12.3466 6.49343 11.8799 6.49343 11.3732C6.49343 10.8932 6.68009 10.4132 7.04009 10.0799C7.05343 10.0666 7.06676 10.0399 7.09343 10.0399C7.42676 9.70654 7.88009 9.51994 8.34676 9.51994C8.84009 9.51994 9.32009 9.71989 9.65343 10.0532L10.3201 10.7332L11.3734 11.7999L12.4268 10.7599L13.1201 10.0532C13.4401 9.71989 13.9201 9.51994 14.4268 9.51994C14.6134 9.51994 14.7868 9.54653 14.9601 9.6132C15.2534 9.6932 15.5068 9.83989 15.7201 10.0532C15.8401 10.1732 15.9468 10.3065 16.0134 10.4532C16.4401 11.1732 16.3334 12.1066 15.7334 12.6933Z" fill="#8798A1"/>
<path d="M22.52 13.4801C22.4267 13.2667 22.2933 13.0801 22.12 12.9201C21.9467 12.7734 21.76 12.6534 21.5467 12.5734C21.3467 12.4934 21.0667 12.4001 20.7067 12.3067V10.5334C21.0667 10.64 21.2933 10.8801 21.3867 11.2401C21.4667 11.5467 21.6533 11.6934 21.9333 11.6934C22.08 11.6934 22.2 11.64 22.3067 11.5334C22.4133 11.4267 22.4667 11.3067 22.4667 11.1601C22.4667 11.0401 22.4267 10.8934 22.36 10.7467C22.2933 10.5867 22.1867 10.44 22.0667 10.2934C21.8933 10.1067 21.7067 9.96003 21.4933 9.8667C21.2667 9.77337 21.0133 9.70676 20.7067 9.68009V9.21338C20.7067 8.98671 20.6133 8.8667 20.44 8.8667C20.2533 8.8667 20.16 8.98673 20.16 9.22673V9.68009C19.5733 9.73343 19.12 9.90673 18.8133 10.2267C18.4933 10.5334 18.3467 10.9468 18.3467 11.4268C18.3467 11.8134 18.4267 12.1201 18.5867 12.3601C18.7467 12.6001 18.9467 12.7734 19.2 12.9067C19.4667 13.0401 19.7867 13.1601 20.16 13.2668V15.2534C19.9733 15.2001 19.8133 15.1201 19.7067 15.0134C19.5867 14.9068 19.5067 14.8001 19.44 14.6667C19.3867 14.5467 19.32 14.3734 19.24 14.1334C19.2133 14.0267 19.1467 13.9467 19.0667 13.88C18.9733 13.8267 18.8667 13.8 18.7333 13.8C18.5733 13.8 18.44 13.8534 18.3333 13.96C18.2267 14.0667 18.1733 14.1867 18.1733 14.3334C18.1733 14.5201 18.2133 14.7067 18.2933 14.8934C18.3733 15.0934 18.4933 15.2667 18.6667 15.4534C18.8267 15.6267 19.04 15.7734 19.2933 15.8934C19.5333 16.0134 19.8267 16.0934 20.16 16.1334V17.2934C20.16 17.4134 20.1867 17.5201 20.2267 17.5734C20.2667 17.6401 20.3333 17.6667 20.44 17.6667C20.5467 17.6667 20.6267 17.6267 20.6533 17.5601C20.6933 17.4801 20.7067 17.3601 20.7067 17.1868V16.12C21.12 16.0934 21.4667 15.9867 21.76 15.8C22.0533 15.6267 22.28 15.3868 22.44 15.1068C22.5867 14.8268 22.6667 14.52 22.6667 14.2C22.6667 13.9334 22.6133 13.6934 22.52 13.4801ZM20.16 12.1467C19.9067 12.0534 19.72 11.9468 19.5867 11.8401C19.4667 11.7201 19.4 11.5467 19.4 11.3201C19.4 11.0934 19.4667 10.9067 19.6 10.8C19.7333 10.68 19.92 10.5868 20.16 10.5068V12.1467ZM21.3733 14.9467C21.2133 15.12 21 15.24 20.7067 15.2934V13.4134C21 13.5067 21.2267 13.6268 21.3733 13.7601C21.5333 13.8934 21.6133 14.0934 21.6133 14.3334C21.6133 14.5734 21.5333 14.7734 21.3733 14.9467Z" fill="#8798A1"/>
</svg>
