<svg width="32" height="32" viewBox="0 0 32 32" fill="none" xmlns="http://www.w3.org/2000/svg">
<path d="M1.98659 20.36C1.98659 20.36 1.94659 20.3066 1.91992 20.2799C2.21326 21.2266 2.61326 22.1466 3.07992 23.0133C3.29326 23.4 3.66659 24.04 4.23992 24.7733C3.25326 23.4533 2.49326 21.9733 1.98659 20.36V20.36Z" fill="#13968E"/>
<path d="M16 0C7.17333 0 0 7.18667 0 16C0 16.3733 0.0133333 16.7466 0.04 17.12C0.253333 20.2666 1.38667 23.1733 3.18667 25.5733C3.36 25.8133 3.54667 26.0533 3.77333 26.3066C4.06667 26.6533 4.37333 26.9866 4.69333 27.3066C4.86667 27.48 5.04 27.6533 5.22667 27.8133C5.22667 27.84 5.25333 27.8533 5.28 27.8666C5.45333 28.0133 5.62667 28.1733 5.8 28.32C5.8 28.32 5.81333 28.3333 5.82667 28.3333C8.58667 30.6267 12.1333 32 16 32C19.04 32 21.8667 31.1467 24.2933 29.68C24.3067 29.6667 24.32 29.6667 24.32 29.6667C27.7733 27.5467 30.3733 24.16 31.4533 20.16C31.8133 18.8267 32 17.4267 32 16C32 7.18667 24.8267 0 16 0V0ZM23.72 28.4666C21.48 29.8666 18.84 30.6667 16 30.6667C12.3733 30.6667 9.08 29.36 6.50667 27.1733C6.28 26.9867 6.06667 26.8 5.86667 26.6C5.76 26.5067 5.65333 26.4 5.56 26.3066C5.22667 25.9733 4.93333 25.6533 4.68 25.3333C4.52 25.1467 4.37333 24.96 4.24 24.7734C3.66667 24.04 3.29333 23.4 3.08 23.0133C2.61333 22.1467 2.21333 21.2266 1.92 20.2799C1.94667 20.3066 1.96 20.3334 1.98667 20.36C2.97333 21.56 4 22.5733 5.02667 23.3467C6.26667 24.2933 7.14667 24.6133 8.02667 24.4533C8.49333 24.3866 8.82667 24.1867 9.14667 24.0133C9.42667 23.84 9.72 23.6667 10.2133 23.52C10.7733 23.3467 11.2533 23.3467 11.7067 23.3333C12.7867 23.32 13.6 23.6667 14.4933 24.08C15.2667 24.44 16.1467 24.84 17.2933 24.9733C18.7067 25.1466 19.8133 24.8533 20.72 24.6133C21.8 24.3199 22.4 24.1866 23.0667 24.6133C23.1867 24.6933 23.3067 24.7867 23.4267 24.9067C22.8533 25.2667 22.24 25.5733 21.6133 25.84C21.5067 25.88 21.4 25.9333 21.2933 25.9733C20.4 26.2666 19.3867 26.52 18.2533 26.7333C17.8933 26.8 17.7067 26.8267 17.5467 27.0667C17.44 27.2267 17.4 27.4266 17.4533 27.6133C17.5067 27.7999 17.6267 27.96 17.8 28.04C18.2267 28.2533 20.1733 27.84 21.7733 27.2133C23.4133 26.6666 24.72 25.9867 25.68 25.16C26.8133 24.1867 27.4133 23.4133 27.44 23.3733C27.7733 22.9333 27.9733 22.6 28.1333 22.3066C28.3467 21.96 28.48 21.7334 28.8 21.44C29.16 21.12 29.56 20.88 29.88 20.7467C28.7733 23.9733 26.5733 26.6933 23.72 28.4666V28.4666ZM30.2933 19.2799C29.48 19.3066 28.4933 19.92 27.8933 20.4533C27.4267 20.88 27.2133 21.2533 26.9867 21.64C26.84 21.8933 26.6667 22.1867 26.3733 22.5733C26.3733 22.5733 25.8267 23.2666 24.8133 24.1466C24.76 24.1866 24.7067 24.2399 24.6533 24.2799C24.4 23.9599 24.1067 23.6933 23.7733 23.48C22.5867 22.7333 21.4667 23.0267 20.3733 23.32C19.5067 23.5467 18.6133 23.7867 17.4533 23.6533C16.52 23.5333 15.8 23.2133 15.0533 22.8666C14.0933 22.4266 13.08 22.0267 11.68 22C11.1867 22.0133 10.5733 22.0133 9.81333 22.2533C9.18667 22.44 8.8 22.6667 8.48 22.8534C8.21333 23 8.04 23.1066 7.8 23.1466C7.74667 23.16 7.68 23.16 7.61333 23.16C7.28 23.16 6.77333 23 5.82667 22.2933C4.30667 21.1333 2.76 19.4 1.4 17.2667C1.34667 16.8534 1.33333 16.4267 1.33333 16C1.33333 11.2667 3.58667 7.04003 7.09333 4.36003C7.42667 4.09336 7.78667 3.85328 8.14667 3.61328C10.4133 2.17328 13.1067 1.33333 16 1.33333C18.8933 1.33333 21.5867 2.17328 23.8533 3.61328C24.2133 3.85328 24.5733 4.09336 24.9067 4.36003C28.4133 7.04003 30.6667 11.2667 30.6667 16C30.6667 17.1333 30.5333 18.2266 30.2933 19.2799V19.2799Z" fill="#13968E"/>
<path d="M26.9866 13.2667C26.9866 15.16 26.1866 16.8666 24.9066 18.0533C23.7333 19.1733 22.16 19.84 20.4266 19.84C17.7866 19.84 15.52 18.2799 14.48 16.0399L15.4933 15.0267C16.2133 17.0533 18.1466 18.5067 20.4266 18.5067C22.32 18.5067 23.9866 17.4933 24.9066 15.9599C25.3866 15.1733 25.6533 14.2533 25.6533 13.2667C25.6533 12.28 25.3866 11.3733 24.9066 10.5866C24 9.06665 22.3333 8.03994 20.4266 8.03994C19.1333 8.03994 17.9333 8.51995 17.0133 9.30662C16.9466 9.21329 16.8666 9.12001 16.7733 9.02667C16.5333 8.78667 16.2666 8.58667 15.9866 8.44C17.1466 7.36 18.7066 6.7066 20.4266 6.7066C22.1466 6.7066 23.7333 7.37329 24.9066 8.47996C26.1866 9.66663 26.9866 11.3733 26.9866 13.2667V13.2667Z" fill="#13968E"/>
<path d="M17.0134 9.30662C16.9468 9.21329 16.8668 9.12001 16.7734 9.02667C16.5334 8.78667 16.2668 8.58667 15.9868 8.44C15.4934 8.18667 14.9601 8.05328 14.4268 8.05328C13.5601 8.05328 12.7068 8.37334 12.0534 9.02667L11.3734 9.7066L10.7068 9.02667C10.0534 8.37334 9.20009 8.05328 8.34676 8.05328C7.92009 8.05328 7.49343 8.13327 7.09343 8.29327C6.69343 8.45327 6.32009 8.70667 5.98676 9.02667C5.33343 9.68001 5.01343 10.5333 5.01343 11.3733C5.01343 12.2133 5.33343 13.1066 5.98676 13.7466L7.09343 14.8666L7.76009 15.5333L10.2668 18.0267C10.5734 18.3333 10.9734 18.4933 11.3734 18.4933C11.7734 18.4933 12.1868 18.3333 12.4934 18.0267L14.4801 16.0399L15.4934 15.0267L16.7734 13.7466C17.9601 12.5333 18.0534 10.6133 17.0134 9.30662V9.30662ZM15.7334 12.6933L15.1868 13.24L13.9734 14.4666L11.4668 16.9733C11.4668 16.9733 11.4001 17.0133 11.3734 17.0133C11.3468 17.0133 11.3201 17 11.3201 16.9866L8.81343 14.48L7.09343 12.7466L7.04009 12.6933C6.68009 12.3467 6.49343 11.8799 6.49343 11.3733C6.49343 10.8933 6.68009 10.4133 7.04009 10.08C7.05343 10.0666 7.06676 10.0399 7.09343 10.0399C7.42676 9.7066 7.88009 9.52 8.34676 9.52C8.84009 9.52 9.32009 9.71995 9.65343 10.0533L10.3201 10.7333L11.3734 11.7999L12.4268 10.76L13.1201 10.0533C13.4401 9.71995 13.9201 9.52 14.4268 9.52C14.6134 9.52 14.7868 9.54659 14.9601 9.61326C15.2534 9.69326 15.5068 9.83995 15.7201 10.0533C15.8401 10.1733 15.9468 10.3066 16.0134 10.4533C16.4401 11.1733 16.3334 12.1067 15.7334 12.6933V12.6933Z" fill="#13968E"/>
<path d="M22.52 13.4799C22.4267 13.2666 22.2933 13.08 22.12 12.92C21.9467 12.7733 21.76 12.6533 21.5467 12.5733C21.3467 12.4933 21.0667 12.3999 20.7067 12.3066V10.5332C21.0667 10.6399 21.2933 10.8799 21.3867 11.2399C21.4667 11.5466 21.6533 11.6933 21.9333 11.6933C22.08 11.6933 22.2 11.6399 22.3067 11.5332C22.4133 11.4266 22.4667 11.3066 22.4667 11.16C22.4667 11.04 22.4267 10.8933 22.36 10.7466C22.2933 10.5866 22.1867 10.4399 22.0667 10.2933C21.8933 10.1066 21.7067 9.95991 21.4933 9.86658C21.2667 9.77324 21.0133 9.70664 20.7067 9.67997V9.21326C20.7067 8.98659 20.6133 8.86658 20.44 8.86658C20.2533 8.86658 20.16 8.9866 20.16 9.2266V9.67997C19.5733 9.73331 19.12 9.9066 18.8133 10.2266C18.4933 10.5333 18.3467 10.9466 18.3467 11.4266C18.3467 11.8133 18.4267 12.12 18.5867 12.36C18.7467 12.6 18.9467 12.7733 19.2 12.9066C19.4667 13.0399 19.7867 13.16 20.16 13.2666V15.2533C19.9733 15.2 19.8133 15.12 19.7067 15.0133C19.5867 14.9066 19.5067 14.8 19.44 14.6666C19.3867 14.5466 19.32 14.3733 19.24 14.1333C19.2133 14.0266 19.1467 13.9466 19.0667 13.8799C18.9733 13.8266 18.8667 13.7999 18.7333 13.7999C18.5733 13.7999 18.44 13.8533 18.3333 13.9599C18.2267 14.0666 18.1733 14.1866 18.1733 14.3333C18.1733 14.52 18.2133 14.7066 18.2933 14.8933C18.3733 15.0933 18.4933 15.2666 18.6667 15.4532C18.8267 15.6266 19.04 15.7733 19.2933 15.8933C19.5333 16.0133 19.8267 16.0933 20.16 16.1333V17.2933C20.16 17.4133 20.1867 17.5199 20.2267 17.5733C20.2667 17.6399 20.3333 17.6666 20.44 17.6666C20.5467 17.6666 20.6267 17.6266 20.6533 17.5599C20.6933 17.4799 20.7067 17.36 20.7067 17.1866V16.1199C21.12 16.0932 21.4667 15.9866 21.76 15.7999C22.0533 15.6266 22.28 15.3866 22.44 15.1066C22.5867 14.8266 22.6667 14.5199 22.6667 14.1999C22.6667 13.9332 22.6133 13.6933 22.52 13.4799V13.4799ZM20.16 12.1466C19.9067 12.0533 19.72 11.9466 19.5867 11.84C19.4667 11.72 19.4 11.5466 19.4 11.3199C19.4 11.0933 19.4667 10.9066 19.6 10.7999C19.7333 10.6799 19.92 10.5866 20.16 10.5066V12.1466ZM21.3733 14.9466C21.2133 15.1199 21 15.2399 20.7067 15.2933V13.4133C21 13.5066 21.2267 13.6266 21.3733 13.76C21.5333 13.8933 21.6133 14.0933 21.6133 14.3333C21.6133 14.5733 21.5333 14.7732 21.3733 14.9466Z" fill="#13968E"/>
</svg>
