<svg width="32" height="32" viewBox="0 0 32 32" fill="none" xmlns="http://www.w3.org/2000/svg">
<path d="M26.5733 15.9867C26.2266 9.30667 20.7199 4 13.9599 4C7.19992 4 1.33325 9.65333 1.33325 16.64C1.33325 23.6267 6.98659 29.2667 13.9599 29.2667C16.8266 29.2667 19.4533 28.32 21.5733 26.72C22.4799 27.2933 23.5466 27.6133 24.6933 27.6133C27.9866 27.6133 30.6666 24.9467 30.6666 21.64C30.6666 19 28.9466 16.7733 26.5733 15.9867ZM20.4799 25.8667C18.6399 27.16 16.3866 27.9333 13.9599 27.9333C7.73325 27.9333 2.66659 22.8667 2.66659 16.64C2.66659 10.4133 7.73325 5.33333 13.9599 5.33333C20.1866 5.33333 24.7466 9.90667 25.2133 15.7067C25.0399 15.6933 24.8666 15.68 24.6933 15.68C21.3999 15.68 18.7333 18.3467 18.7333 21.64C18.7333 23.2933 19.3999 24.7733 20.4799 25.8533V25.8667ZM27.6933 20.2667L24.3866 23.9467C24.2666 24.08 24.0933 24.16 23.9066 24.1733H23.8933C23.7066 24.1733 23.5466 24.0933 23.4132 23.9733L21.7333 22.2933C21.4666 22.0267 21.4666 21.6 21.7333 21.3467C21.9866 21.08 22.4132 21.08 22.6666 21.3467L23.8666 22.5333L26.7066 19.3733C26.9466 19.0933 27.3732 19.08 27.6399 19.32C27.9199 19.56 27.9466 19.9867 27.6933 20.2667Z" fill="#8798A1"/>
<path d="M17.9999 17.0402C17.8132 16.6268 17.5599 16.2668 17.2132 15.9602C16.8932 15.6668 16.5332 15.4402 16.1332 15.2935C15.7332 15.1335 15.1866 14.9735 14.5066 14.7868V11.3602C15.1999 11.5868 15.6399 12.0402 15.8132 12.7335C15.9732 13.3068 16.3199 13.6002 16.8666 13.6002C17.1466 13.6002 17.3866 13.4935 17.5866 13.2935C17.7866 13.0935 17.8932 12.8668 17.8932 12.5868C17.8932 12.3468 17.8266 12.0668 17.6932 11.7735C17.5466 11.4802 17.3599 11.1868 17.1199 10.9068C16.7999 10.5468 16.4399 10.2668 16.0132 10.0935C15.5999 9.90682 15.0932 9.78682 14.5066 9.72016V8.84016C14.5066 8.38682 14.3332 8.16016 13.9866 8.16016C13.6399 8.16016 13.4666 8.40016 13.4666 8.85349V9.72016C12.3332 9.82682 11.4666 10.1735 10.8666 10.7735C10.2666 11.3868 9.95989 12.1602 9.95989 13.0935C9.95989 13.8268 10.1199 14.4135 10.4266 14.8802C10.7332 15.3335 11.1332 15.6935 11.6266 15.9335C12.1199 16.1868 12.7332 16.4135 13.4666 16.6135V20.4402C13.0932 20.3335 12.7999 20.1868 12.5866 19.9868C12.3599 19.7868 12.1999 19.5735 12.0799 19.3335C11.9732 19.0935 11.8399 18.7468 11.6932 18.3068C11.6266 18.0935 11.5066 17.9335 11.3466 17.8135C11.1732 17.7068 10.9599 17.6402 10.7199 17.6402C10.4132 17.6402 10.1599 17.7468 9.94656 17.9602C9.74656 18.1735 9.63989 18.4135 9.63989 18.6668C9.63989 19.0268 9.71989 19.3868 9.86656 19.7602C10.0266 20.1335 10.2666 20.4935 10.5866 20.8268C10.9066 21.1735 11.3066 21.4668 11.7866 21.6935C12.2666 21.9202 12.8266 22.0668 13.4666 22.1468V24.3602C13.4666 24.6135 13.5066 24.8002 13.5866 24.9202C13.6666 25.0402 13.7999 25.1068 13.9999 25.1068C14.2132 25.1068 14.3466 25.0268 14.4132 24.8802C14.4799 24.7335 14.5066 24.4935 14.5066 24.1735V22.1202C15.2932 22.0668 15.9732 21.8535 16.5466 21.5068C17.1066 21.1602 17.5466 20.7202 17.8399 20.1735C18.1332 19.6268 18.2799 19.0402 18.2799 18.4135C18.2799 17.9202 18.1866 17.4535 17.9999 17.0402ZM13.4666 14.4802C12.9732 14.2935 12.5999 14.0935 12.3599 13.8802C12.1199 13.6535 11.9999 13.3202 11.9999 12.8935C11.9999 12.4402 12.1332 12.0935 12.3866 11.8668C12.6399 11.6535 12.9999 11.4668 13.4666 11.3335V14.4802ZM15.7866 19.8535C15.4932 20.1868 15.0666 20.4135 14.5066 20.5202V16.9202C15.0799 17.1068 15.5066 17.3202 15.7999 17.5868C16.0932 17.8402 16.2399 18.2135 16.2399 18.6935C16.2399 19.1335 16.0932 19.5202 15.7866 19.8535Z" fill="#8798A1"/>
</svg>
