<svg width="32" height="32" viewBox="0 0 32 32" fill="none" xmlns="http://www.w3.org/2000/svg">
<path d="M26.5734 15.9867C26.2267 9.30667 20.72 4 13.96 4C7.20004 4 1.33337 9.65333 1.33337 16.64C1.33337 23.6267 6.98671 29.2667 13.96 29.2667C16.8267 29.2667 19.4534 28.32 21.5734 26.72C22.48 27.2933 23.5467 27.6133 24.6934 27.6133C27.9867 27.6133 30.6667 24.9467 30.6667 21.64C30.6667 19 28.9467 16.7733 26.5734 15.9867ZM20.48 25.8667C18.64 27.16 16.3867 27.9333 13.96 27.9333C7.73337 27.9333 2.66671 22.8667 2.66671 16.64C2.66671 10.4133 7.73337 5.33333 13.96 5.33333C20.1867 5.33333 24.7467 9.90667 25.2134 15.7067C25.04 15.6933 24.8667 15.68 24.6934 15.68C21.4 15.68 18.7334 18.3467 18.7334 21.64C18.7334 23.2933 19.4 24.7733 20.48 25.8533V25.8667ZM27.6934 20.2667L24.3867 23.9467C24.2667 24.08 24.0934 24.16 23.9067 24.1733H23.8934C23.7067 24.1733 23.5467 24.0933 23.4134 23.9733L21.7334 22.2933C21.4667 22.0267 21.4667 21.6 21.7334 21.3467C21.9867 21.08 22.4134 21.08 22.6667 21.3467L23.8667 22.5333L26.7067 19.3733C26.9467 19.0933 27.3734 19.08 27.64 19.32C27.92 19.56 27.9467 19.9867 27.6934 20.2667Z" fill="#13968E"/>
<path d="M18 17.0402C17.8133 16.6268 17.56 16.2668 17.2133 15.9602C16.8933 15.6668 16.5333 15.4402 16.1333 15.2935C15.7333 15.1335 15.1867 14.9735 14.5067 14.7868V11.3602C15.2 11.5868 15.64 12.0402 15.8133 12.7335C15.9733 13.3068 16.32 13.6002 16.8667 13.6002C17.1467 13.6002 17.3867 13.4935 17.5867 13.2935C17.7867 13.0935 17.8933 12.8668 17.8933 12.5868C17.8933 12.3468 17.8267 12.0668 17.6933 11.7735C17.5467 11.4802 17.36 11.1868 17.12 10.9068C16.8 10.5468 16.44 10.2668 16.0133 10.0935C15.6 9.90682 15.0933 9.78682 14.5067 9.72016V8.84016C14.5067 8.38682 14.3333 8.16016 13.9867 8.16016C13.64 8.16016 13.4667 8.40016 13.4667 8.85349V9.72016C12.3333 9.82682 11.4667 10.1735 10.8667 10.7735C10.2667 11.3868 9.96001 12.1602 9.96001 13.0935C9.96001 13.8268 10.12 14.4135 10.4267 14.8802C10.7333 15.3335 11.1333 15.6935 11.6267 15.9335C12.12 16.1868 12.7333 16.4135 13.4667 16.6135V20.4402C13.0933 20.3335 12.8 20.1868 12.5867 19.9868C12.36 19.7868 12.2 19.5735 12.08 19.3335C11.9733 19.0935 11.84 18.7468 11.6933 18.3068C11.6267 18.0935 11.5067 17.9335 11.3467 17.8135C11.1733 17.7068 10.96 17.6402 10.72 17.6402C10.4133 17.6402 10.16 17.7468 9.94668 17.9602C9.74668 18.1735 9.64001 18.4135 9.64001 18.6668C9.64001 19.0268 9.72001 19.3868 9.86668 19.7602C10.0267 20.1335 10.2667 20.4935 10.5867 20.8268C10.9067 21.1735 11.3067 21.4668 11.7867 21.6935C12.2667 21.9202 12.8267 22.0668 13.4667 22.1468V24.3602C13.4667 24.6135 13.5067 24.8002 13.5867 24.9202C13.6667 25.0402 13.8 25.1068 14 25.1068C14.2133 25.1068 14.3467 25.0268 14.4133 24.8802C14.48 24.7335 14.5067 24.4935 14.5067 24.1735V22.1202C15.2933 22.0668 15.9733 21.8535 16.5467 21.5068C17.1067 21.1602 17.5467 20.7202 17.84 20.1735C18.1333 19.6268 18.28 19.0402 18.28 18.4135C18.28 17.9202 18.1867 17.4535 18 17.0402ZM13.4667 14.4802C12.9733 14.2935 12.6 14.0935 12.36 13.8802C12.12 13.6535 12 13.3202 12 12.8935C12 12.4402 12.1333 12.0935 12.3867 11.8668C12.64 11.6535 13 11.4668 13.4667 11.3335V14.4802ZM15.7867 19.8535C15.4933 20.1868 15.0667 20.4135 14.5067 20.5202V16.9202C15.08 17.1068 15.5067 17.3202 15.8 17.5868C16.0933 17.8402 16.24 18.2135 16.24 18.6935C16.24 19.1335 16.0933 19.5202 15.7867 19.8535Z" fill="#13968E"/>
</svg>
