<svg width="28" height="28" viewBox="0 0 28 28" fill="none" xmlns="http://www.w3.org/2000/svg">
<path d="M22.12 2.06653H15.8933C15.7956 1.67412 15.572 1.32461 15.2564 1.0717C14.9409 0.818783 14.551 0.676425 14.1467 0.666504H5.88013C5.41788 0.682685 4.97766 0.868224 4.64331 1.18783C4.30896 1.50743 4.10366 1.93881 4.06665 2.39986C3.06987 2.76945 2.21002 3.43499 1.60229 4.30725C0.994574 5.17951 0.668152 6.21678 0.666748 7.27987V22.1331C0.671683 23.5131 1.22295 24.8349 2.19995 25.8094C3.17695 26.7839 4.5002 27.3318 5.88013 27.3332H22.12C23.5 27.3318 24.8232 26.7839 25.8002 25.8094C26.7772 24.8349 27.3285 23.5131 27.3334 22.1331V7.27987C27.3292 5.8985 26.7786 4.57488 25.8018 3.5981C24.8251 2.62133 23.5014 2.07075 22.12 2.06653ZM5.88013 1.99984H14.1467C14.2227 2.00134 14.2968 2.02449 14.3601 2.06653C14.4521 2.12769 14.5273 2.21104 14.5785 2.30892C14.6298 2.4068 14.6555 2.51603 14.6534 2.62651V13.1732L11.4267 9.34652C11.2549 9.13891 11.0388 8.97244 10.7942 8.85938C10.5496 8.74631 10.2829 8.68954 10.0134 8.6932C9.74227 8.69084 9.47384 8.7481 9.22729 8.861C8.98075 8.97391 8.76203 9.13968 8.58667 9.34652L5.37345 13.1732V2.62651C5.37135 2.52077 5.39431 2.41606 5.44067 2.321C5.48704 2.22595 5.55543 2.14327 5.64006 2.07983C5.70825 2.02595 5.79324 1.99765 5.88013 1.99984ZM26.0001 22.1331C25.9962 23.1598 25.5857 24.1431 24.8585 24.8678C24.1313 25.5924 23.1467 25.9995 22.12 25.9998H5.88013C5.37123 26.0016 4.86691 25.9028 4.39624 25.7093C3.92557 25.5158 3.49776 25.2313 3.13729 24.8721C2.77682 24.5128 2.49081 24.086 2.29565 23.616C2.1005 23.146 2.00008 22.642 2.00008 22.1331V7.27987C1.99911 6.57951 2.18831 5.89203 2.54761 5.29085C2.9069 4.68968 3.42284 4.19735 4.04012 3.8665V15.4399C4.04028 15.5057 4.0535 15.5709 4.07918 15.6315C4.10487 15.6922 4.1425 15.7471 4.1897 15.7931C4.23689 15.839 4.29277 15.8751 4.35409 15.8992C4.41541 15.9232 4.48094 15.9348 4.54679 15.9332C4.62293 15.9324 4.69801 15.9153 4.76701 15.8831C4.836 15.8509 4.89721 15.8044 4.9467 15.7465L9.61336 10.1999C9.66462 10.1451 9.72653 10.1014 9.79533 10.0716C9.86413 10.0418 9.93844 10.0264 10.0134 10.0264C10.0884 10.0264 10.1626 10.0418 10.2314 10.0716C10.3002 10.1014 10.3621 10.1451 10.4133 10.1999L15.08 15.7465C15.128 15.8027 15.1873 15.8483 15.2538 15.8805C15.3204 15.9126 15.3928 15.9306 15.4667 15.9332C15.5336 15.9362 15.6003 15.9258 15.663 15.9024C15.7257 15.8791 15.7831 15.8432 15.8316 15.7971C15.8802 15.7511 15.9191 15.6957 15.9457 15.6343C15.9724 15.5729 15.9863 15.5068 15.9867 15.4399V3.39986H22.12C23.1488 3.40092 24.135 3.81002 24.8624 4.53744C25.5898 5.26485 25.999 6.25115 26.0001 7.27987V22.1331Z" fill="#13968E"/>
</svg>
