<svg width="32" height="32" viewBox="0 0 32 32" fill="none" xmlns="http://www.w3.org/2000/svg">
<path d="M24.12 4.06671H17.8933C17.7956 3.6743 17.572 3.32479 17.2564 3.07188C16.9409 2.81897 16.551 2.67661 16.1467 2.66669H7.88013C7.41788 2.68287 6.97766 2.86841 6.64331 3.18801C6.30896 3.50761 6.10366 3.939 6.06665 4.40004C5.06987 4.76964 4.21002 5.43518 3.60229 6.30743C2.99457 7.17969 2.66815 8.21696 2.66675 9.28005V24.1333C2.67168 25.5132 3.22295 26.8351 4.19995 27.8096C5.17695 28.7841 6.5002 29.332 7.88013 29.3334H24.12C25.5 29.332 26.8232 28.7841 27.8002 27.8096C28.7772 26.8351 29.3285 25.5132 29.3334 24.1333V9.28005C29.3292 7.89869 28.7786 6.57506 27.8018 5.59829C26.8251 4.62151 25.5014 4.07093 24.12 4.06671ZM7.88013 4.00002H16.1467C16.2227 4.00152 16.2968 4.02467 16.3601 4.06671C16.4521 4.12788 16.5273 4.21122 16.5785 4.3091C16.6298 4.40698 16.6555 4.51621 16.6534 4.62669V15.1734L13.4267 11.3467C13.2549 11.1391 13.0388 10.9726 12.7942 10.8596C12.5496 10.7465 12.2829 10.6897 12.0134 10.6934C11.7423 10.691 11.4738 10.7483 11.2273 10.8612C10.9807 10.9741 10.762 11.1399 10.5867 11.3467L7.37345 15.1734V4.62669C7.37135 4.52095 7.39431 4.41624 7.44067 4.32119C7.48704 4.22613 7.55543 4.14345 7.64006 4.08002C7.70825 4.02613 7.79324 3.99783 7.88013 4.00002ZM28.0001 24.1333C27.9962 25.1599 27.5857 26.1433 26.8585 26.8679C26.1313 27.5926 25.1467 27.9997 24.12 28H7.88013C7.37123 28.0018 6.86691 27.903 6.39624 27.7095C5.92557 27.516 5.49776 27.2315 5.13729 26.8723C4.77682 26.513 4.49081 26.0861 4.29565 25.6161C4.1005 25.1462 4.00008 24.6422 4.00008 24.1333V9.28005C3.99911 8.57969 4.18831 7.89221 4.54761 7.29104C4.9069 6.68986 5.42284 6.19754 6.04012 5.86668V17.44C6.04028 17.5059 6.0535 17.571 6.07918 17.6317C6.10487 17.6924 6.1425 17.7473 6.1897 17.7932C6.23689 17.8392 6.29277 17.8753 6.35409 17.8994C6.41541 17.9234 6.48094 17.935 6.54679 17.9334C6.62293 17.9326 6.69801 17.9155 6.76701 17.8833C6.836 17.8511 6.89721 17.8045 6.9467 17.7467L11.6134 12.2001C11.6646 12.1453 11.7265 12.1016 11.7953 12.0718C11.8641 12.042 11.9384 12.0266 12.0134 12.0266C12.0884 12.0266 12.1626 12.042 12.2314 12.0718C12.3002 12.1016 12.3621 12.1453 12.4133 12.2001L17.08 17.7467C17.128 17.8029 17.1873 17.8485 17.2538 17.8806C17.3204 17.9128 17.3928 17.9307 17.4667 17.9334C17.5336 17.9364 17.6003 17.926 17.663 17.9026C17.7257 17.8792 17.7831 17.8434 17.8316 17.7973C17.8802 17.7512 17.9191 17.6959 17.9457 17.6345C17.9724 17.5731 17.9863 17.507 17.9867 17.44V5.40004H24.12C25.1488 5.4011 26.135 5.81021 26.8624 6.53762C27.5898 7.26503 27.999 8.25133 28.0001 9.28005V24.1333Z" fill="#8798A1"/>
</svg>
