<svg width="199" height="207" viewBox="0 0 199 207" fill="none" xmlns="http://www.w3.org/2000/svg">
<g filter="url(#filter0_d_1869_30448)">
<path d="M192.036 94.1247C192.009 118.127 182.704 141.19 166.067 158.492C149.43 175.793 126.749 185.994 102.766 186.961C78.7827 187.928 55.3541 179.586 37.3782 163.681C19.4023 147.775 8.27072 125.536 6.31081 101.614C4.3509 77.6911 11.7144 53.937 26.8617 35.3175C42.0091 16.698 63.7676 4.6546 87.5884 1.70521C111.409 -1.24418 135.448 5.12874 154.679 19.4916C173.91 33.8545 186.845 55.0955 190.778 78.7736C191.62 83.8472 192.041 88.9817 192.036 94.1247V94.1247Z" fill="#F4F7FB"/>
</g>
<g filter="url(#filter1_d_1869_30448)">
<path d="M146.257 94.3617C149.994 94.3614 153.647 95.4692 156.755 97.5452C159.862 99.6212 162.284 102.572 163.715 106.025C165.145 109.477 165.519 113.277 164.791 116.942C164.062 120.607 162.262 123.974 159.62 126.617C156.977 129.26 153.611 131.059 149.945 131.788C146.28 132.518 142.481 132.144 139.028 130.714C135.575 129.283 132.624 126.862 130.548 123.754C128.472 120.647 127.363 116.994 127.363 113.257C127.369 108.247 129.361 103.445 132.903 99.9027C136.445 96.3605 141.248 94.3678 146.257 94.3617V94.3617ZM146.257 92C142.053 92 137.943 93.2466 134.447 95.5823C130.951 97.918 128.227 101.238 126.618 105.122C125.009 109.006 124.588 113.28 125.408 117.404C126.229 121.527 128.253 125.315 131.226 128.287C134.199 131.26 137.987 133.285 142.11 134.105C146.233 134.925 150.507 134.504 154.391 132.895C158.276 131.287 161.595 128.562 163.931 125.066C166.267 121.571 167.514 117.461 167.514 113.257C167.514 110.465 166.964 107.701 165.896 105.122C164.828 102.543 163.262 100.199 161.288 98.2255C159.314 96.2516 156.971 94.6857 154.392 93.6175C151.813 92.5494 149.048 91.9998 146.257 92V92Z" fill="white"/>
</g>
<path d="M146.257 97.7737C149.318 97.7737 152.31 98.6814 154.855 100.382C157.4 102.083 159.384 104.499 160.555 107.327C161.726 110.155 162.033 113.267 161.436 116.269C160.838 119.272 159.365 122.029 157.2 124.193C155.036 126.358 152.278 127.832 149.276 128.429C146.274 129.026 143.162 128.72 140.334 127.548C137.506 126.377 135.089 124.393 133.389 121.848C131.688 119.303 130.78 116.311 130.78 113.25C130.787 109.147 132.419 105.215 135.32 102.313C138.221 99.4124 142.154 97.7799 146.257 97.7737V97.7737ZM146.257 96.5928C142.961 96.5928 139.739 97.5701 136.999 99.4011C134.259 101.232 132.123 103.835 130.862 106.879C129.6 109.924 129.271 113.275 129.913 116.507C130.556 119.739 132.143 122.709 134.474 125.039C136.804 127.369 139.773 128.956 143.006 129.599C146.238 130.242 149.589 129.912 152.633 128.651C155.678 127.39 158.281 125.254 160.112 122.514C161.943 119.774 162.92 116.552 162.92 113.256C162.92 111.068 162.489 108.901 161.652 106.879C160.814 104.858 159.587 103.021 158.04 101.474C156.492 99.9262 154.655 98.6986 152.633 97.8612C150.612 97.0238 148.445 96.5928 146.257 96.5928Z" fill="white"/>
<path d="M147.185 100.137V101.633C148.057 101.705 148.912 101.91 149.722 102.241C150.44 102.551 151.076 103.025 151.579 103.624C151.97 104.058 152.294 104.548 152.539 105.077C152.749 105.505 152.865 105.972 152.881 106.447C152.883 106.671 152.838 106.893 152.751 107.099C152.664 107.305 152.535 107.491 152.373 107.645C152.215 107.808 152.025 107.938 151.814 108.024C151.604 108.111 151.378 108.154 151.151 108.15C150.729 108.163 150.317 108.021 149.993 107.75C149.669 107.48 149.456 107.1 149.394 106.682C149.265 106.138 148.993 105.638 148.606 105.235C148.219 104.831 147.731 104.538 147.193 104.386V110.143C148.337 110.452 149.247 110.738 149.923 111C150.597 111.255 151.215 111.636 151.746 112.122C152.314 112.625 152.764 113.247 153.065 113.942C153.38 114.675 153.539 115.466 153.529 116.264C153.534 117.295 153.278 118.311 152.786 119.218C152.279 120.152 151.526 120.93 150.609 121.467C149.566 122.075 148.396 122.43 147.192 122.505V125.952C147.214 126.355 147.161 126.758 147.037 127.142C146.975 127.27 146.874 127.375 146.749 127.442C146.623 127.509 146.48 127.535 146.339 127.515C146.205 127.529 146.07 127.507 145.947 127.453C145.824 127.399 145.718 127.314 145.638 127.206C145.485 126.917 145.416 126.591 145.44 126.265V122.529C144.46 122.437 143.503 122.179 142.609 121.767C141.851 121.415 141.166 120.925 140.588 120.322C140.084 119.798 139.679 119.189 139.392 118.522C139.142 117.943 139.01 117.32 139.003 116.689C139.005 116.465 139.052 116.243 139.141 116.038C139.231 115.832 139.361 115.646 139.523 115.492C139.69 115.318 139.891 115.181 140.114 115.089C140.337 114.997 140.576 114.953 140.817 114.959C141.189 114.946 141.556 115.048 141.868 115.25C142.155 115.445 142.365 115.733 142.464 116.066C142.65 116.655 142.867 117.235 143.114 117.802C143.313 118.223 143.597 118.598 143.949 118.902C144.382 119.265 144.892 119.526 145.44 119.664V113.229C144.373 112.95 143.337 112.567 142.344 112.087C141.526 111.677 140.829 111.059 140.325 110.295C139.71 109.213 139.45 107.966 139.583 106.729C139.716 105.493 140.234 104.329 141.064 103.403C142.266 102.307 143.821 101.679 145.446 101.633V100.165C145.446 99.3895 145.737 99.0019 146.319 99.0029C146.901 99.004 147.19 99.3822 147.185 100.137ZM145.427 109.631V104.33C144.765 104.502 144.147 104.814 143.615 105.245C143.203 105.707 142.971 106.302 142.964 106.921C142.956 107.541 143.173 108.142 143.573 108.614C144.122 109.067 144.751 109.412 145.427 109.631V109.631ZM147.185 113.741V119.802C148.011 119.677 148.773 119.283 149.352 118.681C149.849 118.148 150.121 117.444 150.114 116.716C150.133 116.371 150.077 116.025 149.949 115.704C149.82 115.383 149.623 115.095 149.371 114.858C148.727 114.34 147.983 113.96 147.185 113.741V113.741Z" fill="white"/>
<g filter="url(#filter2_d_1869_30448)">
<path d="M89.395 11.3426C91.5748 11.3426 93.7056 11.973 95.518 13.1539C97.3304 14.3348 98.743 16.0133 99.5772 17.9771C100.411 19.9409 100.63 22.1017 100.204 24.1865C99.7791 26.2712 98.7294 28.1863 97.1881 29.6894C95.6468 31.1924 93.6831 32.2159 91.5452 32.6305C89.4073 33.0452 87.1913 32.8324 85.1775 32.0189C83.1637 31.2055 81.4425 29.8281 80.2315 28.0608C79.0205 26.2934 78.3742 24.2155 78.3742 22.0899C78.3764 19.2402 79.5382 16.5079 81.6045 14.4929C83.6709 12.4779 86.4728 11.3448 89.395 11.3426V11.3426ZM89.395 10C86.9435 10 84.5472 10.7088 82.5088 12.037C80.4704 13.3651 78.8817 15.2528 77.9435 17.4615C77.0054 19.6701 76.7599 22.1005 77.2382 24.4452C77.7164 26.7899 78.897 28.9437 80.6305 30.6341C82.3639 32.3245 84.5724 33.4757 86.9769 33.9421C89.3813 34.4085 91.8735 34.1691 94.1385 33.2543C96.4034 32.3394 98.3393 30.7901 99.7013 28.8024C101.063 26.8147 101.79 24.4777 101.79 22.0871C101.79 20.4997 101.47 18.9279 100.847 17.4613C100.224 15.9947 99.3112 14.6623 98.1601 13.5398C97.0091 12.4174 95.6427 11.527 94.1388 10.9197C92.6349 10.3123 91.0228 9.99982 89.395 10V10Z" fill="white"/>
</g>
<path d="M89.3951 13.2834C91.1806 13.2834 92.9259 13.7997 94.4105 14.767C95.895 15.7343 97.0521 17.1091 97.7353 18.7177C98.4186 20.3263 98.5973 22.0965 98.2489 23.8041C97.9006 25.5118 97.041 27.0803 95.7785 28.3115C94.516 29.5426 92.9073 30.3811 91.1561 30.7207C89.405 31.0604 87.5899 30.886 85.9403 30.2197C84.2908 29.5534 82.8809 28.4251 81.889 26.9775C80.8971 25.5298 80.3676 23.8278 80.3676 22.0867C80.3702 19.7527 81.3221 17.5149 83.0145 15.8645C84.7069 14.2142 87.0017 13.2859 89.3951 13.2834V13.2834ZM89.3951 12.6113C87.4733 12.6113 85.5946 13.1671 83.9967 14.2082C82.3989 15.2494 81.1534 16.7293 80.418 18.4606C79.6826 20.192 79.4903 22.0971 79.8652 23.9352C80.2401 25.7732 81.1655 27.4615 82.5244 28.7866C83.8833 30.1117 85.6145 31.0143 87.4994 31.3799C89.3842 31.7455 91.3379 31.5578 93.1133 30.8406C94.8888 30.1235 96.4064 28.909 97.4741 27.3508C98.5418 25.7926 99.1117 23.9607 99.1117 22.0867C99.1117 19.5737 98.0879 17.1636 96.2657 15.3866C94.4435 13.6097 91.9721 12.6113 89.3951 12.6113V12.6113Z" fill="white"/>
<path d="M89.9365 14.6269V15.4772C90.4446 15.5183 90.9432 15.6349 91.4152 15.8228C91.8324 15.9997 92.2017 16.2689 92.4936 16.6091C92.721 16.8555 92.909 17.134 93.0515 17.4349C93.1741 17.678 93.2422 17.9437 93.2511 18.2144C93.2521 18.3415 93.2262 18.4673 93.1753 18.5843C93.1245 18.7012 93.0496 18.807 92.9553 18.8946C92.8631 18.9876 92.7522 19.061 92.6295 19.1104C92.5069 19.1597 92.3751 19.184 92.2425 19.1816C91.9966 19.1892 91.7565 19.1085 91.5678 18.9548C91.379 18.801 91.2546 18.5849 91.2185 18.3476C91.1433 18.0382 90.9847 17.754 90.759 17.5244C90.5334 17.2948 90.2488 17.1281 89.935 17.0417V20.3148C90.6018 20.4962 91.1325 20.6586 91.5269 20.8019C91.9196 20.9467 92.2804 21.1632 92.5899 21.4399C92.9207 21.726 93.1832 22.0794 93.3586 22.4752C93.5426 22.8908 93.6352 23.3394 93.6305 23.7921C93.6329 24.3787 93.4836 24.9565 93.1966 25.4722C92.9009 26.0033 92.462 26.4454 91.9272 26.7509C91.3195 27.0965 90.6371 27.2988 89.935 27.3414V29.3003C89.9472 29.5307 89.9157 29.7613 89.8416 29.9805C89.8055 30.0534 89.7466 30.1132 89.6734 30.1514C89.6002 30.1895 89.5165 30.204 89.4343 30.1927C89.3567 30.2007 89.2782 30.1889 89.2066 30.1587C89.135 30.1284 89.0725 30.0807 89.0254 30.02C88.9363 29.8559 88.8962 29.6706 88.9096 29.4853V27.3603C88.3384 27.3081 87.7804 27.1619 87.2593 26.9277C86.8177 26.7295 86.4179 26.4527 86.0805 26.1115C85.787 25.814 85.5507 25.4676 85.383 25.0885C85.2376 24.7592 85.1608 24.405 85.157 24.0465C85.1582 23.9191 85.1857 23.7933 85.2377 23.6765C85.2897 23.5597 85.3652 23.4542 85.4598 23.3663C85.557 23.2673 85.6743 23.1892 85.8043 23.1369C85.9342 23.0847 86.0738 23.0594 86.2143 23.0629C86.4311 23.0557 86.645 23.1136 86.8269 23.2288C86.9943 23.3395 87.1171 23.5036 87.1743 23.6928C87.2831 24.0282 87.4097 24.3578 87.5537 24.6804C87.6697 24.9197 87.8355 25.1329 88.0406 25.3063C88.2931 25.5126 88.5901 25.6605 88.9096 25.7389V22.0793C88.2848 21.9213 87.6775 21.704 87.0961 21.4305C86.6188 21.1974 86.2128 20.8459 85.9187 20.4115C85.56 19.7966 85.4085 19.0874 85.4858 18.384C85.5632 17.6806 85.8654 17.0188 86.3497 16.4922C87.0501 15.8691 87.9566 15.5119 88.9042 15.4855V14.6515C88.9042 14.2107 89.0739 13.9902 89.4133 13.9902C89.7528 13.9902 89.9272 14.2025 89.9365 14.6269ZM88.9111 20.025V17.0105C88.5252 17.1085 88.1651 17.2856 87.855 17.5301C87.6146 17.7928 87.4797 18.1314 87.4754 18.4835C87.471 18.8355 87.5975 19.1772 87.8313 19.4455C88.1487 19.7029 88.5132 19.8996 88.9055 20.025H88.9111ZM89.9365 22.3622V25.8081C90.4152 25.7356 90.8562 25.5121 91.1919 25.1716C91.4814 24.8681 91.6403 24.4677 91.6357 24.0533C91.6477 23.8567 91.6151 23.66 91.5403 23.477C91.4656 23.2941 91.3505 23.1294 91.2031 22.9948C90.8296 22.7019 90.3986 22.4866 89.9365 22.3622V22.3622Z" fill="white"/>
<path d="M180.507 17.6191L168.634 60.9783C165.392 56.1339 162.15 51.2874 158.909 46.4387L128.505 80.1184L109.67 59.2968L80.2918 91.5027L77.2175 88.094L109.7 52.0302L128.299 72.6506L155.172 42.8865C149.743 40.1158 144.308 37.3458 138.869 34.5764L180.507 17.6191Z" fill="#C8D3D9" stroke="#C8D3D9" stroke-width="3.023" stroke-linecap="round" stroke-linejoin="round"/>
<g filter="url(#filter3_d_1869_30448)">
<path d="M82.0321 197.398H45.7663C19.9074 197.398 3.64604 174.548 8.71309 150.893L18.415 105.611C21.1306 92.9407 31.3644 82.8895 44.3493 77.7656C45.2218 78.5372 46.3465 78.9627 47.5112 78.9619H80.2909C81.4556 78.9627 82.5804 78.5372 83.4529 77.7656C86.8572 79.1004 90.1039 80.8066 93.1342 82.8532C101.343 88.4187 107.393 96.3104 109.383 105.611L119.085 150.893C124.156 174.548 107.891 197.398 82.0321 197.398Z" fill="white" stroke="#F4F7FB" stroke-width="0.684" stroke-miterlimit="10"/>
</g>
<path d="M85.1055 73.9425V74.1475C85.0993 75.4225 84.5902 76.6435 83.6886 77.5451C82.787 78.4467 81.5659 78.956 80.2909 78.9621H47.5112C46.2362 78.956 45.0151 78.4467 44.1135 77.5451C43.2119 76.6435 42.7027 75.4225 42.6965 74.1475V73.9425C42.7001 72.7815 43.1217 71.6607 43.8843 70.7852C44.6468 69.9097 45.6992 69.3383 46.8488 69.1755C47.0681 69.1436 47.2895 69.1277 47.5112 69.1279H80.2909C81.5667 69.1316 82.7892 69.6401 83.6913 70.5422C84.5934 71.4443 85.1018 72.6667 85.1055 73.9425V73.9425Z" fill="white" stroke="#F4F7FB" stroke-width="0.644" stroke-miterlimit="10"/>
<path d="M83.9381 62.6527C82.1242 65.6171 80.832 67.7236 79.8734 69.1284H47.5111C47.2894 69.1282 47.068 69.1441 46.8486 69.176C46.5123 68.9356 46.1871 68.6906 45.8704 68.4381C42.3834 65.6433 37.8818 60.1243 39.828 55.6069C40.5557 53.9724 41.8888 52.6838 43.547 52.0118C45.9823 51.1091 47.9079 52.2085 52.1179 52.8867C55.017 53.3676 57.9654 53.4795 60.8927 53.2201C67.6171 52.3817 68.0661 48.2649 73.9353 47.1815C79.5846 46.1427 86.8512 48.8426 88.3073 52.5373C88.6566 53.4121 88.8123 54.6884 83.9381 62.6527Z" fill="white" stroke="#F4F7FB" stroke-width="0.644" stroke-miterlimit="10"/>
<path d="M64.4534 148.983C64.4683 149.333 64.5441 150.223 64.6807 151.653C64.772 152.744 64.8176 153.634 64.8176 154.323C64.8176 155.158 64.1499 155.576 62.8146 155.576C62.019 155.576 61.5135 155.361 61.298 154.929C61.1069 154.37 61.0312 153.779 61.0754 153.19V148.841C58.6438 148.748 56.2391 148.298 53.9382 147.506C50.6055 146.4 48.9392 145.024 48.9392 143.379C48.9685 142.626 49.1395 141.885 49.4433 141.195C49.86 140.197 50.3236 139.697 50.8341 139.698C51.1695 139.698 51.5257 140.062 51.9027 140.79C52.3859 141.735 52.6613 142.247 52.729 142.327C53.8867 143.258 55.2359 143.921 56.68 144.269C58.0957 144.793 59.573 145.133 61.0754 145.28V139.799C57.9693 139.386 54.9902 138.302 52.3443 136.624C49.3594 134.628 47.8669 132.08 47.8669 128.978C47.8669 121.939 52.2697 118.021 61.0754 117.226C61.0654 117.077 61.0399 116.747 60.9989 116.234C60.9691 115.817 60.9542 115.479 60.9542 115.223C60.9542 114.01 61.4937 113.403 62.5725 113.402C63.9606 113.402 64.6549 113.888 64.6556 114.859C64.6453 115.234 64.6114 115.607 64.554 115.977C64.4978 116.342 64.4642 116.71 64.4534 117.079H65.5899C67.5656 117.12 69.521 117.489 71.3762 118.169C74.1232 119.097 75.497 120.187 75.4976 121.438C75.4043 122.329 75.0902 123.182 74.5838 123.92C73.9335 125.051 73.3246 125.616 72.7569 125.615C72.3365 125.615 71.8423 125.251 71.2747 124.523C70.5033 123.539 70.0685 123.007 69.9704 122.925C68.3465 121.669 66.4585 120.797 64.4487 120.376V126.805C68.5739 127.898 71.4554 128.976 73.0932 130.041C74.4011 130.845 75.4717 131.983 76.1954 133.337C76.9191 134.691 77.2699 136.214 77.2119 137.748C77.2039 139.307 76.8264 140.843 76.1105 142.228C75.3946 143.613 74.3606 144.809 73.0932 145.717C70.6253 147.682 67.6038 148.824 64.4534 148.983V148.983ZM61.0754 125.878V120.275C60.0747 120.265 59.079 120.416 58.1258 120.72C56.788 121.138 56.1192 121.732 56.1192 122.5C56.1186 124.041 57.7706 125.168 61.0754 125.883V125.878ZM68.1752 143.476C68.1868 143.046 68.0756 142.622 67.8547 142.253C67.6337 141.884 67.3122 141.585 66.9277 141.393C66.1335 141.032 65.3043 140.755 64.4534 140.563V145.196C65.1983 145.168 65.9353 145.031 66.6408 144.79C67.6637 144.443 68.1752 144.007 68.1752 143.48V143.476Z" fill="#C8D3D9"/>
<defs>
<filter id="filter0_d_1869_30448" x="0" y="0" width="198.036" height="198.036" filterUnits="userSpaceOnUse" color-interpolation-filters="sRGB">
<feFlood flood-opacity="0" result="BackgroundImageFix"/>
<feColorMatrix in="SourceAlpha" type="matrix" values="0 0 0 0 0 0 0 0 0 0 0 0 0 0 0 0 0 0 127 0" result="hardAlpha"/>
<feOffset dy="5"/>
<feGaussianBlur stdDeviation="3"/>
<feColorMatrix type="matrix" values="0 0 0 0 0.784314 0 0 0 0 0.827451 0 0 0 0 0.85098 0 0 0 0.302 0"/>
<feBlend mode="normal" in2="BackgroundImageFix" result="effect1_dropShadow_1869_30448"/>
<feBlend mode="normal" in="SourceGraphic" in2="effect1_dropShadow_1869_30448" result="shape"/>
</filter>
<filter id="filter1_d_1869_30448" x="119" y="89" width="54.5137" height="54.5137" filterUnits="userSpaceOnUse" color-interpolation-filters="sRGB">
<feFlood flood-opacity="0" result="BackgroundImageFix"/>
<feColorMatrix in="SourceAlpha" type="matrix" values="0 0 0 0 0 0 0 0 0 0 0 0 0 0 0 0 0 0 127 0" result="hardAlpha"/>
<feOffset dy="3"/>
<feGaussianBlur stdDeviation="3"/>
<feColorMatrix type="matrix" values="0 0 0 0 0.784314 0 0 0 0 0.827451 0 0 0 0 0.85098 0 0 0 1 0"/>
<feBlend mode="normal" in2="BackgroundImageFix" result="effect1_dropShadow_1869_30448"/>
<feBlend mode="normal" in="SourceGraphic" in2="effect1_dropShadow_1869_30448" result="shape"/>
</filter>
<filter id="filter2_d_1869_30448" x="71" y="7" width="36.7903" height="36.1748" filterUnits="userSpaceOnUse" color-interpolation-filters="sRGB">
<feFlood flood-opacity="0" result="BackgroundImageFix"/>
<feColorMatrix in="SourceAlpha" type="matrix" values="0 0 0 0 0 0 0 0 0 0 0 0 0 0 0 0 0 0 127 0" result="hardAlpha"/>
<feOffset dy="3"/>
<feGaussianBlur stdDeviation="3"/>
<feColorMatrix type="matrix" values="0 0 0 0 0.784314 0 0 0 0 0.827451 0 0 0 0 0.85098 0 0 0 1 0"/>
<feBlend mode="normal" in2="BackgroundImageFix" result="effect1_dropShadow_1869_30448"/>
<feBlend mode="normal" in="SourceGraphic" in2="effect1_dropShadow_1869_30448" result="shape"/>
</filter>
<filter id="filter3_d_1869_30448" x="1.44775" y="74.3701" width="124.904" height="132.37" filterUnits="userSpaceOnUse" color-interpolation-filters="sRGB">
<feFlood flood-opacity="0" result="BackgroundImageFix"/>
<feColorMatrix in="SourceAlpha" type="matrix" values="0 0 0 0 0 0 0 0 0 0 0 0 0 0 0 0 0 0 127 0" result="hardAlpha"/>
<feOffset dy="3"/>
<feGaussianBlur stdDeviation="3"/>
<feColorMatrix type="matrix" values="0 0 0 0 0.784314 0 0 0 0 0.827451 0 0 0 0 0.85098 0 0 0 0.302 0"/>
<feBlend mode="normal" in2="BackgroundImageFix" result="effect1_dropShadow_1869_30448"/>
<feBlend mode="normal" in="SourceGraphic" in2="effect1_dropShadow_1869_30448" result="shape"/>
</filter>
</defs>
</svg>
