<svg width="20" height="20" viewBox="0 0 20 20" fill="none" xmlns="http://www.w3.org/2000/svg">
<path d="M10 20C4.49 20 0 15.51 0 10C0 4.49 4.49 0 10 0C15.51 0 20 4.49 20 10C20 15.51 15.51 20 10 20ZM10 1C5.04 1 1 5.04 1 10C1 14.96 5.04 19 10 19C14.96 19 19 14.96 19 10C19 5.04 14.96 1 10 1Z" fill="#2092E4"/>
<path d="M11.1099 5.42004C11.1099 6.09004 10.5499 6.67004 9.88992 6.67004C9.22992 6.67004 8.66992 6.09004 8.66992 5.42004C8.66992 4.75004 9.22992 4.17004 9.91992 4.17004C10.6099 4.17004 11.1099 4.73004 11.1099 5.42004Z" fill="#2092E4"/>
<path d="M12.19 15.03V15.5C12.19 15.69 12.02 15.83 11.83 15.83H8.16005C7.97005 15.83 7.80005 15.69 7.80005 15.5V15.03C7.80005 14.84 7.94005 14.7 8.13005 14.67C8.68338 14.63 8.96004 14.3067 8.96004 13.7V10.28C8.96004 9.73998 8.71004 9.43332 8.21004 9.35998C8.04004 9.32998 7.90005 9.16998 7.90005 8.99998V8.60998C7.90005 8.43998 8.04004 8.29998 8.21004 8.27998C9.07004 8.10998 9.82005 7.91998 10.4901 7.60998C10.6001 7.57998 10.74 7.57998 10.82 7.66998C10.93 7.72998 10.9901 7.83999 10.9901 7.94999V13.7C10.9901 14.2933 11.2767 14.6166 11.85 14.67C12.04 14.7 12.18 14.84 12.18 15.03H12.19Z" fill="#2092E4"/>
</svg>
