<svg width="221" height="200" viewBox="0 0 221 200" fill="none" xmlns="http://www.w3.org/2000/svg">
<g filter="url(#filter0_d_1113_19677)">
<path d="M192.03 95.1983C192.003 119.2 182.698 142.262 166.061 159.563C149.425 176.864 126.744 187.064 102.762 188.03C78.7797 188.997 55.352 180.656 37.3767 164.751C19.4015 148.845 8.27049 126.607 6.31077 102.685C4.35104 78.7636 11.7143 55.0103 26.8612 36.3915C42.0081 17.7727 63.766 5.72963 87.586 2.78036C111.406 -0.168902 135.444 6.20393 154.674 20.5663C173.905 34.9287 186.839 56.1689 190.773 79.8462C191.615 84.9201 192.035 90.055 192.03 95.1983Z" fill="#F4F7FB"/>
</g>
<g filter="url(#filter1_d_1113_19677)">
<path d="M169.752 95.6873V156.242C169.741 159.75 168.342 163.112 165.862 165.592C163.381 168.073 160.02 169.471 156.512 169.482H47.8035C44.2971 169.469 40.9383 168.07 38.46 165.589C35.9816 163.109 34.5849 159.749 34.5746 156.242V95.6873C34.5832 92.1804 35.9793 88.8194 38.4581 86.3386C40.9368 83.8578 44.2966 82.4588 47.8035 82.4473H156.512C160.02 82.4564 163.383 83.8542 165.864 86.3352C168.345 88.8162 169.743 92.1786 169.752 95.6873Z" fill="white"/>
</g>
<path d="M126.219 82.4471H47.8035C44.2966 82.4586 40.9368 83.8576 38.4581 86.3384C35.9793 88.8192 34.5832 92.1802 34.5746 95.6871V77.7378C34.5832 74.2309 35.9793 70.87 38.4581 68.3891C40.9368 65.9083 44.2966 64.5091 47.8035 64.4976H103.91C106.644 64.4956 109.268 65.5779 111.205 67.5069C116.21 72.491 121.215 77.471 126.219 82.4471Z" fill="white"/>
<path d="M40.3208 174.56C39.9748 174.561 39.6319 174.493 39.312 174.361C38.9922 174.229 38.7018 174.035 38.4576 173.789L35.1038 170.435C34.6109 169.942 34.3341 169.274 34.3342 168.576C34.3344 167.879 34.6116 167.21 35.1047 166.717C35.5979 166.225 36.2667 165.948 36.964 165.948C37.6612 165.948 38.3299 166.225 38.8228 166.718L42.1766 170.072C42.5444 170.44 42.7948 170.909 42.896 171.419C42.9972 171.929 42.9447 172.458 42.7453 172.939C42.5458 173.419 42.2082 173.83 41.7753 174.118C41.3424 174.407 40.8336 174.56 40.3134 174.56H40.3208Z" fill="#C8D3D9"/>
<g filter="url(#filter2_d_1113_19677)">
<path d="M27.1459 185.432C26.4179 185.432 25.7062 185.216 25.1008 184.812C24.4954 184.407 24.0236 183.832 23.7449 183.16C23.4663 182.487 23.3934 181.747 23.5355 181.033C23.6775 180.319 24.0282 179.663 24.543 179.148L32.1291 171.562C32.8195 170.872 33.7558 170.484 34.7321 170.484C35.7084 170.484 36.6447 170.872 37.335 171.562C38.0253 172.252 38.4132 173.189 38.4132 174.165C38.4132 175.141 38.0253 176.078 37.335 176.768L29.7489 184.354C29.4075 184.696 29.0018 184.968 28.5551 185.153C28.1083 185.338 27.6294 185.433 27.1459 185.432Z" fill="#C8D3D9"/>
</g>
<g filter="url(#filter3_d_1113_19677)">
<path d="M54.718 136.521C52.7572 136.517 50.809 136.835 48.9513 137.462C45.7813 138.517 42.9624 140.423 40.8027 142.972C38.643 145.521 37.2257 148.614 36.7057 151.915C36.1857 155.215 36.5831 158.594 37.8544 161.684C39.1256 164.773 41.2219 167.454 43.9139 169.432C46.6059 171.411 49.7901 172.611 53.1182 172.902C56.4464 173.193 59.7905 172.563 62.7848 171.081C65.7792 169.599 68.3085 167.323 70.0963 164.501C71.8841 161.679 72.8615 158.419 72.9217 155.079C72.931 154.967 72.931 154.855 72.931 154.743C72.9276 149.913 71.0079 145.282 67.5933 141.865C64.1787 138.449 59.5482 136.527 54.718 136.521ZM68.7201 155.079C68.6342 158.736 67.1213 162.213 64.5047 164.769C61.8881 167.325 58.3756 168.755 54.718 168.755C51.5131 168.756 48.4047 167.659 45.911 165.646C43.4173 163.633 41.689 160.826 41.0145 157.693C40.3399 154.559 40.7598 151.29 42.2041 148.429C43.6484 145.568 46.0298 143.289 48.9513 141.971C50.7624 141.149 52.7291 140.727 54.718 140.732C58.4329 140.736 61.9946 142.213 64.6215 144.84C67.2484 147.467 68.7258 151.029 68.7295 154.743C68.7295 154.855 68.7295 154.967 68.7201 155.079Z" fill="#C8D3D9"/>
</g>
<path d="M68.7295 154.744C68.7295 154.855 68.7295 154.967 68.7201 155.079C68.6343 158.736 67.1213 162.213 64.5047 164.769C61.8881 167.325 58.3756 168.755 54.718 168.755C51.5131 168.756 48.4047 167.659 45.911 165.646C43.4173 163.633 41.689 160.826 41.0145 157.693C40.3399 154.559 40.7598 151.29 42.2041 148.429C43.6484 145.568 46.0298 143.289 48.9513 141.971C50.7624 141.149 52.7291 140.727 54.718 140.732C58.4329 140.736 61.9946 142.213 64.6215 144.84C67.2484 147.467 68.7258 151.029 68.7295 154.744Z" fill="white"/>
<path d="M64.689 95.1968C62.5235 95.1977 60.4068 95.8406 58.6066 97.0443C56.8065 98.248 55.4036 99.9583 54.5753 101.959C53.747 103.96 53.5305 106.162 53.9532 108.286C54.3759 110.409 55.4188 112.36 56.9501 113.891C58.4813 115.423 60.4322 116.466 62.5561 116.888C64.6799 117.311 66.8815 117.095 68.8823 116.266C70.8832 115.438 72.5936 114.035 73.7973 112.235C75.0009 110.435 75.6439 108.318 75.6448 106.153C75.645 104.714 75.3618 103.289 74.8113 101.96C74.2608 100.63 73.4539 99.4225 72.4365 98.4051C71.4191 97.3877 70.2112 96.5806 68.8819 96.0301C67.5526 95.4796 66.1278 95.1965 64.689 95.1968ZM64.689 112.245C64.4669 112.244 64.2502 112.176 64.0663 112.051C63.8823 111.927 63.7393 111.751 63.6551 111.545C63.571 111.339 63.5494 111.114 63.5932 110.896C63.637 110.678 63.7442 110.478 63.9013 110.321C64.0584 110.164 64.2584 110.057 64.4762 110.013C64.694 109.969 64.9198 109.991 65.1254 110.075C65.331 110.159 65.5072 110.302 65.6317 110.486C65.7563 110.67 65.8237 110.887 65.8256 111.109C65.8244 111.41 65.7042 111.698 65.4913 111.911C65.2785 112.124 64.9901 112.244 64.689 112.245ZM66.6454 102.426L65.9094 108.379C65.8629 108.808 65.3132 109.134 64.689 109.134C64.0648 109.134 63.5245 108.808 63.4686 108.379L62.742 102.426C62.6862 102.15 62.6901 101.864 62.7534 101.589C62.8166 101.314 62.9379 101.056 63.1089 100.832C63.28 100.608 63.4969 100.423 63.7453 100.289C63.9936 100.155 64.2677 100.076 64.5491 100.056C64.8305 100.037 65.1128 100.078 65.3771 100.176C65.6415 100.275 65.8818 100.429 66.082 100.627C66.2822 100.826 66.4376 101.065 66.538 101.329C66.6384 101.592 66.6814 101.874 66.664 102.156C66.6671 102.246 66.6609 102.337 66.6454 102.426Z" fill="#C8D3D9"/>
<path d="M90.0057 131.401C90.2974 131.693 90.4612 132.088 90.4612 132.501C90.4612 132.913 90.2974 133.309 90.0057 133.601C89.714 133.892 89.3184 134.056 88.9059 134.056C88.4934 134.056 88.0978 133.892 87.8061 133.601L83.0549 128.843L78.2981 133.601C78.0064 133.892 77.6109 134.056 77.1985 134.056C76.786 134.056 76.3906 133.892 76.099 133.6C75.8075 133.308 75.6437 132.913 75.6438 132.5C75.6439 132.088 75.8078 131.693 76.0995 131.401L80.8507 126.643L76.0995 121.886C75.9551 121.742 75.8405 121.571 75.7623 121.382C75.6841 121.193 75.6438 120.991 75.6438 120.787C75.6438 120.583 75.6839 120.381 75.762 120.192C75.8401 120.003 75.9547 119.832 76.099 119.687C76.2434 119.543 76.4148 119.428 76.6034 119.35C76.7921 119.272 76.9943 119.232 77.1985 119.232C77.4027 119.232 77.6049 119.272 77.7936 119.35C77.9822 119.428 78.1537 119.543 78.2981 119.687L83.0549 124.444L87.8061 119.687C87.9506 119.543 88.122 119.428 88.3107 119.35C88.4994 119.272 88.7017 119.231 88.9059 119.231C89.1102 119.231 89.3124 119.272 89.5011 119.35C89.6898 119.428 89.8613 119.543 90.0057 119.687C90.1501 119.831 90.2647 120.003 90.3429 120.191C90.421 120.38 90.4612 120.582 90.4612 120.787C90.4612 120.991 90.421 121.193 90.3429 121.382C90.2647 121.571 90.1501 121.742 90.0057 121.886L85.2489 126.643L90.0057 131.401Z" fill="#C8D3D9"/>
<path d="M134.76 131.401C134.905 131.545 135.019 131.717 135.098 131.905C135.176 132.094 135.216 132.296 135.216 132.5C135.216 132.705 135.176 132.907 135.098 133.096C135.02 133.284 134.905 133.456 134.761 133.6C134.616 133.744 134.445 133.859 134.256 133.937C134.068 134.016 133.866 134.056 133.661 134.056C133.457 134.056 133.255 134.016 133.066 133.938C132.878 133.859 132.706 133.745 132.562 133.601L127.805 128.843L123.049 133.601C122.757 133.892 122.362 134.056 121.949 134.056C121.537 134.056 121.141 133.892 120.85 133.601C120.558 133.309 120.394 132.913 120.394 132.501C120.394 132.088 120.558 131.693 120.85 131.401L125.606 126.643L120.85 121.886C120.705 121.742 120.591 121.571 120.512 121.382C120.434 121.193 120.394 120.991 120.394 120.787C120.394 120.582 120.434 120.38 120.512 120.191C120.591 120.003 120.705 119.831 120.85 119.687C120.994 119.543 121.165 119.428 121.354 119.35C121.543 119.272 121.745 119.231 121.949 119.231C122.154 119.231 122.356 119.272 122.544 119.35C122.733 119.428 122.905 119.543 123.049 119.687L127.805 124.444L132.562 119.687C132.706 119.543 132.878 119.428 133.066 119.35C133.255 119.272 133.457 119.232 133.661 119.232C133.866 119.232 134.068 119.272 134.256 119.35C134.445 119.428 134.616 119.543 134.761 119.687C134.905 119.832 135.02 120.003 135.098 120.192C135.176 120.381 135.216 120.583 135.216 120.787C135.216 120.991 135.176 121.193 135.098 121.382C135.019 121.571 134.905 121.742 134.76 121.886L130.004 126.643L134.76 131.401Z" fill="#C8D3D9"/>
<path d="M114.678 150.492H96.2717C95.7775 150.492 95.3036 150.296 94.9542 149.946C94.6047 149.597 94.4084 149.123 94.4084 148.629C94.4084 148.135 94.6047 147.661 94.9542 147.311C95.3036 146.962 95.7775 146.766 96.2717 146.766H114.678C115.172 146.766 115.646 146.962 115.995 147.311C116.345 147.661 116.541 148.135 116.541 148.629C116.541 149.123 116.345 149.597 115.995 149.946C115.646 150.296 115.172 150.492 114.678 150.492Z" fill="#C8D3D9"/>
<path d="M142.162 144.468C142.029 144.468 141.897 144.432 141.782 144.364C141.667 144.297 141.571 144.2 141.505 144.084C141.439 143.968 141.405 143.836 141.406 143.703C141.406 143.569 141.442 143.438 141.51 143.322L144.248 138.689C144.295 138.596 144.36 138.514 144.44 138.448C144.52 138.381 144.613 138.332 144.713 138.303C144.812 138.274 144.917 138.265 145.02 138.278C145.123 138.291 145.223 138.325 145.312 138.378C145.401 138.431 145.479 138.502 145.54 138.586C145.601 138.67 145.644 138.766 145.667 138.867C145.689 138.968 145.691 139.073 145.671 139.175C145.651 139.277 145.611 139.374 145.552 139.46L142.815 144.094C142.748 144.208 142.653 144.302 142.538 144.368C142.424 144.433 142.294 144.468 142.162 144.468Z" fill="#C8D3D9"/>
<path d="M145.012 144.468C144.878 144.468 144.747 144.432 144.631 144.364C144.516 144.297 144.42 144.2 144.354 144.084C144.288 143.967 144.254 143.836 144.255 143.702C144.256 143.568 144.292 143.437 144.36 143.322L147.098 138.688C147.145 138.596 147.211 138.515 147.291 138.45C147.371 138.385 147.464 138.337 147.563 138.308C147.662 138.28 147.766 138.272 147.869 138.286C147.971 138.299 148.07 138.333 148.158 138.385C148.247 138.438 148.324 138.508 148.385 138.592C148.446 138.675 148.489 138.77 148.512 138.871C148.534 138.971 148.537 139.076 148.518 139.177C148.499 139.279 148.459 139.375 148.402 139.461L145.663 144.095C145.596 144.208 145.501 144.302 145.387 144.368C145.273 144.433 145.144 144.468 145.012 144.468Z" fill="#C8D3D9"/>
<path d="M148.193 144.468C148.059 144.468 147.928 144.432 147.812 144.364C147.697 144.297 147.601 144.2 147.535 144.084C147.469 143.967 147.435 143.836 147.436 143.702C147.436 143.568 147.473 143.437 147.54 143.322L150.278 138.688C150.326 138.596 150.392 138.515 150.472 138.45C150.552 138.385 150.644 138.337 150.744 138.308C150.843 138.28 150.947 138.272 151.049 138.286C151.152 138.299 151.25 138.333 151.339 138.385C151.428 138.438 151.505 138.508 151.566 138.592C151.626 138.675 151.67 138.77 151.692 138.871C151.715 138.971 151.717 139.076 151.698 139.177C151.679 139.279 151.64 139.375 151.583 139.461L148.844 144.095C148.777 144.208 148.682 144.302 148.568 144.368C148.453 144.433 148.324 144.468 148.193 144.468Z" fill="#C8D3D9"/>
<path d="M59.5195 18.8375L55.2034 16.4937L59.4888 18.8459L60.7483 19.5194L59.5195 18.8375Z" fill="#C8D3D9"/>
<path d="M62.7196 23.0725L70.247 46.7475C70.6823 48.1505 70.5459 49.6687 69.8676 50.9716C69.1892 52.2745 68.0238 53.2567 66.6249 53.7048L45.5602 60.4031C44.1617 60.8433 42.6458 60.7122 41.3436 60.0385C40.0415 59.3647 39.0588 58.203 38.6104 56.8072L28.5638 25.1994C28.1217 23.7985 28.2506 22.2796 28.9224 20.9732C29.5943 19.6668 30.7548 18.6786 32.1515 18.2234L45.5667 13.9565L48.6774 23.7385C48.9617 24.648 49.5945 25.4082 50.4375 25.8526C51.2804 26.297 52.265 26.3898 53.1762 26.1105L62.7196 23.0725Z" fill="#C8D3D9"/>
<path d="M62.0675 21.1003L52.5501 24.1272C52.1633 24.2384 51.7481 24.1935 51.3941 24.0018C51.0401 23.8102 50.7754 23.4873 50.6571 23.1025L47.5474 13.3206C47.9031 13.2106 48.2772 13.1727 48.6477 13.2093C49.0182 13.246 49.3777 13.3564 49.705 13.5339L54.7161 16.2355L55.2024 16.4871L59.4879 18.8393L60.7474 19.513C61.3739 19.8542 61.8462 20.4221 62.0675 21.1003Z" fill="#C8D3D9"/>
<path d="M60.7521 19.5167L59.4926 18.8433L55.2072 16.4917L59.5233 18.8348L60.7521 19.5167Z" fill="#C8D3D9"/>
<path d="M59.5195 18.8375L55.2034 16.4937L59.4888 18.8459L60.7483 19.5194L59.5195 18.8375Z" fill="#C8D3D9"/>
<path d="M175.308 30.5599L173.474 26.0044L175.282 30.5497L175.823 31.8716L175.308 30.5599Z" fill="#C8D3D9"/>
<path d="M175.079 35.8669L165.795 58.9105C165.237 60.269 164.164 61.352 162.811 61.9239C161.458 62.4958 159.934 62.5102 158.571 61.9642L138.068 53.7045C136.709 53.1527 135.625 52.0857 135.05 50.7368C134.476 49.3879 134.459 47.8665 135.003 46.505L147.393 15.7376C147.945 14.3764 149.012 13.2883 150.362 12.7096C151.713 12.131 153.236 12.1085 154.603 12.6473L167.664 17.9092L163.829 27.4294C163.468 28.3117 163.472 29.3008 163.838 30.1806C164.205 31.0603 164.905 31.7591 165.785 32.1245L175.079 35.8669Z" fill="#C8D3D9"/>
<path d="M175.829 33.9321L166.565 30.1999C166.196 30.0395 165.904 29.7407 165.754 29.3677C165.603 28.9947 165.604 28.5771 165.758 28.2052L169.593 18.6851C169.938 18.8266 170.25 19.036 170.513 19.3003C170.775 19.5646 170.982 19.8787 171.12 20.2242L173.263 25.5009L173.477 26.0049L175.285 30.5502L175.826 31.8721C176.089 32.5334 176.09 33.27 175.829 33.9321Z" fill="#C8D3D9"/>
<path d="M175.823 31.8716L175.282 30.5497L173.475 26.0044L175.308 30.5608L175.823 31.8716Z" fill="#C8D3D9"/>
<path d="M175.308 30.5599L173.475 26.0044L175.282 30.5497L175.823 31.8716L175.308 30.5599Z" fill="#C8D3D9"/>
<path d="M119.126 9.92076L115.323 5.96436L119.094 9.92076L120.212 11.0648L119.126 9.92076Z" fill="#C8D3D9"/>
<path d="M121.104 15.5179V43.28C121.092 44.9213 120.433 46.4915 119.269 47.6493C118.106 48.807 116.532 49.4586 114.891 49.4622H90.1911C88.5529 49.4575 86.9832 48.8047 85.8248 47.6463C84.6664 46.4879 84.0136 44.9182 84.0089 43.28V6.21288C84.0126 4.57155 84.6641 2.99805 85.8218 1.83457C86.9795 0.671091 88.5498 0.011783 90.1911 0H105.926V11.4682C105.921 12.5331 106.337 13.5568 107.084 14.3156C107.832 15.0744 108.849 15.5066 109.913 15.5179H121.104Z" fill="#C8D3D9"/>
<path d="M121.073 13.2H109.913C109.464 13.1876 109.037 12.9992 108.725 12.6753C108.413 12.3514 108.241 11.918 108.245 11.4682V0C108.661 0.00320505 109.072 0.0895869 109.454 0.254056C109.837 0.418525 110.182 0.657831 110.47 0.95777L114.891 5.53373L115.323 5.96611L119.094 9.92274L120.212 11.0666C120.76 11.6426 121.067 12.4054 121.073 13.2Z" fill="#C8D3D9"/>
<path d="M120.208 11.0668L119.094 9.92294L115.323 5.96631L119.125 9.92294L120.208 11.0668Z" fill="#C8D3D9"/>
<path d="M119.126 9.92076L115.323 5.96436L119.094 9.92076L120.212 11.0648L119.126 9.92076Z" fill="#C8D3D9"/>
<path d="M96.9396 17.6201C95.2813 17.6201 93.6602 18.1117 92.2814 19.033C90.9026 19.9543 89.8279 21.264 89.1933 22.7961C88.5587 24.3282 88.3926 26.014 88.7162 27.6404C89.0397 29.2669 89.8382 30.7609 91.0108 31.9335C92.1834 33.1061 93.6774 33.9044 95.3038 34.2279C96.9303 34.5514 98.6161 34.3856 100.148 33.751C101.68 33.1164 102.99 32.0415 103.911 30.6627C104.832 29.2839 105.324 27.663 105.324 26.0046C105.325 24.9034 105.108 23.8128 104.687 22.7952C104.266 21.7776 103.649 20.853 102.87 20.0742C102.091 19.2955 101.167 18.6778 100.149 18.2567C99.1315 17.8356 98.0409 17.6194 96.9396 17.6201ZM99.1568 31.8645H94.7317C94.2031 31.8638 93.6965 31.6535 93.3228 31.2798C92.949 30.9061 92.7387 30.3993 92.738 29.8708C92.7387 29.1421 93.0285 28.4436 93.5438 27.9284C94.059 27.4131 94.7576 27.1233 95.4863 27.1225H98.4022C98.7632 27.1224 99.1206 27.1935 99.4541 27.3316C99.7876 27.4696 100.091 27.672 100.346 27.9272C100.601 28.1825 100.803 28.4853 100.942 28.8188C101.08 29.1523 101.151 29.5098 101.15 29.8708C101.143 30.3973 100.931 30.9003 100.559 31.2727C100.186 31.6451 99.6834 31.8575 99.1568 31.8645ZM96.9396 20.1448C97.4841 20.1457 98.016 20.308 98.4682 20.6112C98.9204 20.9145 99.2726 21.3452 99.4801 21.8485C99.6876 22.3519 99.7412 22.9055 99.634 23.4393C99.5269 23.9731 99.2639 24.4633 98.8782 24.8476C98.4926 25.232 98.0016 25.4933 97.4674 25.5987C96.9332 25.704 96.3798 25.6484 95.8771 25.4392C95.3745 25.23 94.9451 24.8764 94.6434 24.4232C94.3416 23.97 94.1811 23.4374 94.182 22.893C94.184 22.1631 94.4754 21.4638 94.9924 20.9485C95.5094 20.4333 96.2097 20.1443 96.9396 20.1448Z" fill="#F4F7FB"/>
<path d="M116.651 22.0562H107.137C106.721 22.0562 106.384 22.3934 106.384 22.8094C106.384 23.2253 106.721 23.5626 107.137 23.5626H116.651C117.067 23.5626 117.405 23.2253 117.405 22.8094C117.405 22.3934 117.067 22.0562 116.651 22.0562Z" fill="#F4F7FB"/>
<path d="M116.651 25.2505H107.137C106.721 25.2505 106.384 25.5877 106.384 26.0037C106.384 26.4197 106.721 26.7569 107.137 26.7569H116.651C117.067 26.7569 117.405 26.4197 117.405 26.0037C117.405 25.5877 117.067 25.2505 116.651 25.2505Z" fill="#F4F7FB"/>
<path d="M116.651 28.4463H107.137C106.721 28.4463 106.384 28.7835 106.384 29.1995C106.384 29.6155 106.721 29.9527 107.137 29.9527H116.651C117.067 29.9527 117.405 29.6155 117.405 29.1995C117.405 28.7835 117.067 28.4463 116.651 28.4463Z" fill="#F4F7FB"/>
<path d="M35.1296 34.8146L60.6255 27.0771C60.9671 26.9734 61.336 27.0097 61.6509 27.1779C61.9658 27.3462 62.2009 27.6327 62.3046 27.9743L68.0899 47.0374C68.1935 47.3791 68.1573 47.7479 67.989 48.0628C67.8207 48.3777 67.5343 48.6128 67.1926 48.7165L41.6949 56.4546C41.3533 56.5583 40.9844 56.522 40.6695 56.3537C40.3546 56.1854 40.1195 55.899 40.0158 55.5573L34.2311 36.496C34.1272 36.1539 34.1636 35.7845 34.3321 35.4692C34.5006 35.1539 34.7874 34.9184 35.1296 34.8146V34.8146Z" fill="white"/>
<path d="M65.4493 38.3353L68.0913 47.0402C68.1927 47.3818 68.1552 47.7497 67.9868 48.0638C67.8185 48.3778 67.5329 48.6126 67.1923 48.7172L41.695 56.4544C41.3536 56.5567 40.9857 56.5197 40.6715 56.3516C40.3573 56.1835 40.1224 55.8978 40.018 55.5571L39.1069 52.5574L43.888 45.6542C44.2258 45.1673 44.7206 44.8111 45.2895 44.6453C45.8584 44.4794 46.467 44.514 47.0135 44.7431L48.4939 45.3663C49.0518 45.6018 49.6747 45.6336 50.2537 45.4563C50.8327 45.279 51.331 44.9039 51.6614 44.3964L56.4713 37.0181C56.796 36.52 57.2826 36.1492 57.8489 35.9682C58.4153 35.7873 59.0268 35.8072 59.5801 36.0249L65.4493 38.3353Z" fill="#C8D3D9"/>
<path d="M43.4585 41.863C45.584 41.863 47.307 40.14 47.307 38.0145C47.307 35.889 45.584 34.166 43.4585 34.166C41.333 34.166 39.61 35.889 39.61 38.0145C39.61 40.14 41.333 41.863 43.4585 41.863Z" fill="#F4F7FB"/>
<path d="M162.267 37.166L153.925 33.7049C152.701 33.203 151.328 33.2066 150.106 33.7147C148.885 34.2228 147.915 35.1942 147.408 36.4161L145.183 41.7765C144.858 42.5494 144.737 43.393 144.831 44.2263C144.926 45.0596 145.233 45.8545 145.723 46.5351L144.392 49.7418C144.35 49.8391 144.339 49.9465 144.359 50.0505C144.379 50.1544 144.429 50.2501 144.504 50.325C144.556 50.3698 144.614 50.4057 144.677 50.4312C144.804 50.4851 144.947 50.487 145.075 50.4367L149.045 48.7711L156.218 51.7465C157.438 52.2503 158.809 52.2499 160.028 51.7454C161.248 51.2409 162.218 50.2736 162.726 49.0552L164.951 43.6948C165.458 42.4728 165.46 41.0997 164.957 39.8762C164.454 38.6527 163.487 37.6782 162.267 37.166ZM153.109 45.7497L149.229 44.141C149.104 44.0844 149.006 43.9812 148.956 43.8537C148.906 43.7262 148.907 43.5842 148.96 43.4575C149.012 43.3309 149.112 43.2298 149.237 43.1753C149.363 43.1208 149.505 43.1172 149.634 43.1655L153.513 44.7753C153.642 44.829 153.745 44.9317 153.798 45.061C153.852 45.1903 153.852 45.3355 153.798 45.4647C153.744 45.594 153.642 45.6967 153.512 45.7502C153.383 45.8036 153.238 45.8033 153.109 45.7497ZM150.418 41.2782C150.354 41.2521 150.295 41.2136 150.246 41.1647C150.196 41.1157 150.157 41.0574 150.131 40.9932C150.104 40.929 150.091 40.8602 150.091 40.7907C150.092 40.7213 150.106 40.6527 150.133 40.5888C150.187 40.4597 150.289 40.357 150.419 40.3036C150.548 40.2501 150.693 40.2501 150.822 40.3036L159.789 44.0236C159.918 44.0776 160.02 44.1804 160.074 44.3095C160.127 44.4387 160.127 44.5838 160.074 44.713C160.048 44.7774 160.01 44.8359 159.961 44.8852C159.912 44.9345 159.854 44.9735 159.789 45.0001C159.725 45.0266 159.656 45.0402 159.587 45.0399C159.517 45.0395 159.449 45.0252 159.385 44.998L150.418 41.2782ZM160.573 42.1427L151.606 38.4226C151.477 38.3686 151.375 38.2658 151.321 38.1367C151.268 38.0075 151.268 37.8625 151.321 37.7332C151.347 37.6687 151.385 37.6102 151.434 37.5608C151.483 37.5114 151.541 37.4721 151.605 37.4455C151.67 37.4188 151.738 37.4054 151.808 37.4057C151.877 37.406 151.946 37.4201 152.01 37.4473L160.977 41.1681C161.041 41.1941 161.1 41.2327 161.149 41.2816C161.199 41.3305 161.238 41.3889 161.264 41.4531C161.291 41.5172 161.304 41.586 161.304 41.6555C161.303 41.7249 161.289 41.7936 161.262 41.8575C161.208 41.9866 161.104 42.0888 160.974 42.1418C160.845 42.1947 160.699 42.1939 160.57 42.1397L160.573 42.1427Z" fill="#F4F7FB"/>
<path d="M204.544 67.6838C206.304 67.6838 207.73 66.2573 207.73 64.4976C207.73 62.738 206.304 61.3115 204.544 61.3115C202.784 61.3115 201.358 62.738 201.358 64.4976C201.358 66.2573 202.784 67.6838 204.544 67.6838Z" fill="#F4F7FB" stroke="#F4F7FB" stroke-width="0.668" stroke-miterlimit="10"/>
<path d="M207.73 111.493C214.05 111.493 219.173 106.37 219.173 100.05C219.173 93.7306 214.05 88.6074 207.73 88.6074C201.41 88.6074 196.287 93.7306 196.287 100.05C196.287 106.37 201.41 111.493 207.73 111.493Z" fill="#F4F7FB" stroke="#F4F7FB" stroke-width="2.4" stroke-miterlimit="10"/>
<defs>
<filter id="filter0_d_1113_19677" x="0" y="1.0752" width="198.031" height="198.031" filterUnits="userSpaceOnUse" color-interpolation-filters="sRGB">
<feFlood flood-opacity="0" result="BackgroundImageFix"/>
<feColorMatrix in="SourceAlpha" type="matrix" values="0 0 0 0 0 0 0 0 0 0 0 0 0 0 0 0 0 0 127 0" result="hardAlpha"/>
<feOffset dy="5"/>
<feGaussianBlur stdDeviation="3"/>
<feColorMatrix type="matrix" values="0 0 0 0 0.784314 0 0 0 0 0.827451 0 0 0 0 0.85098 0 0 0 0.302 0"/>
<feBlend mode="normal" in2="BackgroundImageFix" result="effect1_dropShadow_1113_19677"/>
<feBlend mode="normal" in="SourceGraphic" in2="effect1_dropShadow_1113_19677" result="shape"/>
</filter>
<filter id="filter1_d_1113_19677" x="28.5746" y="79.4473" width="147.177" height="99.0352" filterUnits="userSpaceOnUse" color-interpolation-filters="sRGB">
<feFlood flood-opacity="0" result="BackgroundImageFix"/>
<feColorMatrix in="SourceAlpha" type="matrix" values="0 0 0 0 0 0 0 0 0 0 0 0 0 0 0 0 0 0 127 0" result="hardAlpha"/>
<feOffset dy="3"/>
<feGaussianBlur stdDeviation="3"/>
<feColorMatrix type="matrix" values="0 0 0 0 0.784314 0 0 0 0 0.827451 0 0 0 0 0.85098 0 0 0 0.302 0"/>
<feBlend mode="normal" in2="BackgroundImageFix" result="effect1_dropShadow_1113_19677"/>
<feBlend mode="normal" in="SourceGraphic" in2="effect1_dropShadow_1113_19677" result="shape"/>
</filter>
<filter id="filter2_d_1113_19677" x="17.4647" y="167.484" width="26.9485" height="26.9478" filterUnits="userSpaceOnUse" color-interpolation-filters="sRGB">
<feFlood flood-opacity="0" result="BackgroundImageFix"/>
<feColorMatrix in="SourceAlpha" type="matrix" values="0 0 0 0 0 0 0 0 0 0 0 0 0 0 0 0 0 0 127 0" result="hardAlpha"/>
<feOffset dy="3"/>
<feGaussianBlur stdDeviation="3"/>
<feColorMatrix type="matrix" values="0 0 0 0 0.784314 0 0 0 0 0.827451 0 0 0 0 0.85098 0 0 0 0.302 0"/>
<feBlend mode="normal" in2="BackgroundImageFix" result="effect1_dropShadow_1113_19677"/>
<feBlend mode="normal" in="SourceGraphic" in2="effect1_dropShadow_1113_19677" result="shape"/>
</filter>
<filter id="filter3_d_1113_19677" x="30.4836" y="133.521" width="48.4474" height="48.4497" filterUnits="userSpaceOnUse" color-interpolation-filters="sRGB">
<feFlood flood-opacity="0" result="BackgroundImageFix"/>
<feColorMatrix in="SourceAlpha" type="matrix" values="0 0 0 0 0 0 0 0 0 0 0 0 0 0 0 0 0 0 127 0" result="hardAlpha"/>
<feOffset dy="3"/>
<feGaussianBlur stdDeviation="3"/>
<feColorMatrix type="matrix" values="0 0 0 0 0.784314 0 0 0 0 0.827451 0 0 0 0 0.85098 0 0 0 0.502 0"/>
<feBlend mode="normal" in2="BackgroundImageFix" result="effect1_dropShadow_1113_19677"/>
<feBlend mode="normal" in="SourceGraphic" in2="effect1_dropShadow_1113_19677" result="shape"/>
</filter>
</defs>
</svg>
