<svg width="120" height="77" viewBox="0 0 120 77" fill="none" xmlns="http://www.w3.org/2000/svg">
<path d="M110.596 65.5761C110.808 67.3856 109.216 69.2443 107.032 70.9059H19.5163C18.6486 70.5854 17.7118 70.2304 16.7306 69.8557C4.19088 66.8075 2.24498 63.2982 1.52514 62.1199C-0.821755 58.284 -0.368154 52.4266 2.25484 48.645C6.14003 43.044 12.2489 45.6177 16.4594 40.4506C20.4482 35.5497 16.5334 31.1123 19.0036 22.0551C19.4226 20.5217 22.9528 8.04768 34.1203 2.57489C41.866 -1.21662 49.5575 0.183626 51.5987 0.587922C66.9275 3.60042 67.5882 16.6168 80.4122 17.3712C86.4077 17.7212 90.1301 15.1081 100.169 16.6414C105.025 17.3859 107.125 18.4509 108.042 18.9637C113.16 21.8283 117.494 27.6117 117.967 34.2579C118.5 41.7325 113.954 47.6539 112.776 49.1873C109.058 54.0339 105.04 55.4539 105.493 58.2938C105.967 61.2422 110.197 62.2431 110.591 65.5712L110.596 65.5761Z" fill="url(#paint0_linear_1112_21002)"/>
<path d="M77.9075 37.6748C79.86 40.6824 80.994 44.2717 80.994 48.1273C80.994 58.7475 72.3854 67.3561 61.7652 67.3561C52.3826 67.3561 44.5678 60.6359 42.8767 51.7463C42.6548 50.5728 42.5365 49.3649 42.5365 48.1273C42.5365 44.2717 43.6705 40.6824 45.623 37.6748H25.5166V64.812C25.5166 68.0661 28.179 70.7285 31.4331 70.7285H92.0973C95.3514 70.7285 98.0139 68.0661 98.0139 64.812V37.6748H77.9075Z" fill="white" stroke="#C8D3D9" stroke-width="2" stroke-miterlimit="10"/>
<path d="M98.0139 31.4424V37.6745H77.9075C77.0102 36.294 75.9403 35.0318 74.7323 33.9274C74.2738 33.5083 73.7906 33.1089 73.2926 32.7391C70.078 30.3232 66.0892 28.8983 61.7652 28.8983C56.7707 28.8983 52.2199 30.8015 48.7982 33.9274C47.5902 35.0318 46.5203 36.294 45.623 37.6745H25.5166V31.4424C25.5166 28.1883 28.179 25.5259 31.4331 25.5259H31.5613V25.5505C31.5613 26.6155 32.4291 27.4833 33.4941 27.4833H36.6545C37.187 27.4833 37.6701 27.2663 38.0202 26.9163C38.3703 26.5662 38.5872 26.083 38.5872 25.5505V25.5259H92.0973C95.3514 25.5259 98.0139 28.1883 98.0139 31.4424Z" fill="white" stroke="#C8D3D9" stroke-width="2" stroke-miterlimit="10"/>
<path d="M75.7529 48.1273C75.7529 55.8533 69.4913 62.115 61.7653 62.115C54.0392 62.115 47.7776 55.8533 47.7776 48.1273C47.7776 43.971 49.592 40.2337 52.4714 37.6748C54.9415 35.4709 58.1956 34.1396 61.7653 34.1396C65.3349 34.1396 68.589 35.4709 71.0591 37.6748C73.9385 40.2337 75.7529 43.971 75.7529 48.1273Z" fill="#607079" stroke="#C8D3D9" stroke-width="2" stroke-miterlimit="10"/>
<path d="M80.3876 25.5258H43.1431L43.6361 24.6383C45.13 21.9266 48.8427 20.0234 52.0968 20.0234H71.434C74.688 20.0234 78.4007 21.9266 79.8946 24.6383L80.3876 25.5258Z" fill="url(#paint1_linear_1112_21002)" stroke="#C8D3D9" stroke-width="2" stroke-miterlimit="10"/>
<path d="M90.2337 33.9227C91.5271 33.9227 92.5756 32.8742 92.5756 31.5807C92.5756 30.2873 91.5271 29.2388 90.2337 29.2388C88.9403 29.2388 87.8917 30.2873 87.8917 31.5807C87.8917 32.8742 88.9403 33.9227 90.2337 33.9227Z" fill="white" stroke="#C8D3D9" stroke-width="2" stroke-miterlimit="10"/>
<path d="M38.5872 25.5262V25.5509C38.5872 26.0834 38.3702 26.5666 38.0202 26.9166C37.6701 27.2667 37.1869 27.4836 36.6544 27.4836H33.494C32.429 27.4836 31.5613 26.6159 31.5613 25.5509V25.5262C31.5662 25.0085 31.7832 24.5352 32.1283 24.1852C32.4783 23.8351 32.9615 23.6182 33.494 23.6182H36.6544C37.7095 23.6182 38.5724 24.4761 38.5872 25.5262Z" fill="white" stroke="#C8D3D9" stroke-width="2" stroke-miterlimit="10"/>
<path d="M61.4646 38.9419C58.8662 39.0257 56.5292 40.1548 54.8726 41.9248L61.4646 38.9419Z" fill="white"/>
<path d="M61.4646 38.9419C58.8662 39.0257 56.5292 40.1548 54.8726 41.9248" stroke="#F4F7FB" stroke-width="3" stroke-linecap="round" stroke-linejoin="round"/>
<path d="M52.8905 45.1294C52.5157 46.1451 52.3136 47.2446 52.3136 48.3884L52.8905 45.1294Z" fill="white"/>
<path d="M52.8905 45.1294C52.5157 46.1451 52.3136 47.2446 52.3136 48.3884" stroke="#F4F7FB" stroke-width="3" stroke-linecap="round" stroke-linejoin="round"/>
<path d="M107.406 71.2363H105.301H99.4733H69.3927H24.6292H18.407" stroke="#C8D3D9" stroke-width="2" stroke-linecap="round" stroke-linejoin="round"/>
<path d="M28.2629 75.0132H60.3651" stroke="#C8D3D9" stroke-width="2" stroke-linecap="round" stroke-linejoin="round"/>
<path d="M63.8459 75.0132H67.2578" stroke="#C8D3D9" stroke-width="2" stroke-linecap="round" stroke-linejoin="round"/>
<path opacity="0.5" d="M83.0156 49.9564C83.0156 61.0597 74.0126 70.0627 62.9092 70.0627C52.4024 70.0627 43.784 62.0113 42.8768 51.7461C44.568 60.6357 52.3827 67.3559 61.7654 67.3559C72.3855 67.3559 80.9941 58.7473 80.9941 48.1272C80.9941 44.2716 79.8601 40.6822 77.9076 37.6746C77.0103 36.2941 75.9404 35.0319 74.7324 33.9275C74.2739 33.5084 73.7907 33.109 73.2927 32.7393C75.4276 34.0261 77.3061 35.7025 78.8296 37.6746C81.4526 41.0717 83.0156 45.3316 83.0156 49.9564Z" fill="#C8D3D9"/>
<path opacity="0.3" d="M92.0974 70.7282H72.1488C74.1308 70.2844 76.3446 69.5991 78.7063 68.5095C81.137 67.3853 86.4865 64.8412 90.4555 59.1121C93.3497 54.931 94.2125 50.9374 94.819 48.1172C95.2923 45.9231 94.9718 46.3964 95.2479 37.6745C95.2874 36.432 95.3367 34.9973 95.4057 33.3456C95.4649 31.9207 95.5142 30.8606 95.0113 29.5688C94.2027 27.5079 92.5658 26.3443 91.1162 25.5259H92.0974C95.3515 25.5259 98.0139 28.1883 98.0139 31.4424V64.8116C98.0139 68.0657 95.3515 70.7282 92.0974 70.7282Z" fill="#C8D3D9"/>
<path d="M110.113 37.65C113.716 37.65 116.636 34.7295 116.636 31.127C116.636 27.5244 113.716 24.604 110.113 24.604C106.511 24.604 103.59 27.5244 103.59 31.127C103.59 34.7295 106.511 37.65 110.113 37.65Z" fill="url(#paint2_linear_1112_21002)"/>
<path d="M13.5751 66.0738C17.1776 66.0738 20.0981 63.1533 20.0981 59.5508C20.0981 55.9483 17.1776 53.0278 13.5751 53.0278C9.97256 53.0278 7.05212 55.9483 7.05212 59.5508C7.05212 63.1533 9.97256 66.0738 13.5751 66.0738Z" fill="url(#paint3_linear_1112_21002)"/>
<path d="M75.0529 12.8943C74.9247 12.8943 74.8014 12.845 74.7028 12.7513C74.5105 12.559 74.5105 12.2484 74.7028 12.0561L77.311 9.44793C77.5033 9.25564 77.8139 9.25564 78.0062 9.44793C78.1985 9.64021 78.1985 9.95083 78.0062 10.1431L75.398 12.7513C75.2994 12.8499 75.1761 12.8943 75.0479 12.8943H75.0529Z" fill="url(#paint4_linear_1112_21002)"/>
<path d="M78.3268 12.8943C78.1986 12.8943 78.0753 12.845 77.9767 12.7513C77.7844 12.559 77.7844 12.2484 77.9767 12.0561L80.5849 9.44793C80.7772 9.25564 81.0878 9.25564 81.2801 9.44793C81.4724 9.64021 81.4724 9.95083 81.2801 10.1431L78.6719 12.7513C78.5733 12.8499 78.4501 12.8943 78.3219 12.8943H78.3268Z" fill="url(#paint5_linear_1112_21002)"/>
<path d="M81.6054 12.8943C81.4772 12.8943 81.3539 12.845 81.2553 12.7513C81.063 12.559 81.063 12.2484 81.2553 12.0561L83.8635 9.44793C84.0558 9.25564 84.3664 9.25564 84.5587 9.44793C84.751 9.64021 84.751 9.95083 84.5587 10.1431L81.9505 12.7513C81.8519 12.8499 81.7286 12.8943 81.6004 12.8943H81.6054Z" fill="url(#paint6_linear_1112_21002)"/>
<path d="M16.4545 28.5537C16.7454 28.8446 16.7454 29.313 16.4545 29.599C16.3115 29.7469 16.1241 29.8159 15.9319 29.8159C15.7396 29.8159 15.5522 29.742 15.4092 29.599L13.5702 27.7649L11.736 29.599C11.5931 29.7469 11.4057 29.8159 11.2134 29.8159C11.0211 29.8159 10.8387 29.742 10.6908 29.599C10.4048 29.313 10.4048 28.8446 10.6908 28.5537L12.5249 26.7196L10.6908 24.8855C10.4048 24.5946 10.4048 24.1262 10.6908 23.8402C10.9768 23.5543 11.4501 23.5493 11.736 23.8402L13.5702 25.6744L15.4092 23.8402C15.7001 23.5493 16.1636 23.5493 16.4545 23.8402C16.7454 24.1262 16.7454 24.5946 16.4545 24.8855L14.6154 26.7196L16.4545 28.5537Z" fill="url(#paint7_linear_1112_21002)"/>
<path d="M119.782 59.1368C120.073 59.4277 120.073 59.896 119.782 60.182C119.639 60.3299 119.452 60.3989 119.259 60.3989C119.067 60.3989 118.88 60.325 118.737 60.182L116.898 58.3479L115.063 60.182C114.92 60.3299 114.733 60.3989 114.541 60.3989C114.349 60.3989 114.166 60.325 114.018 60.182C113.732 59.896 113.732 59.4277 114.018 59.1368L115.852 57.3026L114.018 55.4685C113.732 55.1776 113.732 54.7092 114.018 54.4233C114.304 54.1373 114.777 54.1324 115.063 54.4233L116.898 56.2574L118.737 54.4233C119.028 54.1324 119.491 54.1324 119.782 54.4233C120.073 54.7092 120.073 55.1776 119.782 55.4685L117.943 57.3026L119.782 59.1368Z" fill="url(#paint8_linear_1112_21002)"/>
<defs>
<linearGradient id="paint0_linear_1112_21002" x1="54.7493" y1="-10.9296" x2="75.6445" y2="267.527" gradientUnits="userSpaceOnUse">
<stop stop-color="white"/>
<stop offset="1" stop-color="#C2E4E2"/>
</linearGradient>
<linearGradient id="paint1_linear_1112_21002" x1="61.6306" y1="17.7494" x2="61.6306" y2="38.2107" gradientUnits="userSpaceOnUse">
<stop stop-color="white"/>
<stop offset="1" stop-color="#C2E4E2"/>
</linearGradient>
<linearGradient id="paint2_linear_1112_21002" x1="110.01" y1="20.2406" x2="110.187" y2="38.8579" gradientUnits="userSpaceOnUse">
<stop stop-color="white"/>
<stop offset="1" stop-color="#C2E4E2"/>
</linearGradient>
<linearGradient id="paint3_linear_1112_21002" x1="13.4716" y1="48.6644" x2="13.6491" y2="67.2817" gradientUnits="userSpaceOnUse">
<stop stop-color="white"/>
<stop offset="1" stop-color="#C2E4E2"/>
</linearGradient>
<linearGradient id="paint4_linear_1112_21002" x1="57.1948" y1="18.377" x2="110.232" y2="-1.76388" gradientUnits="userSpaceOnUse">
<stop stop-color="white"/>
<stop offset="1" stop-color="#C2E4E2"/>
</linearGradient>
<linearGradient id="paint5_linear_1112_21002" x1="57.6042" y1="19.4617" x2="110.646" y2="-0.679187" gradientUnits="userSpaceOnUse">
<stop stop-color="white"/>
<stop offset="1" stop-color="#C2E4E2"/>
</linearGradient>
<linearGradient id="paint6_linear_1112_21002" x1="58.0181" y1="20.5513" x2="111.055" y2="0.410442" gradientUnits="userSpaceOnUse">
<stop stop-color="white"/>
<stop offset="1" stop-color="#C2E4E2"/>
</linearGradient>
<linearGradient id="paint7_linear_1112_21002" x1="-5.34301" y1="26.335" x2="36.2847" y2="27.1732" gradientUnits="userSpaceOnUse">
<stop stop-color="white"/>
<stop offset="1" stop-color="#C2E4E2"/>
</linearGradient>
<linearGradient id="paint8_linear_1112_21002" x1="97.9844" y1="56.9181" x2="139.607" y2="57.7562" gradientUnits="userSpaceOnUse">
<stop stop-color="white"/>
<stop offset="1" stop-color="#C2E4E2"/>
</linearGradient>
</defs>
</svg>
