<svg width="20" height="26" viewBox="0 0 20 26" fill="none" xmlns="http://www.w3.org/2000/svg">
<path d="M15.5468 1.73324H14.8C14.48 0.879902 13.6534 0.266602 12.6934 0.266602H7.29346C6.33346 0.266602 5.50677 0.879902 5.18677 1.73324H4.4401C2.3601 1.73324 0.666748 3.44002 0.666748 5.52002V21.9466C0.666748 24.0266 2.3601 25.7332 4.4401 25.7332H15.5468C17.6268 25.7332 19.3334 24.0266 19.3334 21.9466V5.52002C19.3334 3.44002 17.6268 1.73324 15.5468 1.73324ZM7.29346 1.59993H12.6934C12.8534 1.59993 13.0134 1.65324 13.1467 1.73324C13.4267 1.89324 13.6134 2.19987 13.6134 2.5332C13.6134 2.7332 13.5468 2.9199 13.4268 3.06657C13.2668 3.29324 12.9868 3.45329 12.6934 3.45329H7.29346C7.00012 3.45329 6.72006 3.29324 6.56006 3.06657C6.44006 2.9199 6.37345 2.7332 6.37345 2.5332C6.37345 2.19987 6.56009 1.89324 6.84009 1.73324C6.97342 1.65324 7.13346 1.59993 7.29346 1.59993ZM18.0001 21.9466C18.0001 23.3066 16.8935 24.3999 15.5468 24.3999H4.4401C3.09344 24.3999 2.00008 23.3066 2.00008 21.9466V5.52002C2.00008 4.17335 3.09344 3.06657 4.4401 3.06657H5.10677C5.34677 4.05324 6.24012 4.78662 7.29346 4.78662H12.6934C13.7468 4.78662 14.6401 4.05324 14.8801 3.06657H15.5468C16.8935 3.06657 18.0001 4.17335 18.0001 5.52002V21.9466Z" fill="#BF283A"/>
<path fill-rule="evenodd" clip-rule="evenodd" d="M7.90664 7.52884C8.04164 7.65401 8.04961 7.86491 7.92445 7.99991L6.05775 10.0133C5.99616 10.0797 5.91018 10.1182 5.81961 10.1199C5.72904 10.1216 5.64167 10.0864 5.57761 10.0223L4.61765 9.06236C4.48748 8.93219 4.48748 8.72113 4.61765 8.59096C4.74783 8.46078 4.95888 8.46078 5.08906 8.59096L5.80424 9.30614L7.43558 7.54664C7.56074 7.41165 7.77165 7.40367 7.90664 7.52884Z" fill="#BF283A"/>
<path fill-rule="evenodd" clip-rule="evenodd" d="M4.48435 12.5376C4.61452 12.4074 4.82557 12.4074 4.95575 12.5376L7.42247 15.0042C7.55264 15.1344 7.55265 15.3454 7.42247 15.4756C7.2923 15.6058 7.08125 15.6058 6.95107 15.4756L4.48435 13.009C4.35418 12.8788 4.35417 12.6678 4.48435 12.5376Z" fill="#BF283A"/>
<path fill-rule="evenodd" clip-rule="evenodd" d="M7.42247 12.5376C7.55265 12.6678 7.55264 12.8788 7.42247 13.009L4.95575 15.4756C4.82557 15.6058 4.61452 15.6058 4.48435 15.4756C4.35417 15.3454 4.35418 15.1344 4.48435 15.0042L6.95107 12.5376C7.08125 12.4074 7.2923 12.4074 7.42247 12.5376Z" fill="#BF283A"/>
<path fill-rule="evenodd" clip-rule="evenodd" d="M6.20011 18.5733C5.5668 18.5733 5.05339 19.0867 5.05339 19.7199C5.05339 20.3532 5.5668 20.8666 6.20011 20.8666C6.8334 20.8666 7.34676 20.3532 7.34676 19.7199C7.34676 19.0866 6.8334 18.5733 6.20011 18.5733ZM4.38672 19.7199C4.38672 18.7184 5.19866 17.9066 6.20011 17.9066C7.20159 17.9066 8.01343 18.7185 8.01343 19.7199C8.01343 20.7214 7.20159 21.5332 6.20011 21.5332C5.19866 21.5332 4.38672 20.7214 4.38672 19.7199Z" fill="#BF283A"/>
<path fill-rule="evenodd" clip-rule="evenodd" d="M8.77344 9.53322C8.77344 9.34913 8.92268 9.19989 9.10677 9.19989H15.2668C15.4509 9.19989 15.6001 9.34913 15.6001 9.53322C15.6001 9.71732 15.4509 9.86656 15.2668 9.86656H9.10677C8.92268 9.86656 8.77344 9.71732 8.77344 9.53322Z" fill="#BF283A"/>
<path fill-rule="evenodd" clip-rule="evenodd" d="M8.77344 8.02651C8.77344 7.84241 8.92268 7.69318 9.10677 7.69318H12.0667C12.2508 7.69318 12.4001 7.84241 12.4001 8.02651C12.4001 8.2106 12.2508 8.35984 12.0667 8.35984H9.10677C8.92268 8.35984 8.77344 8.2106 8.77344 8.02651Z" fill="#BF283A"/>
<path fill-rule="evenodd" clip-rule="evenodd" d="M8.77344 14.5866C8.77344 14.4025 8.92268 14.2533 9.10677 14.2533H15.2668C15.4509 14.2533 15.6001 14.4025 15.6001 14.5866C15.6001 14.7707 15.4509 14.92 15.2668 14.92H9.10677C8.92268 14.92 8.77344 14.7707 8.77344 14.5866Z" fill="#BF283A"/>
<path fill-rule="evenodd" clip-rule="evenodd" d="M8.77344 13.0799C8.77344 12.8958 8.92268 12.7466 9.10677 12.7466H15.2668C15.4509 12.7466 15.6001 12.8958 15.6001 13.0799C15.6001 13.264 15.4509 13.4132 15.2668 13.4132H9.10677C8.92268 13.4132 8.77344 13.264 8.77344 13.0799Z" fill="#BF283A"/>
<path fill-rule="evenodd" clip-rule="evenodd" d="M8.77344 20.4666C8.77344 20.2825 8.92268 20.1333 9.10677 20.1333H15.2668C15.4509 20.1333 15.6001 20.2825 15.6001 20.4666C15.6001 20.6507 15.4509 20.8 15.2668 20.8H9.10677C8.92268 20.8 8.77344 20.6507 8.77344 20.4666Z" fill="#BF283A"/>
<path fill-rule="evenodd" clip-rule="evenodd" d="M8.77344 18.9733C8.77344 18.7893 8.92268 18.64 9.10677 18.64H15.2668C15.4509 18.64 15.6001 18.7893 15.6001 18.9733C15.6001 19.1574 15.4509 19.3067 15.2668 19.3067H9.10677C8.92268 19.3067 8.77344 19.1574 8.77344 18.9733Z" fill="#BF283A"/>
</svg>
