<svg width="24" height="24" viewBox="0 0 24 24" fill="none" xmlns="http://www.w3.org/2000/svg">
<path d="M11.688 20.709C11.0269 20.709 10.489 20.1712 10.489 19.5101C10.489 18.8544 11.0269 18.321 11.688 18.321C12.3436 18.321 12.877 18.8544 12.877 19.5101C12.877 20.1712 12.3436 20.709 11.688 20.709Z" fill="#607079"/>
<path d="M11.688 18.821C11.3026 18.821 10.989 19.1301 10.989 19.5101C10.989 19.8955 11.3026 20.209 11.688 20.209C12.0679 20.209 12.377 19.8955 12.377 19.5101C12.377 19.1301 12.0679 18.821 11.688 18.821ZM11.688 17.821C12.626 17.821 13.377 18.582 13.377 19.5101C13.377 20.4481 12.626 21.209 11.688 21.209C10.75 21.209 9.98901 20.4481 9.98901 19.5101C9.98901 18.582 10.75 17.821 11.688 17.821Z" fill="#607079"/>
<path d="M11.6858 16.116H11.648C11.0628 16.116 10.5883 15.6559 10.5676 15.0685C10.4748 12.0034 10.4871 10.2593 11.8233 10.0806L11.8259 10.0803L11.8286 10.0798C11.8382 10.0785 11.8887 10.0735 11.9607 10.0735C12.0121 10.0735 12.06 10.0761 12.0991 10.0811L12.141 10.0864L12.1831 10.0846C12.5526 10.069 13.2798 9.80127 13.7396 9.25494C14.2791 8.60474 14.5808 7.39392 14.1557 6.48846L14.1551 6.4873L14.1535 6.48383C13.8242 5.79187 13.1011 5.44098 12.0041 5.44098C11.1294 5.44098 10.5149 5.64862 10.1259 6.07562C9.77492 6.44879 9.6133 6.99774 9.6581 7.66364L9.65835 7.66656L9.65859 7.66956C9.70559 8.26202 9.26052 8.78241 8.66653 8.82959C8.63845 8.83185 8.61037 8.83295 8.58266 8.83295C8.032 8.83301 7.55337 8.38879 7.51577 7.84271C7.4175 6.57648 7.78091 5.43054 8.53896 4.61163C9.0978 4.0094 10.1531 3.29102 12.0041 3.29102C14.4983 3.29102 15.6111 4.53168 16.1054 5.57245C16.8345 7.12195 16.5384 9.24957 15.4003 10.6299C14.8283 11.316 13.9889 11.8467 13.0993 12.0839L12.7515 12.1766L12.729 12.5358C12.6936 13.1031 12.6934 13.9333 12.7283 15.0034C12.7351 15.293 12.636 15.5591 12.4413 15.7687C12.2349 15.9807 11.974 16.1006 11.6858 16.116Z" fill="#607079"/>
<path d="M11.6706 15.616C11.8266 15.605 11.9639 15.5405 12.0791 15.424C12.181 15.312 12.2313 15.1743 12.2283 15.0146C12.1931 13.9312 12.1936 13.0868 12.2299 12.5046L12.2749 11.7862L12.9704 11.6008C13.7617 11.3898 14.5072 10.9193 15.0162 10.3097C16.0195 9.09076 16.293 7.14563 15.6536 5.78693C15.2213 4.8764 14.237 3.79102 12.004 3.79102C10.6627 3.79102 9.61995 4.1817 8.90584 4.95123C8.24361 5.66675 7.92683 6.67828 8.01387 7.79956L8.0146 7.80841C8.03413 8.09277 8.29427 8.33295 8.58235 8.33295C8.59688 8.33295 8.61165 8.33234 8.62678 8.33112C8.946 8.30579 9.18526 8.02673 9.16011 7.70911L9.15926 7.69727C9.10481 6.89026 9.31233 6.21216 9.75948 5.73529C10.2421 5.20819 10.9971 4.94098 12.004 4.94098C13.3106 4.94098 14.1856 5.38782 14.6059 6.2713L14.6081 6.27594C15.1369 7.40216 14.7547 8.81445 14.1265 9.57153L14.1221 9.5769C13.5915 10.2074 12.7556 10.5609 12.2042 10.5841L12.1198 10.5877L12.0362 10.5771C12.0295 10.5762 12.0042 10.5735 11.9606 10.5735C11.9272 10.5735 11.9007 10.5751 11.8908 10.576L11.8895 10.5762C11.6611 10.6068 11.3485 10.6486 11.1657 11.5311C10.9868 12.395 11.026 13.6874 11.0673 15.0511C11.0786 15.3731 11.3282 15.616 11.6479 15.616H11.6706ZM11.698 16.616H11.6479C10.7889 16.616 10.098 15.945 10.0679 15.086C9.97896 12.153 9.90999 9.83197 11.7569 9.58502C11.826 9.57489 12.004 9.56488 12.1619 9.58502C12.399 9.57501 12.9909 9.36798 13.357 8.93298C13.791 8.40997 14.0279 7.39301 13.703 6.70099C13.614 6.51398 13.347 5.94098 12.004 5.94098C11.2829 5.94098 10.779 6.099 10.493 6.41498C10.1469 6.77997 10.1369 7.33301 10.1569 7.63C10.2259 8.49902 9.5749 9.25897 8.70601 9.328C7.847 9.39661 7.076 8.73608 7.01692 7.87701C6.90791 6.474 7.31294 5.20001 8.17195 4.27197C8.80391 3.591 9.96992 2.79102 12.004 2.79102C14.9169 2.79102 16.102 4.39996 16.557 5.35797C17.3659 7.07697 17.04 9.427 15.786 10.948C15.144 11.718 14.2259 12.301 13.228 12.567C13.1989 13.032 13.1889 13.792 13.228 14.987C13.238 15.412 13.0899 15.807 12.8039 16.113C12.508 16.419 12.1219 16.597 11.698 16.616Z" fill="#607079"/>
</svg>
