<svg width="24" height="24" viewBox="0 0 24 24" fill="none" xmlns="http://www.w3.org/2000/svg">
<path d="M18.153 19.349H5.84485C5.61269 19.3511 5.38927 19.261 5.22351 19.0984C5.05776 18.9359 4.96331 18.7141 4.96094 18.482V17.553C4.96384 17.3212 5.05842 17.1 5.22412 16.9378C5.38982 16.7757 5.61303 16.6859 5.84485 16.688H18.1449C18.3752 16.6864 18.597 16.7753 18.7623 16.9356C18.9277 17.0959 19.0234 17.3148 19.0289 17.545L19.0349 18.478C19.0358 18.5909 19.0141 18.7028 18.9712 18.8072C18.9283 18.9116 18.865 19.0064 18.7849 19.086C18.6171 19.2535 18.39 19.348 18.153 19.349ZM5.95386 18.358H18.0439V17.679H5.95789L5.95386 18.358Z" fill="#354752"/>
<path d="M18.2239 16.1411H5.77586C5.54453 16.1478 5.31769 16.0761 5.13231 15.9375C4.94693 15.799 4.81392 15.6018 4.75487 15.3781L3.02586 8.03506C2.98173 7.84894 2.99656 7.6537 3.06822 7.47635C3.13988 7.299 3.26485 7.1483 3.42589 7.04507C3.60937 6.92044 3.82602 6.85379 4.04783 6.85379C4.26965 6.85379 4.48642 6.92044 4.6699 7.04507L7.97484 9.30807C7.99385 9.31954 8.01562 9.32559 8.03782 9.32559C8.06003 9.32559 8.08192 9.31954 8.10093 9.30807L11.1319 5.08707C11.2325 4.95186 11.3637 4.84241 11.5148 4.76767C11.6658 4.69293 11.8323 4.65503 12.0008 4.65707C12.1695 4.65487 12.3364 4.69268 12.4877 4.76743C12.6389 4.84217 12.7701 4.95172 12.8708 5.08707L15.9029 9.30807C15.9216 9.32001 15.9433 9.32632 15.9654 9.32632C15.9876 9.32632 16.0093 9.32001 16.0279 9.30807L19.3329 7.04605C19.5164 6.92142 19.7331 6.85477 19.9549 6.85477C20.1768 6.85477 20.3934 6.92142 20.5769 7.04605C20.7378 7.14938 20.8627 7.30013 20.9343 7.47745C21.006 7.65477 21.0209 7.84992 20.9769 8.03604L19.2469 15.3781C19.188 15.6023 19.0546 15.7998 18.8688 15.9384C18.6829 16.077 18.4556 16.1485 18.2239 16.1411ZM4.04893 7.84103C4.02317 7.84039 3.99797 7.84894 3.97789 7.86508L5.71983 15.148H18.2198L20.0019 7.82205C19.9869 7.84505 19.9329 7.82804 19.8879 7.85904L16.5879 10.122C16.3553 10.2796 16.0713 10.3421 15.7941 10.297C15.5168 10.2518 15.2674 10.1023 15.0969 9.87906L12.0649 5.65903H11.9369L8.90489 9.88003C8.73438 10.1032 8.48498 10.2528 8.20775 10.298C7.93051 10.3432 7.64649 10.2806 7.41392 10.1231L4.11387 7.85904C4.09318 7.84652 4.06893 7.84123 4.0449 7.84402L4.04893 7.84103Z" fill="#354752"/>
</svg>
