<svg width="20" height="20" viewBox="0 0 20 20" fill="none" xmlns="http://www.w3.org/2000/svg">
<path d="M10.0001 1.6665C5.40841 1.6665 1.66675 5.39984 1.66675 9.99984C1.66675 14.5998 5.40841 18.3332 10.0001 18.3332C14.5917 18.3332 18.3334 14.5915 18.3334 9.99984C18.3334 5.40817 14.5917 1.6665 10.0001 1.6665ZM10.0001 17.4998C5.86675 17.4998 2.50008 14.1332 2.50008 9.99984C2.50008 5.8665 5.86675 2.49984 10.0001 2.49984C14.1334 2.49984 17.5001 5.8665 17.5001 9.99984C17.5001 14.1332 14.1334 17.4998 10.0001 17.4998Z" fill="#8798A1"/>
<path d="M12.9669 13.3915C12.8585 13.3915 12.7502 13.3498 12.6752 13.2665L9.7002 10.2915C9.6252 10.2165 9.5752 10.1081 9.5752 9.9998V6.59147C9.5752 6.35814 9.75853 6.1748 9.99186 6.1748C10.2252 6.1748 10.4085 6.35814 10.4085 6.59147V9.82481L13.2585 12.6748C13.4252 12.8415 13.4252 13.0998 13.2585 13.2665C13.1752 13.3498 13.0669 13.3915 12.9669 13.3915Z" fill="#8798A1"/>
</svg>
