<svg width="24" height="24" viewBox="0 0 24 24" fill="none" xmlns="http://www.w3.org/2000/svg">
<path d="M20.9998 5.6647C20.9998 5.79731 20.947 5.92448 20.8533 6.01825C20.7595 6.11202 20.6324 6.1647 20.4998 6.1647H16.2998C16.1842 6.71832 15.8814 7.21526 15.4425 7.57196C15.0036 7.92866 14.4553 8.12338 13.8898 8.12338C13.3242 8.12338 12.7758 7.92866 12.3369 7.57196C11.898 7.21526 11.5954 6.71832 11.4797 6.1647H3.50977C3.37716 6.1647 3.25002 6.11202 3.15625 6.01825C3.06248 5.92448 3.00977 5.79731 3.00977 5.6647C3.00977 5.5321 3.06248 5.40493 3.15625 5.31116C3.25002 5.21739 3.37716 5.1647 3.50977 5.1647H11.4797C11.5954 4.61108 11.898 4.11415 12.3369 3.75745C12.7758 3.40075 13.3242 3.20605 13.8898 3.20605C14.4553 3.20605 15.0036 3.40075 15.4425 3.75745C15.8814 4.11415 16.1842 4.61108 16.2998 5.1647H20.4998C20.6324 5.1647 20.7595 5.21739 20.8533 5.31116C20.947 5.40493 20.9998 5.5321 20.9998 5.6647Z" fill="#607079"/>
<path d="M20.9939 11.9949C20.9939 12.1275 20.9412 12.2547 20.8474 12.3485C20.7536 12.4422 20.6265 12.4949 20.4939 12.4949H11.7139C11.6 13.0514 11.2976 13.5515 10.8575 13.9106C10.4175 14.2698 9.86683 14.4659 9.29883 14.4659C8.73083 14.4659 8.18028 14.2698 7.74023 13.9106C7.30019 13.5515 6.99773 13.0514 6.88391 12.4949H3.50391C3.3713 12.4949 3.24404 12.4422 3.15027 12.3485C3.0565 12.2547 3.00391 12.1275 3.00391 11.9949C3.00391 11.8623 3.0565 11.7351 3.15027 11.6414C3.24404 11.5476 3.3713 11.4949 3.50391 11.4949H6.88391C7.00062 10.9409 7.30431 10.4438 7.74402 10.0871C8.18372 9.73034 8.73262 9.53564 9.29883 9.53564C9.86504 9.53564 10.4141 9.73034 10.8538 10.0871C11.2935 10.4438 11.5972 10.9409 11.7139 11.4949H20.4939C20.6265 11.4949 20.7536 11.5476 20.8474 11.6414C20.9412 11.7351 20.9939 11.8623 20.9939 11.9949Z" fill="#607079"/>
<path d="M20.9939 18.3347C20.9939 18.4673 20.9412 18.5944 20.8474 18.6882C20.7536 18.782 20.6265 18.8347 20.4939 18.8347H19.0739C18.9582 19.3883 18.6556 19.8852 18.2167 20.2419C17.7778 20.5986 17.2294 20.7933 16.6638 20.7933C16.0983 20.7933 15.55 20.5986 15.1111 20.2419C14.6722 19.8852 14.3695 19.3883 14.2539 18.8347H3.50391C3.3713 18.8347 3.24404 18.782 3.15027 18.6882C3.0565 18.5944 3.00391 18.4673 3.00391 18.3347C3.00391 18.202 3.0565 18.0748 3.15027 17.9811C3.24404 17.8873 3.3713 17.8347 3.50391 17.8347H14.2539C14.3695 17.281 14.6722 16.7841 15.1111 16.4274C15.55 16.0707 16.0983 15.876 16.6638 15.876C17.2294 15.876 17.7778 16.0707 18.2167 16.4274C18.6556 16.7841 18.9582 17.281 19.0739 17.8347H20.4939C20.6265 17.8347 20.7536 17.8873 20.8474 17.9811C20.9412 18.0748 20.9939 18.202 20.9939 18.3347Z" fill="#607079"/>
</svg>
