<svg width="232" height="219" viewBox="0 0 232 219" fill="none" xmlns="http://www.w3.org/2000/svg">
<g clip-path="url(#clip0_2087_75422)">
<g filter="url(#filter0_d_2087_75422)">
<path d="M212.087 104.126C212.057 129.891 202.069 154.647 184.211 173.219C166.353 191.79 142.007 202.74 116.263 203.778C90.5187 204.816 65.3701 195.862 46.0744 178.789C26.7788 161.715 14.83 137.844 12.7262 112.165C10.6224 86.486 18.5265 60.9879 34.7859 41.0015C51.0453 21.015 74.4013 8.08744 99.9709 4.92153C125.54 1.75562 151.344 8.59644 171.987 24.0138C192.63 39.4312 206.514 62.2315 210.737 87.648C211.64 93.094 212.092 98.6055 212.087 104.126Z" fill="#F4F7FB"/>
</g>
<path d="M44.9494 14.2611C44.9494 14.9375 44.7488 15.5987 44.373 16.1611C43.9972 16.7235 43.4631 17.1619 42.8382 17.4207C42.2132 17.6796 41.5256 17.7473 40.8622 17.6153C40.1988 17.4834 39.5894 17.1577 39.1111 16.6794C38.6328 16.2011 38.3071 15.5917 38.1751 14.9283C38.0431 14.2649 38.1109 13.5772 38.3697 12.9523C38.6286 12.3274 39.0669 11.7932 39.6293 11.4174C40.1917 11.0416 40.853 10.8411 41.5294 10.8411C41.9785 10.8411 42.4232 10.9295 42.8382 11.1014C43.2531 11.2733 43.6301 11.5252 43.9477 11.8428C44.2653 12.1603 44.5172 12.5374 44.689 12.9523C44.8609 13.3672 44.9494 13.8119 44.9494 14.2611" fill="#F4F7FB"/>
<path d="M44.9494 14.2611C44.9494 14.9375 44.7488 15.5987 44.373 16.1611C43.9972 16.7235 43.4631 17.1619 42.8382 17.4207C42.2132 17.6796 41.5256 17.7473 40.8622 17.6153C40.1988 17.4834 39.5894 17.1577 39.1111 16.6794C38.6328 16.2011 38.3071 15.5917 38.1751 14.9283C38.0431 14.2649 38.1109 13.5772 38.3697 12.9523C38.6286 12.3274 39.0669 11.7932 39.6293 11.4174C40.1917 11.0416 40.853 10.8411 41.5294 10.8411C41.9785 10.8411 42.4232 10.9295 42.8382 11.1014C43.2531 11.2733 43.6301 11.5252 43.9477 11.8428C44.2653 12.1603 44.5172 12.5374 44.689 12.9523C44.8609 13.3672 44.9494 13.8119 44.9494 14.2611V14.2611Z" stroke="#F4F7FB" stroke-width="0.668" stroke-miterlimit="10"/>
<path d="M27.8904 21.752C29.6082 23.4698 30.778 25.6585 31.2519 28.0411C31.7258 30.4238 31.4825 32.8935 30.5529 35.1379C29.6232 37.3823 28.0488 39.3006 26.0289 40.6503C24.009 41.9999 21.6342 42.7203 19.2049 42.7203C16.7755 42.7203 14.4008 41.9999 12.3808 40.6503C10.3609 39.3006 8.78658 37.3823 7.8569 35.1379C6.92722 32.8935 6.68396 30.4238 7.15787 28.0411C7.63179 25.6585 8.8016 23.4698 10.5194 21.752C11.66 20.6114 13.014 19.7066 14.5043 19.0893C15.9946 18.472 17.5918 18.1543 19.2049 18.1543C20.8179 18.1543 22.4152 18.472 23.9055 19.0893C25.3957 19.7066 26.7498 20.6114 27.8904 21.752Z" fill="#F4F7FB"/>
<path d="M27.8904 21.752C29.6082 23.4698 30.778 25.6585 31.2519 28.0411C31.7258 30.4238 31.4825 32.8935 30.5529 35.1379C29.6232 37.3823 28.0488 39.3006 26.0289 40.6503C24.009 41.9999 21.6342 42.7203 19.2049 42.7203C16.7755 42.7203 14.4008 41.9999 12.3808 40.6503C10.3609 39.3006 8.78658 37.3823 7.8569 35.1379C6.92722 32.8935 6.68396 30.4238 7.15787 28.0411C7.63179 25.6585 8.8016 23.4698 10.5194 21.752C11.66 20.6114 13.014 19.7066 14.5043 19.0893C15.9946 18.472 17.5918 18.1543 19.2049 18.1543C20.8179 18.1543 22.4152 18.472 23.9055 19.0893C25.3957 19.7066 26.7498 20.6114 27.8904 21.752Z" stroke="#F4F7FB" stroke-width="2.4" stroke-miterlimit="10"/>
<g filter="url(#filter1_d_2087_75422)">
<path d="M94.053 58.0722C93.8653 58.0724 93.6799 58.0311 93.51 57.9512C93.3959 57.9101 93.2928 57.8433 93.2088 57.7559C93.1247 57.6685 93.0619 57.5629 93.0252 57.4473C92.9885 57.3317 92.979 57.2093 92.9974 57.0894C93.0157 56.9695 93.0615 56.8555 93.131 56.7562L96.999 51.4362C97.1746 51.2288 97.4143 51.086 97.6802 51.0302C97.9461 50.9744 98.2229 51.0089 98.467 51.1282C98.581 51.1693 98.6839 51.2361 98.7679 51.3234C98.8519 51.4107 98.9146 51.5162 98.9513 51.6316C98.9879 51.7471 98.9975 51.8694 98.9792 51.9892C98.961 52.1089 98.9154 52.2229 98.846 52.3222L94.982 57.6462C94.8715 57.7843 94.7304 57.8949 94.5699 57.9693C94.4094 58.0437 94.2339 58.08 94.057 58.0752" fill="white"/>
</g>
<g filter="url(#filter2_d_2087_75422)">
<path d="M98.0761 58.0721C97.8876 58.0722 97.7015 58.0306 97.5311 57.9501C97.4172 57.9087 97.3144 57.8416 97.2307 57.7541C97.1469 57.6666 97.0845 57.5609 97.0481 57.4454C97.0117 57.3298 97.0025 57.2074 97.021 57.0877C97.0396 56.968 97.0854 56.8542 97.1551 56.7551L101.021 51.4321C101.196 51.2242 101.436 51.081 101.702 51.0256C101.968 50.9701 102.245 51.0055 102.489 51.1261C102.603 51.1673 102.706 51.2343 102.789 51.3217C102.873 51.4091 102.936 51.5147 102.972 51.6302C103.008 51.7456 103.018 51.868 102.999 51.9876C102.981 52.1072 102.935 52.221 102.865 52.3201L99.0001 57.6471C98.8899 57.785 98.7491 57.8955 98.589 57.9697C98.4288 58.044 98.2536 58.0801 98.0771 58.0751" fill="white"/>
</g>
<g filter="url(#filter3_d_2087_75422)">
<path d="M102.564 58.0721C102.376 58.0722 102.19 58.0305 102.019 57.9501C101.906 57.9087 101.803 57.8416 101.719 57.7541C101.635 57.6666 101.573 57.5609 101.536 57.4454C101.5 57.3298 101.491 57.2074 101.509 57.0877C101.528 56.968 101.574 56.8542 101.643 56.7551L105.509 51.4321C105.685 51.2242 105.924 51.081 106.191 51.0256C106.457 50.9701 106.734 51.0055 106.977 51.1261C107.091 51.1673 107.194 51.2343 107.278 51.3217C107.361 51.4091 107.424 51.5147 107.46 51.6302C107.497 51.7456 107.506 51.868 107.487 51.9876C107.469 52.1072 107.423 52.221 107.353 52.3201L103.487 57.6441C103.377 57.782 103.236 57.8925 103.076 57.9667C102.916 58.041 102.741 58.0771 102.564 58.0721" fill="white"/>
</g>
<g filter="url(#filter4_d_2087_75422)">
<path d="M174.606 121.038V155.188C174.606 171.818 160.586 185.338 143.345 185.338H96.0131L77.6931 203.088C77.1282 203.634 76.415 204.001 75.6425 204.145C74.87 204.288 74.0724 204.201 73.3493 203.893C72.6261 203.586 72.0094 203.073 71.5762 202.417C71.143 201.762 70.9123 200.994 70.9131 200.208V180.358C66.5871 177.731 63.0084 174.037 60.5201 169.629C58.0319 165.222 56.7176 160.249 56.7031 155.188V121.038C56.7031 104.358 70.7231 90.7979 87.9631 90.7979H143.342C160.583 90.7979 174.603 104.358 174.603 121.038" fill="white"/>
</g>
<g filter="url(#filter5_d_2087_75422)">
<path d="M50.8933 73.771H38.4933C36.6787 73.7752 34.9399 74.499 33.6582 75.7835C32.3765 77.068 31.6566 78.8084 31.6563 80.623V88.604C31.6521 89.755 31.9428 90.8879 32.5007 91.8946C33.0586 92.9014 33.8651 93.7484 34.8433 94.355V99.121C34.8419 99.2644 34.884 99.4049 34.9642 99.5238C35.0444 99.6428 35.1588 99.7345 35.2923 99.787C35.378 99.828 35.4723 99.8479 35.5673 99.845C35.6623 99.8463 35.7565 99.8277 35.8438 99.7903C35.9312 99.7529 36.0097 99.6976 36.0743 99.628L40.2313 95.441H50.8933C52.7055 95.4376 54.4425 94.7161 55.724 93.4347C57.0054 92.1533 57.7269 90.4162 57.7303 88.604V80.623C57.73 78.8084 57.0101 77.068 55.7284 75.7835C54.4467 74.499 52.7079 73.7752 50.8933 73.771V73.771ZM40.1453 85.287C40.09 85.4162 40.0113 85.5342 39.9133 85.635C39.7132 85.8239 39.4495 85.931 39.1743 85.935C38.8937 85.9372 38.6235 85.8295 38.4213 85.635C38.3229 85.5345 38.2443 85.4164 38.1893 85.287C38.137 85.1582 38.1121 85.0199 38.1163 84.881C38.1105 84.741 38.1348 84.6014 38.1874 84.4715C38.24 84.3416 38.3197 84.2245 38.4213 84.128C38.5111 84.0176 38.632 83.9368 38.7683 83.896C38.8937 83.8382 39.0302 83.8083 39.1683 83.8083C39.3064 83.8083 39.4429 83.8382 39.5683 83.896C39.7067 83.9329 39.829 84.0144 39.9163 84.128C40.0169 84.2259 40.0968 84.343 40.1514 84.4724C40.206 84.6017 40.2342 84.7406 40.2343 84.881C40.2333 85.0207 40.2041 85.1588 40.1483 85.287H40.1453ZM45.6813 85.287C45.6209 85.4134 45.5427 85.5306 45.4493 85.635C45.2441 85.8248 44.9758 85.9317 44.6963 85.935C44.4163 85.9345 44.147 85.8272 43.9433 85.635C43.8498 85.5306 43.7717 85.4134 43.7113 85.287C43.659 85.1582 43.6341 85.0199 43.6383 84.881C43.6359 84.7414 43.6617 84.6028 43.7141 84.4734C43.7665 84.3441 43.8445 84.2266 43.9433 84.128C44.0357 84.0205 44.1557 83.9403 44.2903 83.896C44.418 83.8387 44.5563 83.809 44.6963 83.809C44.8363 83.809 44.9746 83.8387 45.1023 83.896C45.2369 83.9403 45.3569 84.0205 45.4493 84.128C45.6415 84.3317 45.7488 84.601 45.7493 84.881C45.7538 85.0199 45.7292 85.1581 45.6773 85.287H45.6813ZM51.1963 85.258C51.1448 85.3849 51.0656 85.4987 50.9643 85.591C50.8665 85.6918 50.7494 85.7719 50.6201 85.8267C50.4908 85.8815 50.3518 85.9098 50.2113 85.91C50.0729 85.9097 49.9361 85.8812 49.809 85.8264C49.682 85.7716 49.5674 85.6915 49.4723 85.591C49.3713 85.4985 49.2921 85.3848 49.2403 85.258C49.1852 85.1296 49.1557 84.9917 49.1533 84.852C49.1489 84.7109 49.1752 84.5705 49.2302 84.4405C49.2853 84.3105 49.3679 84.194 49.4723 84.099C49.5596 83.9854 49.6819 83.9039 49.8203 83.867C49.9459 83.8097 50.0823 83.7801 50.2203 83.7801C50.3583 83.7801 50.4947 83.8097 50.6203 83.867C50.7566 83.9078 50.8775 83.9886 50.9673 84.099C51.1621 84.301 51.2698 84.5714 51.2673 84.852C51.2705 84.9908 51.246 85.1288 51.1953 85.258" fill="white"/>
</g>
<path d="M51.262 84.8471C51.2646 84.9861 51.2402 85.1244 51.19 85.2541C51.1377 85.3806 51.0585 85.4942 50.958 85.5871C50.8598 85.6873 50.7426 85.767 50.6134 85.8216C50.4841 85.8762 50.3453 85.9045 50.205 85.9051C50.0667 85.9047 49.93 85.8763 49.8029 85.8217C49.6759 85.767 49.5613 85.6872 49.466 85.5871C49.3652 85.4944 49.2859 85.3808 49.234 85.2541C49.179 85.1253 49.1494 84.9871 49.147 84.8471C49.1425 84.706 49.1686 84.5655 49.2237 84.4355C49.2788 84.3055 49.3615 84.189 49.466 84.0941C49.5528 83.9807 49.6749 83.8995 49.813 83.8631C49.9383 83.8048 50.0748 83.7747 50.213 83.7747C50.3512 83.7747 50.4877 83.8048 50.613 83.8631C50.7498 83.9029 50.8712 83.9835 50.961 84.0941C51.1552 84.2964 51.2629 84.5666 51.261 84.8471" fill="#F4F7FB"/>
<path d="M45.7443 84.8762C45.7486 85.015 45.7241 85.1532 45.6723 85.2822C45.6121 85.4084 45.5339 85.5253 45.4403 85.6292C45.236 85.821 44.9675 85.9297 44.6873 85.9342C44.4062 85.9325 44.1364 85.8234 43.9333 85.6292C43.8396 85.5253 43.7615 85.4084 43.7013 85.2822C43.65 85.1531 43.6255 85.015 43.6293 84.8762C43.6262 84.7369 43.6511 84.5985 43.7027 84.4691C43.7542 84.3398 43.8313 84.2221 43.9293 84.1232C44.0222 84.0158 44.1425 83.9356 44.2773 83.8912C44.4048 83.8338 44.543 83.8042 44.6828 83.8042C44.8226 83.8042 44.9608 83.8338 45.0883 83.8912C45.2232 83.9354 45.3435 84.0156 45.4363 84.1232C45.6285 84.3268 45.7358 84.5961 45.7363 84.8762" fill="#F4F7FB"/>
<path d="M40.2234 84.8759C40.2224 85.0158 40.1928 85.1539 40.1364 85.2819C40.0817 85.4112 40.003 85.5289 39.9044 85.6289C39.706 85.8205 39.4422 85.9296 39.1664 85.9339C38.8848 85.935 38.6141 85.8255 38.4124 85.6289C38.3142 85.5287 38.2355 85.411 38.1804 85.2819C38.1291 85.1529 38.1046 85.0147 38.1084 84.8759C38.1021 84.7363 38.1256 84.5969 38.1773 84.4671C38.229 84.3373 38.3078 84.2199 38.4084 84.1229C38.4986 84.0125 38.6198 83.9317 38.7564 83.8909C38.8819 83.8331 39.0183 83.8032 39.1564 83.8032C39.2945 83.8032 39.431 83.8331 39.5564 83.8909C39.6945 83.9279 39.8165 84.0094 39.9034 84.1229C40.0042 84.2208 40.0844 84.3378 40.1392 84.4671C40.194 84.5965 40.2223 84.7355 40.2224 84.8759" fill="#F4F7FB"/>
<path d="M176.508 152.783H198.223L212.668 126.06H229.508" stroke="#C8D3D9" stroke-width="3" stroke-linecap="round" stroke-linejoin="round"/>
<path d="M55.4883 154.317H33.7723L19.3273 127.592H2.48828" stroke="#C8D3D9" stroke-width="3" stroke-linecap="round" stroke-linejoin="round"/>
<path d="M99.9494 140.956C99.9494 142.572 99.4702 144.152 98.5725 145.495C97.6748 146.839 96.3988 147.886 94.9059 148.504C93.413 149.123 91.7703 149.284 90.1855 148.969C88.6007 148.654 87.1449 147.876 86.0023 146.733C84.8597 145.591 84.0816 144.135 83.7664 142.55C83.4511 140.965 83.6129 139.322 84.2313 137.83C84.8497 136.337 85.8968 135.061 87.2404 134.163C88.5839 133.265 90.1635 132.786 91.7794 132.786C93.9462 132.786 96.0243 133.647 97.5564 135.179C99.0886 136.711 99.9494 138.789 99.9494 140.956" fill="#C8D3D9"/>
<path d="M154.533 140.956C154.533 142.572 154.054 144.152 153.156 145.495C152.259 146.839 150.983 147.886 149.49 148.504C147.997 149.123 146.354 149.284 144.769 148.969C143.185 148.654 141.729 147.876 140.586 146.733C139.444 145.591 138.666 144.135 138.35 142.55C138.035 140.965 138.197 139.322 138.815 137.83C139.434 136.337 140.481 135.061 141.824 134.163C143.168 133.265 144.747 132.786 146.363 132.786C148.53 132.786 150.608 133.647 152.14 135.179C153.673 136.711 154.533 138.789 154.533 140.956Z" fill="#C8D3D9"/>
<path d="M115.092 148.305H123.051" stroke="#C8D3D9" stroke-width="3" stroke-linecap="round" stroke-linejoin="round"/>
<g filter="url(#filter6_d_2087_75422)">
<path d="M190.885 34.5321C186.627 28.9877 180.538 25.1356 173.705 23.6625C166.871 22.1893 159.736 23.1909 153.572 26.4886C147.408 29.7863 142.616 35.1659 140.049 41.6683C137.482 48.1707 137.308 55.3733 139.557 61.9923C141.807 68.6112 146.333 74.2162 152.331 77.8081C158.328 81.4 165.406 82.7453 172.303 81.6044C179.2 80.4634 185.468 76.9102 189.989 71.5782C194.51 66.2462 196.99 59.4819 196.988 52.4912C196.992 45.9953 194.846 39.6807 190.885 34.5321V34.5321ZM167.466 68.91C166.866 68.9075 166.28 68.7275 165.782 68.3925C165.284 68.0576 164.897 67.5827 164.668 67.0278C164.44 66.4729 164.381 65.8627 164.498 65.2743C164.616 64.6859 164.906 64.1455 165.33 63.7212C165.754 63.297 166.295 63.0079 166.883 62.8904C167.472 62.7729 168.082 62.8322 168.637 63.0609C169.192 63.2896 169.666 63.6775 170.001 64.1755C170.336 64.6736 170.516 65.2596 170.518 65.8597C170.516 66.6683 170.193 67.4431 169.622 68.0147C169.05 68.5863 168.275 68.9082 167.466 68.91V68.91ZM170.753 58.4923C170.627 59.6486 169.146 60.5328 167.466 60.5328C165.786 60.5328 164.325 59.6486 164.181 58.4923L163.693 54.4861L162.212 42.4673C162.061 41.7211 162.07 40.9512 162.239 40.2089C162.409 39.4666 162.735 38.7691 163.196 38.163C163.657 37.5568 164.242 37.0561 164.912 36.6942C165.582 36.3323 166.321 36.1176 167.081 36.0644C167.84 36.0113 168.602 36.1209 169.316 36.386C170.03 36.651 170.679 37.0654 171.22 37.6014C171.76 38.1375 172.181 38.7828 172.452 39.4942C172.723 40.2056 172.84 40.9668 172.793 41.7268C172.802 41.9748 172.784 42.2231 172.739 42.4673L172.125 47.4323L170.753 58.4923Z" fill="#C8D3D9"/>
</g>
</g>
<defs>
<filter id="filter0_d_2087_75422" x="6.39258" y="3.16455" width="211.693" height="211.694" filterUnits="userSpaceOnUse" color-interpolation-filters="sRGB">
<feFlood flood-opacity="0" result="BackgroundImageFix"/>
<feColorMatrix in="SourceAlpha" type="matrix" values="0 0 0 0 0 0 0 0 0 0 0 0 0 0 0 0 0 0 127 0" result="hardAlpha"/>
<feOffset dy="5"/>
<feGaussianBlur stdDeviation="3"/>
<feColorMatrix type="matrix" values="0 0 0 0 0.784314 0 0 0 0 0.827451 0 0 0 0 0.85098 0 0 0 0.302 0"/>
<feBlend mode="normal" in2="BackgroundImageFix" result="effect1_dropShadow_2087_75422"/>
<feBlend mode="normal" in="SourceGraphic" in2="effect1_dropShadow_2087_75422" result="shape"/>
</filter>
<filter id="filter1_d_2087_75422" x="86.9883" y="48.0042" width="18" height="19.0715" filterUnits="userSpaceOnUse" color-interpolation-filters="sRGB">
<feFlood flood-opacity="0" result="BackgroundImageFix"/>
<feColorMatrix in="SourceAlpha" type="matrix" values="0 0 0 0 0 0 0 0 0 0 0 0 0 0 0 0 0 0 127 0" result="hardAlpha"/>
<feOffset dy="3"/>
<feGaussianBlur stdDeviation="3"/>
<feColorMatrix type="matrix" values="0 0 0 0 0.784314 0 0 0 0 0.827451 0 0 0 0 0.85098 0 0 0 0.302 0"/>
<feBlend mode="normal" in2="BackgroundImageFix" result="effect1_dropShadow_2087_75422"/>
<feBlend mode="normal" in="SourceGraphic" in2="effect1_dropShadow_2087_75422" result="shape"/>
</filter>
<filter id="filter2_d_2087_75422" x="91.0117" y="48" width="17.9961" height="19.0754" filterUnits="userSpaceOnUse" color-interpolation-filters="sRGB">
<feFlood flood-opacity="0" result="BackgroundImageFix"/>
<feColorMatrix in="SourceAlpha" type="matrix" values="0 0 0 0 0 0 0 0 0 0 0 0 0 0 0 0 0 0 127 0" result="hardAlpha"/>
<feOffset dy="3"/>
<feGaussianBlur stdDeviation="3"/>
<feColorMatrix type="matrix" values="0 0 0 0 0.784314 0 0 0 0 0.827451 0 0 0 0 0.85098 0 0 0 0.302 0"/>
<feBlend mode="normal" in2="BackgroundImageFix" result="effect1_dropShadow_2087_75422"/>
<feBlend mode="normal" in="SourceGraphic" in2="effect1_dropShadow_2087_75422" result="shape"/>
</filter>
<filter id="filter3_d_2087_75422" x="95.5" y="48" width="17.9961" height="19.0725" filterUnits="userSpaceOnUse" color-interpolation-filters="sRGB">
<feFlood flood-opacity="0" result="BackgroundImageFix"/>
<feColorMatrix in="SourceAlpha" type="matrix" values="0 0 0 0 0 0 0 0 0 0 0 0 0 0 0 0 0 0 127 0" result="hardAlpha"/>
<feOffset dy="3"/>
<feGaussianBlur stdDeviation="3"/>
<feColorMatrix type="matrix" values="0 0 0 0 0.784314 0 0 0 0 0.827451 0 0 0 0 0.85098 0 0 0 0.302 0"/>
<feBlend mode="normal" in2="BackgroundImageFix" result="effect1_dropShadow_2087_75422"/>
<feBlend mode="normal" in="SourceGraphic" in2="effect1_dropShadow_2087_75422" result="shape"/>
</filter>
<filter id="filter4_d_2087_75422" x="50.7031" y="87.7979" width="129.902" height="125.414" filterUnits="userSpaceOnUse" color-interpolation-filters="sRGB">
<feFlood flood-opacity="0" result="BackgroundImageFix"/>
<feColorMatrix in="SourceAlpha" type="matrix" values="0 0 0 0 0 0 0 0 0 0 0 0 0 0 0 0 0 0 127 0" result="hardAlpha"/>
<feOffset dy="3"/>
<feGaussianBlur stdDeviation="3"/>
<feColorMatrix type="matrix" values="0 0 0 0 0.784314 0 0 0 0 0.827451 0 0 0 0 0.85098 0 0 0 0.302 0"/>
<feBlend mode="normal" in2="BackgroundImageFix" result="effect1_dropShadow_2087_75422"/>
<feBlend mode="normal" in="SourceGraphic" in2="effect1_dropShadow_2087_75422" result="shape"/>
</filter>
<filter id="filter5_d_2087_75422" x="25.6562" y="70.771" width="38.0742" height="38.0742" filterUnits="userSpaceOnUse" color-interpolation-filters="sRGB">
<feFlood flood-opacity="0" result="BackgroundImageFix"/>
<feColorMatrix in="SourceAlpha" type="matrix" values="0 0 0 0 0 0 0 0 0 0 0 0 0 0 0 0 0 0 127 0" result="hardAlpha"/>
<feOffset dy="3"/>
<feGaussianBlur stdDeviation="3"/>
<feColorMatrix type="matrix" values="0 0 0 0 0.784314 0 0 0 0 0.827451 0 0 0 0 0.85098 0 0 0 0.302 0"/>
<feBlend mode="normal" in2="BackgroundImageFix" result="effect1_dropShadow_2087_75422"/>
<feBlend mode="normal" in="SourceGraphic" in2="effect1_dropShadow_2087_75422" result="shape"/>
</filter>
<filter id="filter6_d_2087_75422" x="131.988" y="20" width="71" height="71" filterUnits="userSpaceOnUse" color-interpolation-filters="sRGB">
<feFlood flood-opacity="0" result="BackgroundImageFix"/>
<feColorMatrix in="SourceAlpha" type="matrix" values="0 0 0 0 0 0 0 0 0 0 0 0 0 0 0 0 0 0 127 0" result="hardAlpha"/>
<feOffset dy="3"/>
<feGaussianBlur stdDeviation="3"/>
<feColorMatrix type="matrix" values="0 0 0 0 0.784314 0 0 0 0 0.827451 0 0 0 0 0.85098 0 0 0 0.302 0"/>
<feBlend mode="normal" in2="BackgroundImageFix" result="effect1_dropShadow_2087_75422"/>
<feBlend mode="normal" in="SourceGraphic" in2="effect1_dropShadow_2087_75422" result="shape"/>
</filter>
<clipPath id="clip0_2087_75422">
<rect width="230.022" height="218.238" fill="white" transform="translate(0.988281)"/>
</clipPath>
</defs>
</svg>
