<svg width="25" height="24" viewBox="0 0 25 24" fill="none" xmlns="http://www.w3.org/2000/svg">
<path d="M20.0489 18.8457L16.0754 14.9229C16.0754 14.9229 16.0221 14.8778 15.9954 14.8598C16.9377 13.6513 17.4532 12.1634 17.4266 10.6033C17.3999 8.81769 16.6977 7.14034 15.4354 5.89585C14.1731 4.65137 12.4931 3.95698 10.7508 4.00207C8.99073 4.02912 7.34623 4.74154 6.11953 6.02209C3.57722 8.66437 3.63945 12.9028 6.23509 15.482C7.47957 16.7084 9.10629 17.3758 10.8308 17.3758H10.9286C12.4664 17.3487 13.9242 16.8076 15.0798 15.8066C15.1065 15.8337 15.1243 15.8607 15.1509 15.8878L19.1155 19.8106C19.2488 19.9369 19.4177 20 19.5866 20C19.7555 20 19.9333 19.9369 20.0578 19.8016C20.3155 19.5311 20.3155 19.1072 20.0489 18.8457V18.8457ZM10.9108 16.0231C9.51519 16.0231 8.18182 15.5 7.16845 14.508C5.08838 12.461 5.04394 9.07019 7.07067 6.969C8.10181 5.89586 9.47075 5.35477 10.8397 5.35477C12.2086 5.35477 13.4887 5.85977 14.502 6.86979C16.5821 8.91687 16.6265 12.2986 14.5998 14.4089C13.622 15.4279 12.3153 16.005 10.9108 16.0231Z" fill="#13968E"/>
</svg>
