<svg width="24" height="24" viewBox="0 0 24 24" fill="none" xmlns="http://www.w3.org/2000/svg">
<path d="M7.00018 18.1068L10.8221 13.3658C11.1106 13.0085 11.54 12.8035 12.0002 12.8035C12.4604 12.8035 12.8898 13.0085 13.1786 13.3663L17.0002 18.1058V6.05499C17.0002 5.48315 16.6105 5 16.1492 5H7.85117C7.38989 5 7.00018 5.48315 7.00018 6.05499V18.1068ZM17.4837 20.0001C17.3404 20.0001 17.195 19.9407 17.0882 19.808L12.4002 13.994C12.1952 13.7402 11.8052 13.7402 11.6002 13.994L6.91318 19.808C6.61121 20.1832 6.00018 19.9721 6.00018 19.492V6.05499C6.00018 4.92505 6.83316 4 7.85117 4H16.1492C17.1672 4 18.0002 4.92505 18.0002 6.05499V19.492C18.0002 19.8022 17.7455 20.0001 17.4837 20.0001Z" fill="#354752"/>
</svg>
