<svg width="25" height="24" viewBox="0 0 25 24" fill="none" xmlns="http://www.w3.org/2000/svg">
<path d="M20.32 15.6402L19.87 15.2002C19.63 14.9702 19.54 14.8902 19.44 14.8002L19.36 14.7302C18.89 14.2702 18.64 14.0102 18.52 13.6802C18.46 13.5002 18.44 13.3602 18.43 13.2302C18.35 12.4702 18.37 11.8302 18.39 11.2102C18.41 10.7602 18.42 10.3302 18.4 9.87023C18.37 9.38023 18.34 8.87023 18.15 8.24023C17.56 6.31023 16.02 5.32023 15.55 5.06023C15.37 4.96023 15.03 4.79024 14.56 4.64024C14.43 3.40024 13.68 2.49023 12.75 2.49023C11.82 2.49023 11.07 3.40024 10.94 4.64024C10.47 4.79024 10.14 4.96023 9.95001 5.06023C9.87001 5.10023 7.98 6.18023 7.36 8.24023C7.17 8.86023 7.13 9.35023 7.11 9.87023C7.09 10.3402 7.1 10.7902 7.11 11.2602C7.13 11.8602 7.15 12.4902 7.07 13.2402C7.07 13.3602 7.05001 13.5002 6.99001 13.6702C6.87001 14.0202 6.6 14.2802 6.14 14.7302L5.99001 14.8702C5.91001 14.9402 5.81 15.0302 5.63 15.2102L5.17 15.6602C4.75 16.1002 4.65 16.8502 4.85 17.9502C4.9 18.1902 5.10001 18.3602 5.34001 18.3602H10.05C10.03 18.4902 10.02 18.6202 10.02 18.7602C10.02 20.2702 11.24 21.5002 12.75 21.5002C14.26 21.5002 15.49 20.2702 15.49 18.7602C15.49 18.6202 15.48 18.4902 15.46 18.3602H20.16C20.4 18.3602 20.61 18.1902 20.65 17.9502C20.86 16.8502 20.75 16.1002 20.32 15.6402V15.6402ZM12.75 3.50023C13.05 3.50023 13.36 3.87023 13.5 4.42023C13.27 4.39023 13.02 4.37023 12.76 4.37023C12.5 4.37023 12.25 4.39023 12.01 4.42023C12.15 3.87023 12.47 3.50023 12.76 3.50023H12.75ZM12.75 20.5002C11.79 20.5002 11.02 19.7202 11.02 18.7602C11.02 18.6202 11.04 18.4902 11.07 18.3602H14.43C14.47 18.4902 14.49 18.6202 14.49 18.7602C14.49 19.7202 13.71 20.5002 12.75 20.5002ZM19.73 17.3602H5.77001C5.69001 16.6102 5.86001 16.3902 5.88001 16.3602L6.33 15.9202C6.5 15.7602 6.59001 15.6802 6.66001 15.6202C6.73001 15.5602 6.78 15.5102 6.85 15.4402C7.35 14.9502 7.74 14.5702 7.93 14.0002C8.03 13.7302 8.06 13.5102 8.07 13.3202C8.15 12.5202 8.13 11.8702 8.11 11.2302C8.1 10.7902 8.09 10.3702 8.11 9.92023C8.13 9.43023 8.16001 9.04024 8.31001 8.53024C8.82001 6.86024 10.42 5.94023 10.44 5.93023C10.53 5.88023 10.72 5.78023 10.98 5.68023C11.23 5.59023 11.56 5.49023 11.94 5.43023C12.18 5.39023 12.46 5.36023 12.75 5.36023C13.04 5.36023 13.31 5.39023 13.55 5.43023C13.93 5.49023 14.26 5.59023 14.52 5.68023C14.76 5.78023 14.95 5.87023 15.06 5.93023C15.33 6.08023 16.69 6.92024 17.18 8.53024C17.33 9.01024 17.36 9.38023 17.39 9.93023C17.41 10.3502 17.4 10.7602 17.38 11.1802C17.36 11.8302 17.34 12.5102 17.43 13.3502C17.45 13.5302 17.48 13.7402 17.56 14.0002C17.77 14.5902 18.16 14.9602 18.66 15.4502L18.76 15.5402C18.85 15.6302 18.93 15.7002 19.16 15.9202L19.6 16.3502C19.6 16.3502 19.8 16.6102 19.72 17.3602H19.73Z" fill="#13968E"/>
</svg>
