<svg width="25" height="24" viewBox="0 0 25 24" fill="none" xmlns="http://www.w3.org/2000/svg">
<path d="M20.32 15.64L19.87 15.2C19.63 14.97 19.54 14.89 19.44 14.8L19.36 14.73C18.89 14.27 18.64 14.01 18.52 13.68C18.46 13.5 18.44 13.36 18.43 13.23C18.35 12.47 18.37 11.83 18.39 11.21C18.41 10.76 18.42 10.33 18.4 9.86999C18.37 9.37999 18.34 8.86999 18.15 8.23999C17.56 6.30999 16.02 5.31999 15.55 5.05999C15.37 4.95999 15.03 4.78999 14.56 4.63999C14.43 3.39999 13.68 2.48999 12.75 2.48999C11.82 2.48999 11.07 3.39999 10.94 4.63999C10.47 4.78999 10.14 4.95999 9.95001 5.05999C9.87001 5.09999 7.98 6.17999 7.36 8.23999C7.17 8.85999 7.13 9.34999 7.11 9.86999C7.09 10.34 7.1 10.79 7.11 11.26C7.13 11.86 7.15 12.49 7.07 13.24C7.07 13.36 7.05001 13.5 6.99001 13.67C6.87001 14.02 6.6 14.28 6.14 14.73L5.99001 14.87C5.91001 14.94 5.81 15.03 5.63 15.21L5.17 15.66C4.75 16.1 4.65 16.85 4.85 17.95C4.9 18.19 5.10001 18.36 5.34001 18.36H10.05C10.03 18.49 10.02 18.62 10.02 18.76C10.02 20.27 11.24 21.5 12.75 21.5C14.26 21.5 15.49 20.27 15.49 18.76C15.49 18.62 15.48 18.49 15.46 18.36H20.16C20.4 18.36 20.61 18.19 20.65 17.95C20.86 16.85 20.75 16.1 20.32 15.64ZM12.75 3.49998C13.05 3.49998 13.36 3.86999 13.5 4.41999C13.27 4.38999 13.02 4.36999 12.76 4.36999C12.5 4.36999 12.25 4.38999 12.01 4.41999C12.15 3.86999 12.47 3.49998 12.76 3.49998H12.75ZM12.75 20.5C11.79 20.5 11.02 19.72 11.02 18.76C11.02 18.62 11.04 18.49 11.07 18.36H14.43C14.47 18.49 14.49 18.62 14.49 18.76C14.49 19.72 13.71 20.5 12.75 20.5ZM19.73 17.36H5.77001C5.69001 16.61 5.86001 16.39 5.88001 16.36L6.33 15.92C6.5 15.76 6.59001 15.68 6.66001 15.62C6.73001 15.56 6.78 15.51 6.85 15.44C7.35 14.95 7.74 14.57 7.93 14C8.03 13.73 8.06 13.51 8.07 13.32C8.15 12.52 8.13 11.87 8.11 11.23C8.1 10.79 8.09 10.37 8.11 9.91999C8.13 9.42999 8.16001 9.03999 8.31001 8.52999C8.82001 6.85999 10.42 5.93999 10.44 5.92999C10.53 5.87999 10.72 5.77998 10.98 5.67999C11.23 5.58999 11.56 5.48998 11.94 5.42999C12.18 5.38999 12.46 5.35999 12.75 5.35999C13.04 5.35999 13.31 5.38999 13.55 5.42999C13.93 5.48998 14.26 5.58999 14.52 5.67999C14.76 5.77998 14.95 5.86999 15.06 5.92999C15.33 6.07999 16.69 6.91999 17.18 8.52999C17.33 9.00999 17.36 9.37998 17.39 9.92999C17.41 10.35 17.4 10.76 17.38 11.18C17.36 11.83 17.34 12.51 17.43 13.35C17.45 13.53 17.48 13.74 17.56 14C17.77 14.59 18.16 14.96 18.66 15.45L18.76 15.54C18.85 15.63 18.93 15.7 19.16 15.92L19.6 16.35C19.6 16.35 19.8 16.61 19.72 17.36H19.73Z" fill="#8798A1"/>
</svg>
