<svg width="20" height="20" viewBox="0 0 20 20" fill="none" xmlns="http://www.w3.org/2000/svg">
<path d="M16.6248 3.67495C14.9581 1.92495 12.5998 0.833282 9.9998 0.833282C8.9998 0.833282 8.04146 0.991617 7.14146 1.28328C3.48313 2.49162 0.83313 5.94162 0.83313 9.99995C0.83313 10.1916 0.841464 10.375 0.849797 10.5583C1.14146 15.35 5.13313 19.1666 9.9998 19.1666C14.2831 19.1666 17.8998 16.2 18.8915 12.2166C19.0748 11.5083 19.1665 10.7666 19.1665 9.99995C19.1665 7.54995 18.1998 5.32495 16.6248 3.67495ZM9.9998 18.3333C5.45813 18.3333 1.75813 14.6833 1.66646 10.1666C1.85813 9.94995 1.90813 9.69995 1.93313 9.58329C2.00813 9.25829 1.90813 9.15829 1.95813 8.70828C1.9748 8.61662 2.00813 8.44162 2.09146 8.09162C2.29146 7.27495 2.33313 7.15828 2.41646 7.03328C2.5748 6.76662 2.8498 6.49161 2.9748 6.54995C3.0498 6.59161 3.0748 6.77495 3.0248 6.92495C2.93313 7.19995 2.6498 7.19995 2.5748 7.45828C2.5498 7.53328 2.5748 7.53329 2.6498 7.90829C2.73313 8.29995 2.78313 8.68329 2.78313 8.68329C2.78313 8.68329 2.7998 9.31661 2.84146 9.31661C2.86646 9.31661 2.8498 9.08328 2.94146 9.04995C3.0498 9.01661 3.24146 9.27495 3.34146 9.44995C3.4748 9.69162 3.5248 9.94995 3.55813 10.1166C3.5998 10.3416 3.5748 10.3833 3.63313 10.5166C3.65813 10.5666 3.7498 10.7583 3.95813 10.8833C4.0748 10.9583 4.0998 10.9333 4.40813 11.0166C4.63313 11.0833 4.76646 11.125 4.91646 11.2083C5.09146 11.3083 5.0998 11.3833 5.30813 11.575C5.71646 11.9583 5.8998 11.8916 5.9748 12.1083C6.05813 12.35 5.84146 12.4583 5.8998 12.7999C5.9498 13.1249 6.18313 13.3333 6.21646 13.3583C6.48313 13.5916 6.71646 13.5166 6.8248 13.7333C6.8498 13.7833 6.8498 13.9083 6.85813 14.1583V14.7416C6.7998 15.1583 6.61646 15.25 6.69146 15.4583C6.7498 15.625 6.8748 15.5916 6.95813 15.7833C7.09146 16.0583 6.89146 16.2666 7.01646 16.4166C7.14146 16.575 7.5248 16.5416 7.5998 16.3916C7.63313 16.3333 7.59146 16.2833 7.5498 16.0749C7.4998 15.8583 7.4748 15.7166 7.51646 15.5916C7.58313 15.425 7.71646 15.475 7.94146 15.25C8.1748 15.025 8.31646 14.7166 8.31646 14.7166C8.31646 14.7166 8.35813 14.0916 8.53313 14.0499C8.60813 14.0333 8.64146 14.1666 8.8248 14.2416C8.84146 14.25 9.10813 14.3416 9.2748 14.2083C9.44146 14.075 9.41646 13.8 9.40813 13.7583C9.38313 13.5416 9.26646 13.5 9.2998 13.3583C9.3248 13.2666 9.40813 13.2083 9.56646 13.0916C9.76646 12.95 9.8248 12.975 9.88313 12.8833C9.9998 12.7166 9.9498 12.425 9.83313 12.375C9.7498 12.3416 9.69147 12.4333 9.45813 12.5333C9.31647 12.5999 9.00813 12.7333 8.8498 12.6166C8.75813 12.5416 8.80813 12.4583 8.71646 12.2166C8.6498 12.0583 8.56646 11.95 8.50813 11.875C8.35813 11.85 8.15813 11.8083 7.9998 11.7666C7.7998 11.7083 7.5998 11.6583 7.35813 11.5249C7.15813 11.4166 7.1498 11.3666 6.99146 11.3166C6.79146 11.2416 6.60813 11.2499 6.45813 11.2583C6.1748 11.275 6.15813 11.3333 5.9748 11.3166C5.74146 11.2833 5.5748 11.1583 5.4998 11.1C5.3248 10.9666 5.08313 10.6999 5.1498 10.5416C5.1748 10.4833 5.2248 10.4916 5.36646 10.3833C5.4748 10.2916 5.5998 10.2 5.5748 10.1416C5.55813 10.075 5.3248 10.05 5.1248 10.1166C4.9748 10.1666 4.96646 10.2333 4.78313 10.2999C4.6498 10.3499 4.54146 10.3916 4.43313 10.3583C4.3248 10.3166 4.28313 10.2166 4.19146 10.0083C4.09146 9.75828 4.03313 9.63328 4.05813 9.53328C4.13313 9.26662 4.50813 9.15829 4.6998 9.13329C4.7498 9.12495 4.83313 9.12495 4.99146 9.13329C5.35813 9.13329 5.40813 9.17495 5.5498 9.15829C5.80813 9.13329 5.99146 8.99162 6.05813 8.94162C6.15813 8.86662 6.19146 8.81662 6.48313 8.38329C6.7498 7.99162 6.7998 7.93328 6.88313 7.85828C6.9998 7.74161 7.11646 7.63328 7.30813 7.56662C7.51646 7.48328 7.64146 7.53328 7.68313 7.45828C7.74146 7.31662 7.33313 7.03328 7.38313 6.94995C7.4248 6.89162 7.6248 7.02495 7.91646 7.00828C8.24146 6.98328 8.56646 6.78329 8.55813 6.63329C8.55813 6.59995 8.53313 6.56662 8.31646 6.41662C7.95813 6.17495 7.8498 6.14162 7.84146 6.04995C7.81646 5.90828 8.00813 5.86662 8.0248 5.67495C8.03313 5.53328 7.93313 5.49162 7.84146 5.24995C7.7748 5.08328 7.6998 4.87495 7.78313 4.74162C7.90813 4.56662 8.23313 4.70828 8.34146 4.53328C8.41646 4.40828 8.3248 4.22495 8.31646 4.20828C8.24146 4.05828 8.1248 4.09162 7.9998 3.94162C7.86647 3.79162 7.84146 3.60828 7.80813 3.38328C7.79146 3.19995 7.7748 3.09995 7.80813 3.01662C7.96646 2.64162 8.7498 2.63328 8.76647 2.69162C8.76647 2.73328 8.48313 2.79162 8.4748 2.93328C8.4748 3.00828 8.55813 3.04995 8.69146 3.17495C8.7748 3.25828 8.8498 3.35828 9.00813 3.57495C9.20813 3.84162 9.30813 3.98328 9.3248 4.07495C9.3748 4.29162 9.25813 4.34995 9.16646 4.76662C9.10813 5.05828 9.05813 5.32495 9.19146 5.54162C9.29146 5.69995 9.49146 5.83328 9.59146 5.78328C9.70813 5.72495 9.58313 5.48328 9.7248 5.19162C9.86646 4.92495 10.1415 4.79995 10.2081 4.76662C10.3915 4.68328 10.4165 4.74162 10.5748 4.66662C10.8665 4.52495 11.0081 4.23328 11.0581 4.13328C11.2248 3.78328 11.0915 3.68328 11.2415 3.46662C11.4498 3.18328 11.7998 3.19995 11.7998 3.04162C11.7998 2.93328 11.6331 2.84162 11.5581 2.79995C11.3581 2.69162 11.2581 2.75828 11.1665 2.66662C11.0248 2.53328 11.1665 2.29995 11.0581 2.19162C10.9498 2.08328 10.7331 2.19995 10.3415 2.29995C10.2998 2.30828 9.8998 2.39995 9.54146 2.39995C8.9498 2.40828 8.89147 2.16661 8.34146 2.16661C7.79146 2.16661 7.6748 2.40828 7.44146 2.29995C7.35813 2.25828 7.30813 2.19995 7.2748 2.12495C8.1248 1.82495 9.04146 1.66662 9.9998 1.66662C12.3665 1.66662 14.5081 2.65828 16.0248 4.24995C15.9165 4.40828 15.8665 4.53328 15.8581 4.64995C15.8581 4.70828 15.8331 5.03328 15.7248 5.04995C15.6415 5.06662 15.5998 4.85828 15.4081 4.78328C15.1748 4.69162 14.9081 4.86662 14.8748 4.89162C14.6665 5.02495 14.6915 5.14995 14.5248 5.20829C14.3081 5.29162 13.9998 5.15829 13.9665 4.99995C13.9415 4.84995 14.1581 4.76662 14.1248 4.64995C14.0831 4.49162 13.6165 4.41662 13.2498 4.56662C13.1831 4.59995 12.8331 4.74162 12.7498 5.04995C12.6915 5.24995 12.7915 5.33329 12.6915 5.49995C12.6331 5.60829 12.5331 5.67495 12.3498 5.79162C12.1498 5.92495 12.0915 5.92495 12.0831 5.98328C12.0581 6.10828 12.2998 6.16662 12.4498 6.45829C12.4998 6.55829 12.5748 6.69162 12.5331 6.83328C12.4915 6.96662 12.3415 7.05829 12.2165 7.10829C12.2165 7.16662 11.9665 7.35828 11.9498 7.64995C11.9498 7.80828 12.0165 7.86661 11.9665 7.94995C11.8998 8.08328 11.7165 8.00829 11.5248 8.14995C11.3998 8.24162 11.2748 8.43328 11.3331 8.57495C11.3915 8.72495 11.6415 8.77495 11.8081 8.71662C12.0165 8.64162 12.1248 8.39995 12.1498 8.34162C12.2081 8.19995 12.2081 8.09162 12.3081 8.02495C12.3248 8.00828 12.3998 7.96662 12.4831 7.99162C12.5498 8.00828 12.5748 8.05828 12.7165 8.23328C12.8165 8.36662 12.8415 8.38328 12.8581 8.37495C12.9415 8.36662 12.9081 8.10828 13.0498 8.02495C13.1915 7.94162 13.3331 8.12495 13.5498 8.05829C13.6248 8.03329 13.6165 8.00829 13.7748 7.88329C13.9081 7.78329 14.0831 7.64995 14.3081 7.59995C14.3998 7.57495 14.5415 7.54995 14.6998 7.59995C14.7581 7.61662 14.9081 7.66662 14.9998 7.80828C15.0165 7.83328 15.1498 8.03328 15.0748 8.16662C15.0165 8.26662 14.8998 8.20828 14.6498 8.30828C14.4498 8.38328 14.4581 8.44162 14.2581 8.51661C14.0415 8.59995 13.9415 8.56662 13.9165 8.62495C13.8831 8.73329 14.0831 8.97495 14.2915 8.98329C14.3998 8.98329 14.4498 8.91662 14.6665 8.89162C14.7581 8.88329 14.8415 8.87495 14.8581 8.90828C14.8998 8.97495 14.7581 9.17495 14.5581 9.26662C14.2998 9.38328 13.9998 9.28328 13.8331 9.23328C13.6498 9.16662 13.6165 9.12495 13.4581 9.10828C13.2498 9.08328 13.0665 9.14995 13.0331 9.15829C12.8081 9.24162 12.7415 9.35828 12.6415 9.31661C12.5581 9.28328 12.5915 9.17495 12.4831 9.10828C12.3498 9.01661 12.1831 9.12495 12.1331 9.04995C12.0748 8.97495 12.2331 8.83328 12.1831 8.76662C12.1165 8.68328 11.7331 8.81661 11.4748 9.04995C11.3915 9.13328 11.3248 9.20829 11.2998 9.24995C11.2248 9.34162 11.1581 9.44162 11.0665 9.63329C10.9415 9.89162 10.8748 10.0333 10.8331 10.2416C10.7915 10.4333 10.7331 10.7166 10.8748 10.825C10.9498 10.8916 11.0331 10.8333 11.1165 10.9166C11.1998 10.9916 11.1998 11.1083 11.2081 11.2833C11.2165 11.4749 11.1831 11.5166 11.2248 11.5666C11.2831 11.6416 11.3998 11.6249 11.5998 11.6083C11.8665 11.5749 11.8831 11.525 12.0581 11.5333C12.1248 11.5416 12.0831 11.5416 12.3915 11.6083C12.5498 11.6333 12.6081 11.6416 12.6415 11.6916C12.7081 11.775 12.6665 11.9083 12.6581 11.925C12.5998 12.1 12.4248 12.125 12.4331 12.225C12.4331 12.2416 12.4415 12.275 12.6081 12.4C12.8081 12.55 12.8415 12.5333 12.9081 12.6166C13.0165 12.7333 13.0415 12.8833 13.0498 12.9499C13.0748 13.0916 13.0498 13.2083 13.0331 13.2916C13.0081 13.425 12.9831 13.4166 12.9831 13.4833C12.9748 13.6249 13.0665 13.6833 13.1748 13.9083C13.2415 14.05 13.2165 14.0333 13.2998 14.2333C13.4081 14.4666 13.4331 14.4583 13.4915 14.6166C13.5748 14.8416 13.5415 14.9249 13.6165 14.9749C13.7415 15.0583 13.9498 14.95 14.0415 14.9C14.0998 14.875 14.2498 14.8 14.3665 14.6333C14.4915 14.4583 14.4498 14.3666 14.5748 14.2666C14.6748 14.1916 14.7248 14.2166 14.8248 14.125C14.8831 14.0666 14.9081 14.0083 14.9665 13.8916C15.0331 13.7583 15.0665 13.65 15.0915 13.5583C15.1248 13.45 15.1415 13.3916 15.1415 13.3416C15.1665 13.1666 15.1248 13.0166 15.0915 12.9C15.0415 12.7333 15.0165 12.7499 15.0165 12.6833C15.0165 12.5333 15.1665 12.4249 15.4831 12.2083C16.0165 11.8416 16.1748 11.7666 16.2248 11.5666C16.2331 11.525 16.2665 11.375 16.1915 11.25C16.1248 11.15 16.0165 11.1416 15.6581 11.0416C15.2248 10.9166 15.1581 10.8666 15.1081 10.8083C15.0081 10.6833 14.9915 10.5333 14.9831 10.4333C14.9831 10.4 14.9581 10.1583 15.0415 10.1333C15.0748 10.1166 15.1081 10.1666 15.2331 10.2583C15.2831 10.2916 15.3748 10.3499 15.5498 10.4499C15.7081 10.5416 15.7915 10.5916 15.8331 10.6083C15.9415 10.6583 16.2165 10.775 16.4915 10.6833C16.5831 10.65 16.6581 10.5916 16.8081 10.4666C16.9665 10.3416 17.0581 10.2666 17.0581 10.1666C17.0581 10.075 16.9748 10.0083 16.8998 9.94161C16.7415 9.79995 16.5331 9.73328 16.3331 9.65828C16.2831 9.64162 16.2165 9.61662 16.1581 9.54995C16.1331 9.52495 16.0415 9.43328 16.0665 9.33328C16.0915 9.22495 16.2498 9.17495 16.3165 9.15829C16.4331 9.12495 16.5331 9.13328 16.5581 9.14161C16.9831 9.19995 17.1081 9.54162 17.4498 9.54995C17.6831 9.54995 17.8248 9.39162 17.9248 9.47495C17.9748 9.51662 17.9831 9.59995 18.0165 9.75829C18.0415 9.91662 18.0581 9.99995 18.0498 10.0666C18.0248 10.3166 17.7748 10.3333 17.7331 10.5416C17.6915 10.7583 17.9248 10.8333 18.0331 11.2333C18.1165 11.5416 17.9998 11.6 18.0831 11.7833C18.0915 11.8083 18.1081 11.8333 18.1248 11.8499C17.2831 15.5583 13.9581 18.3333 9.9998 18.3333Z" fill="white"/>
</svg>
