<svg width="24" height="24" viewBox="0 0 24 24" fill="none" xmlns="http://www.w3.org/2000/svg">
<path d="M3 7.95801V16.039C3.00001 16.3901 3.09241 16.7349 3.26795 17.0389C3.44348 17.343 3.69597 17.5955 4 17.771L11 21.813C11.304 21.9885 11.6489 22.0809 12 22.0809C12.3511 22.0809 12.696 21.9885 13 21.813L20 17.771C20.304 17.5955 20.5565 17.343 20.732 17.0389C20.9076 16.7349 21 16.3901 21 16.039V7.95599C21 7.60493 20.9076 7.26002 20.732 6.95599C20.5565 6.65196 20.304 6.39953 20 6.224L13 2.18298C12.696 2.00745 12.3511 1.91504 12 1.91504C11.6489 1.91504 11.304 2.00745 11 2.18298L4 6.224C3.69568 6.3997 3.44301 6.6525 3.26746 6.95691C3.0919 7.26132 2.99966 7.6066 3 7.95801Z" stroke="#354752" stroke-linecap="round" stroke-linejoin="round"/>
<path d="M4.978 9.10095V14.9009C4.97801 15.252 5.07041 15.5969 5.24594 15.9009C5.42148 16.2049 5.67397 16.4574 5.978 16.6329L11 19.5329C11.304 19.7084 11.6489 19.8009 12 19.8009C12.3511 19.8009 12.696 19.7084 13 19.5329L18.021 16.6329C18.325 16.4574 18.5775 16.2049 18.753 15.9009C18.9286 15.5969 19.021 15.252 19.021 14.9009V9.10095C19.0212 8.74972 18.9288 8.40462 18.7533 8.1004C18.5777 7.79618 18.3252 7.54354 18.021 7.36792L13 4.46796C12.696 4.29242 12.3511 4.19995 12 4.19995C11.6489 4.19995 11.304 4.29242 11 4.46796L5.978 7.36792C5.67382 7.54354 5.42124 7.79618 5.2457 8.1004C5.07015 8.40462 4.97783 8.74972 4.978 9.10095V9.10095Z" stroke="#354752" stroke-width="0.78" stroke-linecap="round" stroke-linejoin="round"/>
<path d="M6.34 15.276V8.89301L10.51 17.659V6.08496" stroke="#354752" stroke-width="0.78" stroke-linecap="round" stroke-linejoin="round"/>
<path d="M14.085 6.68005L12 5.48804V18.6801" stroke="#354752" stroke-width="0.78" stroke-linecap="round" stroke-linejoin="round"/>
<path d="M15.191 7.19092L16.468 7.95691L17.744 8.7229L15.191 7.19092Z" stroke="#354752" stroke-width="0.78" stroke-linecap="round" stroke-linejoin="round"/>
<path d="M16.297 16.085L16.467 7.95703" stroke="#354752" stroke-width="0.78" stroke-linecap="round" stroke-linejoin="round"/>
<path d="M14.085 13.276L12 14.17" stroke="#354752" stroke-width="0.78" stroke-linecap="round" stroke-linejoin="round"/>
</svg>
