<svg width="16" height="19" viewBox="0 0 16 19" fill="none" xmlns="http://www.w3.org/2000/svg">
<path d="M11.9401 18.6302H4.07013C3.04013 18.6302 2.16013 17.9302 2.06013 17.0402L1.08013 5.95021C1.08013 5.82021 1.07013 5.73021 1.08013 5.62021L1.16013 5.22021H14.8401L14.9201 5.62021C14.9401 5.73021 14.9401 5.83022 14.9301 5.88022L13.9301 17.0302C13.8501 17.9302 12.9801 18.6302 11.9401 18.6302ZM2.10013 6.22021L3.06013 16.9402C3.10013 17.3102 3.56013 17.6302 4.07013 17.6302H11.9401C12.4401 17.6302 12.9101 17.3102 12.9401 16.9402L13.9101 6.22021H2.10013Z" fill="#8798A1"/>
<path d="M14.83 6.22023H1.07C0.48 6.22023 0 5.74023 0 5.15023V4.30023C0 3.16023 0.93 2.24023 2.08 2.24023H13.94C15.08 2.24023 16 3.17023 16 4.30023V5.04023C16 5.69023 15.47 6.21023 14.83 6.21023V6.22023ZM2.08 3.24023C1.49 3.24023 1 3.72023 1 4.30023V5.15023L14.83 5.22023C14.93 5.22023 15 5.13023 15 5.05023V4.31023C15 3.72023 14.52 3.25023 13.94 3.25023H2.08V3.24023Z" fill="#8798A1"/>
<path d="M11.4398 3.24H4.56982V1.9C4.56982 0.85 5.41982 0 6.46982 0H9.53982C10.5898 0 11.4398 0.85 11.4398 1.9V3.24ZM5.55982 2.24H10.4398V1.9C10.4398 1.41 10.0298 1 9.53982 1H6.46982C5.96982 1 5.56982 1.4 5.56982 1.9V2.24H5.55982Z" fill="#8798A1"/>
<path d="M4.79004 16.0498C4.51004 16.0498 4.29004 15.8298 4.29004 15.5498V8.31982C4.29004 8.03982 4.51004 7.81982 4.79004 7.81982C5.07004 7.81982 5.29004 8.03982 5.29004 8.31982V15.5498C5.29004 15.8298 5.07004 16.0498 4.79004 16.0498Z" fill="#8798A1"/>
<path d="M8 16.0498C7.72 16.0498 7.5 15.8298 7.5 15.5498V8.31982C7.5 8.03982 7.72 7.81982 8 7.81982C8.28 7.81982 8.5 8.03982 8.5 8.31982V15.5498C8.5 15.8298 8.28 16.0498 8 16.0498Z" fill="#8798A1"/>
<path d="M11.2202 16.0498C10.9402 16.0498 10.7202 15.8298 10.7202 15.5498V8.31982C10.7202 8.03982 10.9402 7.81982 11.2202 7.81982C11.5002 7.81982 11.7202 8.03982 11.7202 8.31982V15.5498C11.7202 15.8298 11.5002 16.0498 11.2202 16.0498Z" fill="#8798A1"/>
</svg>
