<svg width="24" height="24" viewBox="0 0 24 24" fill="none" xmlns="http://www.w3.org/2000/svg">
<path d="M14.4069 9.59706C13.7628 8.97308 12.9037 8.62004 12.0069 8.61071C11.1088 8.61331 10.2473 8.96735 9.60693 9.59706C9.91802 9.27572 10.2912 9.02099 10.7038 8.8483C11.1163 8.67561 11.5597 8.5886 12.0069 8.59253C12.4537 8.59192 12.8961 8.68044 13.3082 8.85293C13.7203 9.02542 14.0938 9.2784 14.4069 9.59706V9.59706Z" stroke="#607079" stroke-width="0.872726" stroke-miterlimit="10"/>
<path d="M21.1599 10.524L19.4326 10.2821C19.2527 9.46649 18.9384 8.68646 18.5026 7.97399L19.5254 6.61532C19.6826 6.44581 19.7699 6.22312 19.7699 5.9919C19.7699 5.76069 19.6826 5.53802 19.5254 5.36851L18.5954 4.43816C18.426 4.31846 18.2229 4.25571 18.0156 4.25898C17.8082 4.26225 17.6073 4.33139 17.4417 4.45636L16.0281 5.51765C15.3291 5.07593 14.5608 4.75497 13.7554 4.56821L13.5317 2.8185C13.5038 2.59556 13.3965 2.39012 13.2296 2.23982C13.0627 2.08951 12.8472 2.00438 12.6226 2H11.4317C11.209 2.00505 10.9958 2.09082 10.8316 2.24137C10.6674 2.39192 10.5634 2.59702 10.539 2.8185L10.2781 4.5464C9.47603 4.73405 8.70888 5.04806 8.00538 5.47672L6.57355 4.39725C6.39292 4.27454 6.17743 4.21363 5.95931 4.22363C5.7412 4.23363 5.5322 4.314 5.36356 4.45273L4.45446 5.40214C4.33481 5.57164 4.27214 5.77483 4.27558 5.9823C4.27901 6.18977 4.34835 6.39077 4.47355 6.55621L5.53354 7.95218C5.09187 8.65127 4.7713 9.41991 4.58536 10.2257L2.81808 10.4676C2.59794 10.4951 2.39475 10.6001 2.24485 10.7637C2.09496 10.9273 2.00813 11.1389 1.99991 11.3607V12.552C2.00311 12.7801 2.09031 12.999 2.2448 13.1668C2.39928 13.3346 2.61019 13.4395 2.83717 13.4614L4.56447 13.7034C4.75292 14.5105 5.06705 15.2829 5.49536 15.9924L4.41537 17.4065C4.29262 17.5871 4.23176 17.8026 4.24192 18.0207C4.25209 18.2388 4.33271 18.4477 4.47172 18.616L5.32718 19.4536C5.48989 19.6111 5.70448 19.7037 5.93063 19.7141C6.15678 19.7245 6.37894 19.6519 6.55538 19.51L7.95081 18.4487C8.64465 18.9042 9.41434 19.2319 10.2235 19.4163L10.4835 21.1442C10.503 21.3662 10.6024 21.5736 10.7633 21.7277C10.9242 21.8817 11.1356 21.9721 11.3581 21.9818L12.5672 22C12.7951 21.987 13.0112 21.8942 13.1774 21.7376C13.3437 21.5811 13.4495 21.371 13.4763 21.1442L13.7181 19.4318C14.5295 19.2485 15.3034 18.9274 16.0063 18.4824L17.3835 19.5246C17.5554 19.6711 17.7748 19.7501 18.0006 19.7468C18.2264 19.7434 18.4433 19.658 18.6108 19.5064L19.6717 18.4451L19.709 18.1477C19.7437 17.8902 19.6768 17.6293 19.5226 17.4202L18.4626 16.0542C18.915 15.3551 19.2363 14.5794 19.4108 13.7652L21.1599 13.5233C21.3846 13.5029 21.594 13.4006 21.7483 13.236C21.9026 13.0714 21.9912 12.8558 21.9972 12.6302V11.4162C21.9879 11.1917 21.8983 10.978 21.7445 10.8142C21.5908 10.6504 21.3833 10.5474 21.1599 10.524V10.524ZM12.0063 15.3812C11.1064 15.382 10.2429 15.026 9.60483 14.3913C8.96675 13.7565 8.60605 12.8947 8.60172 11.9946C8.60141 11.5477 8.69009 11.1052 8.86256 10.693C9.03504 10.2808 9.28786 9.90708 9.60628 9.59367C9.91736 9.27222 10.2905 9.01739 10.7031 8.84464C11.1157 8.67189 11.5591 8.58482 12.0063 8.58875C12.453 8.58814 12.8954 8.67672 13.3075 8.84927C13.7196 9.02183 14.0932 9.2749 14.4063 9.59367C15.0301 10.2382 15.3831 11.0975 15.3926 11.9946C15.3893 12.8919 15.0314 13.7515 14.397 14.3859C13.7627 15.0203 12.9033 15.3781 12.0063 15.3812V15.3812Z" stroke="#607079" stroke-width="0.872726" stroke-miterlimit="10"/>
<path d="M14.4069 9.59694C13.7628 8.97295 12.9037 8.61991 12.0069 8.61058C11.1088 8.61319 10.2473 8.96722 9.60693 9.59694C9.91802 9.2756 10.2912 9.02086 10.7038 8.84818C11.1163 8.67549 11.5597 8.58848 12.0069 8.59241C12.4537 8.5918 12.8961 8.68032 13.3082 8.85281C13.7203 9.0253 14.0938 9.27828 14.4069 9.59694V9.59694Z" stroke="#607079" stroke-width="0.872726" stroke-miterlimit="10"/>
</svg>
