<svg width="24" height="24" viewBox="0 0 24 24" fill="none" xmlns="http://www.w3.org/2000/svg">
<path d="M16.5761 20.5C17.3844 20.5 18.0421 19.8603 18.0421 19.074V12.915H20.446C20.6107 12.915 20.7406 12.8624 20.8432 12.7542L20.8477 12.7494C20.968 12.6241 21.1226 12.313 20.8456 12.0317L12.7763 3.81647C12.573 3.61269 12.2988 3.50049 12.0041 3.50049C11.7083 3.50049 11.4333 3.61343 11.233 3.81517L3.15167 12.0325C2.94431 12.2432 2.99439 12.4681 3.0427 12.5835C3.08444 12.6831 3.21765 12.915 3.55206 12.915H5.96607V19.074C5.96607 19.237 5.99396 19.3972 6.05112 19.5613C6.06424 19.5867 6.07639 19.6127 6.08746 19.6395C6.09784 19.6645 6.10712 19.6898 6.11533 19.7153C6.18756 19.848 6.27918 19.9694 6.38782 20.0766C6.66574 20.3496 7.03659 20.5 7.43204 20.5H9.08905V16.776C9.08905 15.6423 10.019 14.72 11.1621 14.72H12.846C13.9946 14.72 14.929 15.6423 14.929 16.776V20.5H16.5761ZM16.5761 21.5H13.929V16.776C13.929 16.194 13.4381 15.72 12.846 15.72H11.1621C10.57 15.72 10.0891 16.194 10.0891 16.776V21.5H7.43204C6.76004 21.5 6.13904 21.234 5.68704 20.79C5.46704 20.573 5.28604 20.317 5.15604 20.031C5.16605 20.021 5.16605 20.021 5.15604 20.021C5.03604 19.725 4.96607 19.409 4.96607 19.074V13.915H3.55206C2.18805 13.915 1.48706 12.298 2.43906 11.331L10.5201 3.11399C11.3321 2.29599 12.6761 2.29599 13.488 3.11399L21.5591 11.331C22.1901 11.972 22.1 12.889 21.5691 13.442C21.2981 13.728 20.9171 13.915 20.446 13.915H19.0421V19.074C19.0421 20.415 17.9391 21.5 16.5761 21.5Z" fill="#8798A1"/>
</svg>
