<svg width="24" height="24" viewBox="0 0 24 24" fill="none" xmlns="http://www.w3.org/2000/svg">
<path d="M17.2642 14.6661C17.1906 14.666 17.1187 14.6441 17.0574 14.6032C16.9962 14.5622 16.9485 14.5041 16.9202 14.4361C16.892 14.368 16.8845 14.2932 16.8988 14.221C16.913 14.1487 16.9483 14.0823 17.0002 14.0301L17.8613 13.1701C17.8953 13.1329 17.9364 13.1031 17.9823 13.0823C18.0281 13.0615 18.0778 13.0503 18.1281 13.0492C18.1785 13.0481 18.2285 13.0572 18.2752 13.076C18.3219 13.0947 18.3644 13.1227 18.4 13.1584C18.4356 13.194 18.4636 13.2364 18.4824 13.2831C18.5011 13.3298 18.5102 13.3799 18.5091 13.4302C18.508 13.4805 18.4968 13.5302 18.476 13.576C18.4552 13.6219 18.4254 13.663 18.3883 13.697L17.5272 14.5571C17.4927 14.5917 17.4518 14.6192 17.4067 14.6379C17.3615 14.6566 17.3131 14.6662 17.2642 14.6661Z" fill="#354752"/>
<path d="M18.4813 16.477H17.2643C17.2153 16.477 17.1668 16.4674 17.1216 16.4486C17.0763 16.4299 17.0351 16.4024 17.0005 16.3677C16.9659 16.3331 16.9384 16.292 16.9197 16.2467C16.9009 16.2014 16.8912 16.153 16.8912 16.104C16.8912 16.055 16.9009 16.0065 16.9197 15.9612C16.9384 15.916 16.9659 15.8748 17.0005 15.8402C17.0351 15.8056 17.0763 15.7781 17.1216 15.7594C17.1668 15.7407 17.2153 15.731 17.2643 15.731H18.4813C18.5802 15.731 18.675 15.7703 18.745 15.8402C18.8149 15.9102 18.8542 16.0051 18.8542 16.104C18.8542 16.2029 18.8149 16.2978 18.745 16.3677C18.675 16.4377 18.5802 16.477 18.4813 16.477Z" fill="#354752"/>
<path d="M18.1242 19.1469C18.0754 19.1471 18.0269 19.1376 17.9818 19.1189C17.9366 19.1002 17.8957 19.0727 17.8613 19.0379L17.0002 18.1779C16.9353 18.1071 16.9002 18.0139 16.9023 17.9178C16.9044 17.8217 16.9435 17.7302 17.0114 17.6622C17.0794 17.5942 17.171 17.5552 17.2671 17.5531C17.3631 17.551 17.4563 17.586 17.5272 17.651L18.3883 18.511C18.4407 18.563 18.4764 18.6295 18.4909 18.7019C18.5054 18.7743 18.498 18.8494 18.4697 18.9176C18.4414 18.9858 18.3934 19.044 18.3319 19.0849C18.2703 19.1257 18.1981 19.1473 18.1242 19.1469Z" fill="#354752"/>
<path d="M6.46631 19.8176V21.0754C6.48401 21.0771 6.50342 21.0781 6.52429 21.0781H6.61426C6.82983 21.0781 7.02905 20.9793 7.08936 20.9194L7.57178 19.821H6.62134C6.5697 19.821 6.51807 19.8199 6.46631 19.8176ZM5.46631 18.5601C5.81628 18.7241 6.2113 18.821 6.62134 18.821H9.10327L7.99329 21.348C7.80627 21.7731 7.19531 22.0781 6.61426 22.0781H6.52429C5.94324 22.0781 5.46631 21.7731 5.46631 21.348V18.5601Z" fill="#354752"/>
<path d="M13.9923 12.6001L11.1593 14.3869H6.62134C6.05542 14.3869 5.53088 14.6758 5.21814 15.1597L5.21216 15.1689C5.03516 15.4364 4.94531 15.7372 4.94531 16.0629V16.1449C4.94531 16.4504 5.02466 16.7437 5.1748 16.9929L5.17981 17.0013C5.34534 17.2823 5.59314 17.509 5.89661 17.6572C6.12744 17.7643 6.37781 17.8209 6.62134 17.8209H11.1593L13.9923 19.6078V12.6001ZM14.3815 11.281C14.6981 11.281 14.9923 11.5333 14.9923 11.8889V20.3189C14.9923 20.7959 14.4634 21.0868 14.0603 20.8329L10.8702 18.8209H6.62134C6.2113 18.8209 5.81628 18.7239 5.46631 18.5599C4.98926 18.3289 4.5863 17.9639 4.31824 17.5089C4.08032 17.114 3.94531 16.6439 3.94531 16.1449V16.0629C3.94531 15.5259 4.10229 15.0339 4.3783 14.6169C4.85522 13.8789 5.68225 13.3869 6.62134 13.3869H10.8702L14.0603 11.3749C14.1628 11.3104 14.2734 11.281 14.3815 11.281Z" fill="#354752"/>
<path d="M14.9923 13.678C15.8123 14.177 16.3563 15.079 16.3563 16.108C16.3563 17.136 15.8123 18.038 14.9923 18.538V13.678Z" fill="#354752"/>
<path d="M10.8702 13.387V18.821" stroke="#354752" stroke-miterlimit="10"/>
<path d="M12.1533 11.422C12.0881 11.4217 12.0236 11.4087 11.9633 11.384C11.8716 11.3463 11.7932 11.2823 11.738 11.2001C11.6829 11.1178 11.6534 11.0211 11.6533 10.922V9.41101C11.3128 9.17234 11.0349 8.85494 10.8434 8.48584C10.6519 8.11674 10.5523 7.70685 10.5532 7.29102V4.53699C10.553 3.84458 10.8275 3.18033 11.3164 2.69006C11.8054 2.1998 12.4689 1.92359 13.1613 1.922H17.4443C18.1368 1.92359 18.8003 2.19977 19.2894 2.69C19.7785 3.18024 20.0532 3.84448 20.0532 4.53699V7.28699C20.0527 7.97877 19.7777 8.64206 19.2886 9.13123C18.7994 9.62039 18.1361 9.89547 17.4443 9.896H13.8683L12.5073 11.27C12.4613 11.3174 12.4062 11.3554 12.3455 11.3815C12.2847 11.4076 12.2195 11.4213 12.1533 11.422ZM13.1633 2.922C12.7361 2.92332 12.3267 3.09413 12.0253 3.39691C11.7238 3.6997 11.5548 4.10971 11.5553 4.53699V7.28699C11.5545 7.57411 11.6317 7.85607 11.7788 8.10266C11.9259 8.34926 12.1373 8.55124 12.3903 8.68701C12.4697 8.72979 12.5361 8.79326 12.5824 8.87073C12.6287 8.94819 12.6533 9.03677 12.6533 9.12701V9.70001L13.3063 9.04199C13.3528 8.99511 13.4081 8.9579 13.469 8.9325C13.5299 8.90709 13.5952 8.894 13.6613 8.89398H17.4463C17.8729 8.89345 18.2817 8.72375 18.5834 8.42212C18.885 8.12049 19.0548 7.71154 19.0553 7.28497V4.53699C19.0556 4.10962 18.8864 3.69961 18.5847 3.39685C18.2831 3.09409 17.8737 2.92332 17.4463 2.922H13.1633Z" fill="#354752"/>
<path d="M17.6063 6.37207H13.0062C12.8736 6.37207 12.7465 6.31935 12.6527 6.22559C12.5589 6.13182 12.5062 6.00468 12.5062 5.87207C12.5062 5.73946 12.5589 5.61226 12.6527 5.51849C12.7465 5.42473 12.8736 5.37207 13.0062 5.37207H17.6063C17.7389 5.37207 17.8661 5.42473 17.9598 5.51849C18.0536 5.61226 18.1063 5.73946 18.1063 5.87207C18.1063 6.00468 18.0536 6.13182 17.9598 6.22559C17.8661 6.31935 17.7389 6.37207 17.6063 6.37207Z" fill="#354752"/>
<path d="M17.6063 4.90405H13.0062C12.8736 4.90405 12.7465 4.8514 12.6527 4.75763C12.5589 4.66386 12.5062 4.53666 12.5062 4.40405C12.5062 4.27144 12.5589 4.14424 12.6527 4.05048C12.7465 3.95671 12.8736 3.90405 13.0062 3.90405H17.6063C17.7389 3.90405 17.8661 3.95671 17.9598 4.05048C18.0536 4.14424 18.1063 4.27144 18.1063 4.40405C18.1063 4.53666 18.0536 4.66386 17.9598 4.75763C17.8661 4.8514 17.7389 4.90405 17.6063 4.90405Z" fill="#354752"/>
<path d="M14.9943 7.84009H13.0043C12.8717 7.84009 12.7445 7.78743 12.6508 7.69366C12.557 7.5999 12.5043 7.4727 12.5043 7.34009C12.5043 7.20748 12.557 7.08034 12.6508 6.98657C12.7445 6.8928 12.8717 6.84009 13.0043 6.84009H14.9943C15.1269 6.84009 15.254 6.8928 15.3478 6.98657C15.4415 7.08034 15.4943 7.20748 15.4943 7.34009C15.4943 7.4727 15.4415 7.5999 15.3478 7.69366C15.254 7.78743 15.1269 7.84009 14.9943 7.84009Z" fill="#354752"/>
</svg>
