<svg width="18" height="18" viewBox="0 0 18 18" fill="none" xmlns="http://www.w3.org/2000/svg">
<path d="M16.4599 1.53998C15.6199 0.70998 14.2599 0.70998 13.4199 1.53998L11.9399 3.01998L11.4799 3.48998H11.4699L10.9699 3.98998L2.58995 12.38C2.58995 12.38 2.53995 12.47 2.50995 12.51L1.94995 13.87L0.959946 16.25C0.859946 16.48 0.909946 16.74 1.08995 16.91C1.19995 17.03 1.34995 17.09 1.50995 17.09C1.59995 17.09 1.66995 17.09 1.74995 17.04L4.12995 16.05L5.48995 15.49C5.48995 15.49 5.57995 15.44 5.61995 15.41L13.9199 7.10998L13.9999 7.03998L14.4999 6.53998L14.9699 6.06998L15.0299 5.99998L15.0699 5.96998L15.7799 5.25998L16.4599 4.57998C17.2899 3.73998 17.2899 2.37998 16.4599 1.53998ZM13.7999 5.52998L5.26995 14.07L4.75995 14.57C4.58995 14.74 4.33995 14.83 4.09995 14.83C4.03995 14.83 3.97995 14.83 3.91995 14.82C3.72995 14.78 3.54995 14.69 3.42995 14.57C3.29995 14.43 3.21995 14.27 3.17995 14.08C3.11995 13.78 3.19995 13.47 3.42995 13.24L3.93995 12.74L12.4699 4.19998L12.9199 3.74998L14.2299 5.09998L13.7999 5.52998ZM15.5999 3.72998L14.9399 4.38998L13.6299 3.03998L14.2699 2.39998C14.4499 2.21998 14.6899 2.11998 14.9299 2.11998C15.1699 2.11998 15.4199 2.21998 15.5999 2.39998C15.9699 2.75998 15.9699 3.35998 15.5999 3.72998Z" fill="#13968E"/>
</svg>
