<svg width="21" height="16" viewBox="0 0 21 16" fill="none" xmlns="http://www.w3.org/2000/svg">
<path d="M9.43 0.220032L4.65 4.00003H1C0.734784 4.00003 0.48043 4.10539 0.292893 4.29293C0.105357 4.48046 0 4.73482 0 5.00003V11C0 11.2652 0.105357 11.5196 0.292893 11.7071C0.48043 11.8947 0.734784 12 1 12H4.65L9.38 15.78C9.55594 15.9212 9.77444 15.9987 10 16C10.1494 16.0025 10.297 15.9682 10.43 15.9C10.6002 15.819 10.744 15.6915 10.8448 15.5323C10.9457 15.373 10.9995 15.1885 11 15M9.43 0.220032L9.73147 0.618927C9.73268 0.618013 9.73389 0.617104 9.73511 0.616201M9.43 0.220032C9.57116 0.113347 9.73811 0.0460278 9.91379 0.0249459C10.0895 0.00386392 10.2676 0.029774 10.43 0.100032M9.43 0.220032L9.74014 0.612221L9.73511 0.616201M9.73511 0.616201L4.96014 4.39222L4.82381 4.50003H4.65H1C0.867392 4.50003 0.740215 4.55271 0.646446 4.64648C0.552678 4.74025 0.5 4.86742 0.5 5.00003V11C0.5 11.1326 0.552678 11.2598 0.646446 11.3536C0.740215 11.4474 0.867392 11.5 1 11.5H4.65H4.82525L4.96215 11.6094L9.69215 15.3894L9.6929 15.39C9.78087 15.4606 9.89012 15.4994 10.0029 15.5L10.0083 15.5001V15.5001C10.0756 15.5012 10.1421 15.4857 10.202 15.455L10.2085 15.4517L10.215 15.4486C10.3001 15.4081 10.372 15.3443 10.4224 15.2647C10.4727 15.1853 10.4996 15.0932 10.5 14.9992M9.73511 0.616201C9.80491 0.564437 9.88703 0.531745 9.97336 0.521384C10.0582 0.511203 10.1442 0.522942 10.2231 0.555411M10.5 14.9992V15H11M10.5 14.9992C10.5 14.999 10.5 14.9988 10.5 14.9986L11 15M10.5 14.9992V1.00088M11 15V1.00003M11 1.00003L10.5 1.00145C10.5 1.00126 10.5 1.00107 10.5 1.00088M11 1.00003C10.9995 0.811546 10.9457 0.627048 10.8448 0.467811C10.744 0.308573 10.6002 0.181081 10.43 0.100032M11 1.00003H10.5V1.00088M10.5 1.00088C10.4996 0.906838 10.4727 0.814798 10.4224 0.735336C10.3736 0.658267 10.3047 0.59607 10.2231 0.555411M10.43 0.100032L10.2315 0.558927C10.2287 0.557729 10.2259 0.556557 10.2231 0.555411M10.43 0.100032L10.215 0.551447C10.2177 0.552745 10.2204 0.554066 10.2231 0.555411M8.68793 13.3107L9.5 13.9594V12.92V3.08003V2.04068L8.68793 2.68937L5.30793 5.38937L5.3071 5.39004C5.21945 5.46037 5.11067 5.49911 4.99832 5.50003H2H1.5V6.00003V10V10.5H2H4.99832C5.11067 10.501 5.21945 10.5397 5.3071 10.61L5.30793 10.6107L8.68793 13.3107ZM17.5574 7.64549L17.2009 8.00003L17.5574 8.35457L19.3574 10.1446L19.3579 10.145C19.4048 10.1915 19.442 10.2468 19.4673 10.3077C19.4927 10.3687 19.5058 10.434 19.5058 10.5C19.5058 10.566 19.4927 10.6314 19.4673 10.6923C19.442 10.7532 19.4048 10.8085 19.3579 10.855L19.355 10.8579C19.3085 10.9048 19.2532 10.942 19.1923 10.9674C19.1314 10.9928 19.066 11.0058 19 11.0058C18.934 11.0058 18.8686 10.9928 18.8077 10.9674C18.7468 10.942 18.6915 10.9048 18.645 10.8579L18.6445 10.8575L16.8545 9.05746L16.5 8.70095L16.1455 9.05746L14.3555 10.8575L14.355 10.8579C14.3085 10.9048 14.2532 10.942 14.1923 10.9674C14.1314 10.9928 14.066 11.0058 14 11.0058C13.934 11.0058 13.8686 10.9928 13.8077 10.9674C13.7468 10.942 13.6915 10.9048 13.645 10.8579L13.6421 10.855C13.5952 10.8086 13.558 10.7533 13.5327 10.6923C13.5073 10.6314 13.4942 10.566 13.4942 10.5C13.4942 10.434 13.5073 10.3687 13.5327 10.3077C13.558 10.2468 13.5952 10.1915 13.6421 10.145L13.6426 10.1446L15.4426 8.35457L15.7991 8.00003L15.4426 7.64549L13.6436 5.85648C13.6434 5.85635 13.6433 5.85622 13.6432 5.85608C13.5489 5.76159 13.4959 5.63354 13.4959 5.50003C13.4959 5.36634 13.549 5.23812 13.6436 5.14359C13.7381 5.04905 13.8663 4.99594 14 4.99594C14.1335 4.99594 14.2615 5.04888 14.356 5.14313C14.3561 5.14328 14.3563 5.14343 14.3564 5.14359L16.1455 6.9426L16.5 7.29912L16.8545 6.9426L18.6436 5.14359C18.6437 5.14346 18.6438 5.14332 18.6439 5.14319C18.6907 5.09657 18.7461 5.05957 18.8071 5.03431C18.8683 5.00898 18.9338 4.99594 19 4.99594C19.0662 4.99594 19.1317 5.00898 19.1929 5.03431C19.2541 5.05964 19.3096 5.09677 19.3564 5.14359C19.4033 5.1904 19.4404 5.24597 19.4657 5.30713C19.4911 5.36828 19.5041 5.43383 19.5041 5.50003C19.5041 5.56623 19.4911 5.63178 19.4657 5.69294C19.4405 5.75385 19.4036 5.80922 19.357 5.85591C19.3568 5.8561 19.3566 5.85629 19.3564 5.85648L17.5574 7.64549Z" fill="black" stroke="white"/>
</svg>
