<svg width="18" height="18" viewBox="0 0 18 18" fill="none" xmlns="http://www.w3.org/2000/svg">
<path d="M17.503 0.497888C17.1803 0.178878 16.7449 0 16.2913 0C15.8377 0 15.4023 0.178878 15.0797 0.497888L13.8959 1.68231C13.7738 1.66643 13.6508 1.65851 13.5277 1.65858H2.8152C2.07004 1.65922 1.35548 1.95513 0.827891 2.4816C0.300297 3.00807 0.0026266 3.72224 3.05176e-05 4.46776V15.1831C0.00111258 15.9297 0.298058 16.6454 0.825768 17.1734C1.35348 17.7014 2.0689 17.9985 2.8152 17.9996H13.5252C14.2708 17.9983 14.9853 17.7009 15.5118 17.1728C16.0383 16.6446 16.3337 15.929 16.333 15.1831V4.46776C16.3333 4.35245 16.3251 4.23725 16.3085 4.12314V4.11495L16.3568 4.06749L17.5021 2.93138C17.8211 2.60683 17.9999 2.16992 18 1.71478C18.0002 1.25964 17.8217 0.822652 17.503 0.497888ZM15.5395 15.1831C15.5395 15.7165 15.3282 16.2281 14.9519 16.606C14.5756 16.9838 14.0649 17.1971 13.5318 17.199H2.8152C2.28077 17.1988 1.76828 16.9864 1.3903 16.6084C1.01232 16.2304 0.799787 15.7177 0.799353 15.1831V4.46776C0.801517 3.93428 1.01484 3.42334 1.39265 3.04688C1.77046 2.67042 2.28198 2.45906 2.8152 2.45907H13.1236L6.41493 9.17097C6.39857 9.20289 6.37485 9.24301 6.35848 9.27493L5.90278 10.3636L5.11085 12.2683C5.08034 12.3421 5.06847 12.4223 5.0763 12.5018C5.08413 12.5813 5.11142 12.6576 5.15574 12.724C5.20006 12.7904 5.26005 12.8449 5.33041 12.8827C5.40078 12.9204 5.47936 12.9401 5.55919 12.9403C5.62521 12.9416 5.69068 12.9279 5.75063 12.9002L7.6544 12.1078L8.73431 11.6601C8.77109 11.6425 8.80593 11.6211 8.83822 11.5963L15.4773 4.95396L15.5411 4.8983L15.5395 15.1831ZM16.819 2.25034L15.9796 3.091L15.3791 3.69095L8.55679 10.5257L8.14773 10.9251C8.07794 10.9931 7.99535 11.0465 7.90477 11.0823C7.81419 11.1182 7.71741 11.1357 7.62002 11.1338C7.57188 11.1352 7.52372 11.1324 7.47604 11.1256C7.33213 11.0953 7.19937 11.026 7.09234 10.9251C6.98491 10.8185 6.91243 10.6818 6.88454 10.533C6.86042 10.4125 6.8668 10.288 6.90309 10.1706C6.93939 10.0532 7.00444 9.94679 7.09234 9.861L7.49242 9.46073L14.3229 2.61869L15.7546 1.18627C15.8972 1.04445 16.0895 0.963975 16.2905 0.962005C16.4891 0.964097 16.6788 1.04471 16.8182 1.18627C16.8897 1.25526 16.9466 1.33801 16.9853 1.42957C17.0241 1.52113 17.0439 1.61961 17.0436 1.71903C17.0433 1.81845 17.0229 1.91677 16.9836 2.00809C16.9443 2.09941 16.8869 2.1818 16.8149 2.25034H16.819Z" fill="#354752"/>
</svg>
