<svg width="16" height="16" viewBox="0 0 16 16" fill="none" xmlns="http://www.w3.org/2000/svg">
<path d="M15.7989 14.8457L11.8254 10.9229C11.8254 10.9229 11.7721 10.8778 11.7454 10.8598C12.6877 9.65134 13.2032 8.16337 13.1766 6.60325C13.1499 4.81769 12.4476 3.14034 11.1854 1.89585C9.92312 0.651369 8.24307 -0.0430226 6.50079 0.00206743C4.74073 0.0291214 3.09623 0.741535 1.86953 2.02209C-0.672778 4.66437 -0.610555 8.90285 1.98509 11.482C3.22957 12.7084 4.85629 13.3758 6.58079 13.3758H6.67857C8.2164 13.3487 9.67422 12.8076 10.8298 11.8066C10.8565 11.8337 10.8743 11.8607 10.9009 11.8878L14.8655 15.8106C14.9988 15.9369 15.1677 16 15.3366 16C15.5055 16 15.6833 15.9369 15.8078 15.8016C16.0655 15.5311 16.0655 15.1072 15.7989 14.8457ZM6.66079 12.0231C5.26519 12.0231 3.93182 11.5 2.91845 10.508C0.838382 8.46095 0.793936 5.07019 2.82067 2.969C3.85181 1.89586 5.22075 1.35477 6.58968 1.35477C7.95861 1.35477 9.23865 1.85977 10.252 2.86979C12.3321 4.91687 12.3765 8.29864 10.3498 10.4089C9.37199 11.4279 8.06528 12.005 6.66079 12.0231Z" fill="#354752"/>
</svg>
